<svg id="Group_2408" data-name="Group 2408" xmlns="http://www.w3.org/2000/svg" xmlns:xlink="http://www.w3.org/1999/xlink" width="151.329" height="262.58" viewBox="0 0 151.329 262.58">
  <defs>
    <clipPath id="clip-path">
      <rect id="Rectangle_1066" data-name="Rectangle 1066" width="151.329" height="262.58" fill="none"/>
    </clipPath>
    <clipPath id="clip-path-3">
      <rect id="Rectangle_1049" data-name="Rectangle 1049" width="144.224" height="13.36" fill="none"/>
    </clipPath>
    <clipPath id="clip-path-6">
      <rect id="Rectangle_1052" data-name="Rectangle 1052" width="77.659" height="9.808" fill="none"/>
    </clipPath>
    <clipPath id="clip-path-8">
      <rect id="Rectangle_1054" data-name="Rectangle 1054" width="18.815" height="11.707" fill="none"/>
    </clipPath>
    <clipPath id="clip-path-9">
      <rect id="Rectangle_1055" data-name="Rectangle 1055" width="21.32" height="12.125" fill="none"/>
    </clipPath>
    <clipPath id="clip-path-10">
      <rect id="Rectangle_1056" data-name="Rectangle 1056" width="19.507" height="12.961" fill="none"/>
    </clipPath>
    <clipPath id="clip-path-12">
      <rect id="Rectangle_1058" data-name="Rectangle 1058" width="19.699" height="14.007" fill="none"/>
    </clipPath>
    <clipPath id="clip-path-16">
      <rect id="Rectangle_1062" data-name="Rectangle 1062" width="19.507" height="12.962" fill="none"/>
    </clipPath>
  </defs>
  <g id="Group_2407" data-name="Group 2407" clip-path="url(#clip-path)">
    <path id="Path_5999" data-name="Path 5999" d="M3.08,258.059,1.7,112.258,77.708,1.7l69.1,111.942-1.037,144.936Z" transform="translate(1.066 1.066)" fill="#6a9130"/>
    <g id="Group_2375" data-name="Group 2375">
      <g id="Group_2374" data-name="Group 2374" clip-path="url(#clip-path)">
        <g id="Group_2364" data-name="Group 2364" transform="translate(2.608 217.654)" style="mix-blend-mode: multiply;isolation: isolate">
          <g id="Group_2363" data-name="Group 2363">
            <g id="Group_2362" data-name="Group 2362" clip-path="url(#clip-path-3)">
              <path id="Path_6000" data-name="Path 6000" d="M145.72,147.105l.106-13.359L1.6,135.141l.177,10.837c18.69-2.127,84.392-8.363,143.94,1.128" transform="translate(-1.602 -133.745)" fill="#e1d9d1"/>
            </g>
          </g>
        </g>
        <g id="Group_2367" data-name="Group 2367" transform="translate(2.608 165.651)" style="mix-blend-mode: multiply;isolation: isolate">
          <g id="Group_2366" data-name="Group 2366">
            <g id="Group_2365" data-name="Group 2365" clip-path="url(#clip-path-3)">
              <path id="Path_6001" data-name="Path 6001" d="M145.72,115.15l.106-13.359L1.6,103.186l.177,10.837c18.69-2.127,84.392-8.363,143.94,1.128" transform="translate(-1.602 -101.79)" fill="#e1d9d1"/>
            </g>
          </g>
        </g>
        <g id="Group_2370" data-name="Group 2370" transform="translate(2.608 114.949)" style="mix-blend-mode: multiply;isolation: isolate">
          <g id="Group_2369" data-name="Group 2369">
            <g id="Group_2368" data-name="Group 2368" clip-path="url(#clip-path-3)">
              <path id="Path_6002" data-name="Path 6002" d="M145.72,83.994l.106-13.359L1.6,72.03,1.78,82.866c18.69-2.127,84.392-8.363,143.94,1.128" transform="translate(-1.602 -70.634)" fill="#e1d9d1"/>
            </g>
          </g>
        </g>
        <g id="Group_2373" data-name="Group 2373" transform="translate(37.372 55.23)" style="mix-blend-mode: multiply;isolation: isolate">
          <g id="Group_2372" data-name="Group 2372">
            <g id="Group_2371" data-name="Group 2371" clip-path="url(#clip-path-6)">
              <path id="Path_6003" data-name="Path 6003" d="M100.623,43.746l-4.169-9.808H27.984l-5.019,9.2c10.083-1.147,45.531-4.511,77.658.609" transform="translate(-22.965 -33.938)" fill="#e1d9d1"/>
            </g>
          </g>
        </g>
      </g>
    </g>
    <path id="Path_6004" data-name="Path 6004" d="M20.169,81.95l.345,10.71,8.983.347.692-10.711Z" transform="translate(12.653 51.413)" fill="#3c3329"/>
    <path id="Path_6005" data-name="Path 6005" d="M24.2,58.326l.238,8.125,6.2.262.477-8.125Z" transform="translate(15.184 36.592)" fill="#3c3329"/>
    <path id="Path_6006" data-name="Path 6006" d="M44.8,58.326l.238,8.125,6.2.262.477-8.125Z" transform="translate(28.104 36.592)" fill="#3c3329"/>
    <path id="Path_6007" data-name="Path 6007" d="M65.39,58.326l.238,8.125,6.2.262.477-8.125Z" transform="translate(41.024 36.592)" fill="#3c3329"/>
    <path id="Path_6008" data-name="Path 6008" d="M78.17,155.464l-.345-10.71-8.983-.347-.692,10.711Z" transform="translate(42.755 90.597)" fill="#3c3329"/>
    <path id="Path_6009" data-name="Path 6009" d="M43.735,81.95l.345,10.71,8.983.347.692-10.711Z" transform="translate(27.438 51.413)" fill="#3c3329"/>
    <path id="Path_6010" data-name="Path 6010" d="M20.169,112.95l.345,10.71,8.983.347.692-10.711Z" transform="translate(12.653 70.862)" fill="#3c3329"/>
    <path id="Path_6011" data-name="Path 6011" d="M78.17,123.794l-.345-10.71-8.983-.347-.692,10.711Z" transform="translate(42.755 70.729)" fill="#3c3329"/>
    <path id="Path_6012" data-name="Path 6012" d="M43.735,112.95l.345,10.71,8.983.347.692-10.711Z" transform="translate(27.438 70.862)" fill="#3c3329"/>
    <path id="Path_6013" data-name="Path 6013" d="M20.169,144.408l.345,10.71,8.983.347.692-10.711Z" transform="translate(12.653 90.598)" fill="#3c3329"/>
    <path id="Path_6014" data-name="Path 6014" d="M78.17,93.006,77.825,82.3l-8.983-.347L68.15,92.661Z" transform="translate(42.755 51.413)" fill="#3c3329"/>
    <path id="Path_6015" data-name="Path 6015" d="M43.735,144.408l.345,10.71,8.983.347.692-10.711Z" transform="translate(27.438 90.598)" fill="#3c3329"/>
    <path id="Path_6016" data-name="Path 6016" d="M1.765,69.636l145.42,1.336-.252,6.075L1.593,75.776Z" transform="translate(0.999 43.688)" fill="#f7f6e2"/>
    <path id="Path_6017" data-name="Path 6017" d="M4.838,115.052,78.428,7.6,144.765,116.78l-1.383,139.581H6.218ZM79.12,0,0,111.251,1.383,261.543l148.91,1.037,1.037-148.566Z" fill="#f7f6e2"/>
    <path id="Path_6018" data-name="Path 6018" d="M28.473,31.68l63.959,1.31,4.827,6.277L24.2,38.169Z" transform="translate(15.184 19.875)" fill="#f7f6e2"/>
    <path id="Path_6019" data-name="Path 6019" d="M35.667,30.692,53.979,52.458h5.528l16.93-19.693-1.728-3.11L59.507,45.2,57.78,4.434,55.015,3.4l-.692,41.114L37.741,27.927Z" transform="translate(22.377 2.131)" fill="#f7f6e2"/>
    <path id="Path_6020" data-name="Path 6020" d="M2.76,92.669l140.963.692V113.4L3.105,111.672Z" transform="translate(1.732 58.138)" fill="#f7f6e2"/>
    <path id="Path_6021" data-name="Path 6021" d="M2.76,124.731l140.963.692v20.038L3.105,143.734Z" transform="translate(1.732 78.253)" fill="#f7f6e2"/>
    <g id="Group_2386" data-name="Group 2386">
      <g id="Group_2385" data-name="Group 2385" clip-path="url(#clip-path)">
        <g id="Group_2378" data-name="Group 2378" transform="translate(6.02 154.233)" style="mix-blend-mode: multiply;isolation: isolate">
          <g id="Group_2377" data-name="Group 2377">
            <g id="Group_2376" data-name="Group 2376" clip-path="url(#clip-path-8)">
              <path id="Path_6022" data-name="Path 6022" d="M3.7,94.774l.182,11.707,18.633-5.227Z" transform="translate(-3.699 -94.774)" fill="#88a759"/>
            </g>
          </g>
        </g>
        <g id="Group_2381" data-name="Group 2381" transform="translate(27.975 154.86)" style="mix-blend-mode: multiply;isolation: isolate">
          <g id="Group_2380" data-name="Group 2380">
            <g id="Group_2379" data-name="Group 2379" clip-path="url(#clip-path-9)">
              <path id="Path_6023" data-name="Path 6023" d="M17.19,100.595l21.32-5.435v12.126Z" transform="translate(-17.19 -95.159)" fill="#88a759"/>
            </g>
          </g>
        </g>
        <g id="Group_2384" data-name="Group 2384" transform="translate(53.476 154.86)" style="mix-blend-mode: multiply;isolation: isolate">
          <g id="Group_2383" data-name="Group 2383">
            <g id="Group_2382" data-name="Group 2382" clip-path="url(#clip-path-10)">
              <path id="Path_6024" data-name="Path 6024" d="M32.86,95.159l.627,12.962,18.881-6.482Z" transform="translate(-32.86 -95.159)" fill="#88a759"/>
            </g>
          </g>
        </g>
      </g>
    </g>
    <path id="Path_6025" data-name="Path 6025" d="M45.971,101.64l21.52-6.48-.628,14.215Z" transform="translate(28.841 59.701)" fill="#88a759"/>
    <g id="Group_2391" data-name="Group 2391">
      <g id="Group_2390" data-name="Group 2390" clip-path="url(#clip-path)">
        <g id="Group_2389" data-name="Group 2389" transform="translate(100.304 154.86)" style="mix-blend-mode: multiply;isolation: isolate">
          <g id="Group_2388" data-name="Group 2388">
            <g id="Group_2387" data-name="Group 2387" clip-path="url(#clip-path-12)">
              <path id="Path_6026" data-name="Path 6026" d="M61.635,95.159v14.007l19.7-6.69Z" transform="translate(-61.635 -95.159)" fill="#88a759"/>
            </g>
          </g>
        </g>
      </g>
    </g>
    <path id="Path_6027" data-name="Path 6027" d="M74.865,102.315l21.955-6.9V107.96Z" transform="translate(46.968 59.862)" fill="#88a759"/>
    <path id="Path_6028" data-name="Path 6028" d="M10.122,95.192l9.826,3.136,12.334-3.554Z" transform="translate(6.35 59.459)" fill="#88a759"/>
    <path id="Path_6029" data-name="Path 6029" d="M39.283,95.159,48.9,98.714l11.5-3.346Z" transform="translate(24.645 59.7)" fill="#88a759"/>
    <path id="Path_6030" data-name="Path 6030" d="M67.031,95.031,78.11,99.211l14.217-4.181Z" transform="translate(42.053 59.62)" fill="#88a759"/>
    <path id="Path_6031" data-name="Path 6031" d="M68.572,105.136l9.2-3.554,10.871,3.554Z" transform="translate(43.021 63.73)" fill="#88a759"/>
    <path id="Path_6032" data-name="Path 6032" d="M39.8,104.446l9.616-3.762,10.244,4.389Z" transform="translate(24.968 63.166)" fill="#88a759"/>
    <path id="Path_6033" data-name="Path 6033" d="M10.251,103.481l10.034-2.926,10.034,3.136Z" transform="translate(6.431 63.086)" fill="#88a759"/>
    <g id="Group_2396" data-name="Group 2396">
      <g id="Group_2395" data-name="Group 2395" clip-path="url(#clip-path)">
        <g id="Group_2394" data-name="Group 2394" transform="translate(6.02 205.751)" style="mix-blend-mode: multiply;isolation: isolate">
          <g id="Group_2393" data-name="Group 2393">
            <g id="Group_2392" data-name="Group 2392" clip-path="url(#clip-path-8)">
              <path id="Path_6034" data-name="Path 6034" d="M3.7,126.432l.182,11.707,18.633-5.227Z" transform="translate(-3.699 -126.432)" fill="#88a759"/>
            </g>
          </g>
        </g>
      </g>
    </g>
    <path id="Path_6035" data-name="Path 6035" d="M17.19,132.253l21.32-5.435v12.126Z" transform="translate(10.785 79.562)" fill="#88a759"/>
    <g id="Group_2401" data-name="Group 2401">
      <g id="Group_2400" data-name="Group 2400" clip-path="url(#clip-path)">
        <g id="Group_2399" data-name="Group 2399" transform="translate(53.476 206.379)" style="mix-blend-mode: multiply;isolation: isolate">
          <g id="Group_2398" data-name="Group 2398">
            <g id="Group_2397" data-name="Group 2397" clip-path="url(#clip-path-16)">
              <path id="Path_6036" data-name="Path 6036" d="M32.86,126.817l.627,12.962L52.367,133.3Z" transform="translate(-32.86 -126.817)" fill="#88a759"/>
            </g>
          </g>
        </g>
      </g>
    </g>
    <path id="Path_6037" data-name="Path 6037" d="M45.971,133.3l21.52-6.48-.628,14.215Z" transform="translate(28.841 79.562)" fill="#88a759"/>
    <g id="Group_2406" data-name="Group 2406">
      <g id="Group_2405" data-name="Group 2405" clip-path="url(#clip-path)">
        <g id="Group_2404" data-name="Group 2404" transform="translate(100.304 206.379)" style="mix-blend-mode: multiply;isolation: isolate">
          <g id="Group_2403" data-name="Group 2403">
            <g id="Group_2402" data-name="Group 2402" clip-path="url(#clip-path-12)">
              <path id="Path_6038" data-name="Path 6038" d="M61.635,126.817v14.007l19.7-6.69Z" transform="translate(-61.635 -126.817)" fill="#88a759"/>
            </g>
          </g>
        </g>
      </g>
    </g>
    <path id="Path_6039" data-name="Path 6039" d="M74.865,133.973l21.955-6.9v12.544Z" transform="translate(46.968 79.723)" fill="#88a759"/>
    <path id="Path_6040" data-name="Path 6040" d="M10.122,126.85l9.826,3.136,12.334-3.554Z" transform="translate(6.35 79.32)" fill="#88a759"/>
    <path id="Path_6041" data-name="Path 6041" d="M39.283,126.817l9.616,3.554,11.5-3.346Z" transform="translate(24.645 79.562)" fill="#88a759"/>
    <path id="Path_6042" data-name="Path 6042" d="M67.031,126.688l11.079,4.181,14.217-4.181Z" transform="translate(42.053 79.481)" fill="#88a759"/>
    <path id="Path_6043" data-name="Path 6043" d="M68.572,136.794l9.2-3.554,10.871,3.554Z" transform="translate(43.021 83.591)" fill="#88a759"/>
    <path id="Path_6044" data-name="Path 6044" d="M39.8,136.1l9.616-3.762,10.244,4.389Z" transform="translate(24.968 83.027)" fill="#88a759"/>
    <path id="Path_6045" data-name="Path 6045" d="M10.251,135.139l10.034-2.926,10.034,3.134Z" transform="translate(6.431 82.947)" fill="#88a759"/>
  </g>
</svg>
