<svg xmlns="http://www.w3.org/2000/svg" xmlns:xlink="http://www.w3.org/1999/xlink" width="224.476" height="244.356" viewBox="0 0 224.476 244.356">
  <defs>
    <clipPath id="clip-path">
      <rect id="Rectangle_901" data-name="Rectangle 901" width="164.163" height="198.725" fill="none"/>
    </clipPath>
  </defs>
  <g id="Group_2318" data-name="Group 2318" transform="translate(0 58.831) rotate(-21)">
    <g id="Group_2108" data-name="Group 2108" clip-path="url(#clip-path)">
      <path id="Path_3244" data-name="Path 3244" d="M10.466,166.681a15.827,15.827,0,0,1-8.044-6.456c-2.313-3.652-4.143-10,.26-19.494a93.136,93.136,0,0,1,12.863-20.288,138.744,138.744,0,0,1,26.531-24.17C34.224,91.9,26.127,87.356,19.943,79.826c-2.7-3.289-8.811-11.846-7.209-20.266a14.192,14.192,0,0,1,7.428-9.892c6.867-3.815,15.206-3.943,24.777-.385A63.952,63.952,0,0,1,53.4,53.214a49.315,49.315,0,0,1,8.809-32.272C71.783,7.028,87.119-.779,103.235.062a55.3,55.3,0,0,1,16.376,3.406,54.694,54.694,0,0,1,5.045,2.17c17.428,8.567,27.165,29.308,24.229,51.611a50.682,50.682,0,0,1-11.735,26.9,65.062,65.062,0,0,1,7.615,2.28c10.111,3.757,16.407,9.6,18.72,17.37a14.205,14.205,0,0,1-1.554,12.048c-4.688,7.316-14.9,9.487-19.069,10.081-9.33,1.327-18.114-.413-26.609-2.134a130.836,130.836,0,0,1,4.1,38.618c-.324,6.154-1.122,15.281-4.284,23.439-2.978,7.686-7.989,12.23-14.112,12.8a18.171,18.171,0,0,1-8.063-1.083c-9.484-3.527-15.469-14.362-18.686-20.18-2.743-4.965-5.408-10.343-8.147-16.436l-.642-1.424q-.819-1.8-1.64-3.663a263.764,263.764,0,0,1-30.1,9.327l-1.3.33c-6.132,1.576-15.4,3.954-22.916,1.159" transform="translate(0 -0.001)" fill="#ce7f29"/>
      <path id="Path_3245" data-name="Path 3245" d="M7.489,157.77a11.32,11.32,0,0,1-5.761-4.608c-2.475-3.905-2.289-8.984.546-15.1A88.349,88.349,0,0,1,14.5,118.781c8.185-9.843,18.277-18.617,31.638-27.479-2.04-1.217-4.146-2.388-6.2-3.531-7.542-4.2-15.34-8.542-21.025-15.462-1.787-2.175-7.518-9.795-6.243-16.487a9.6,9.6,0,0,1,5.142-6.733c7.68-4.265,18.013-2.757,30.414,4.473,2.6,1.518,5.062,3.093,7.349,4.711-4.519-12.841-2.422-27.315,5.843-39.327C70.08,6.359,83.91-.7,98.418.055A50.631,50.631,0,0,1,113.43,3.178a49.634,49.634,0,0,1,4.617,1.984c18.082,8.889,23.926,29.953,21.7,46.886-1.693,12.874-7.913,23.826-17.172,30.383,2.281.269,4.439.618,6.519,1.051a65.18,65.18,0,0,1,9.493,2.654c8.681,3.226,14.037,8.061,15.913,14.37a9.6,9.6,0,0,1-1.015,8.255c-3.768,5.877-13.081,7.617-15.849,8.01-8.662,1.233-17.16-.488-25.375-2.153-2.291-.465-4.638-.942-6.974-1.349,4.649,15.6,6.633,30.491,5.9,44.3-.31,5.836-1.058,14.472-3.982,22.021-2.314,5.971-5.954,9.48-10.249,9.879a13.6,13.6,0,0,1-6.035-.815c-7.886-2.931-13.334-12.8-16.263-18.1-2.688-4.861-5.3-10.127-7.98-16.094l-.627-1.4c-1.144-2.527-2.319-5.124-3.348-7.772-.654.289-1.353.582-2.108.882a253.579,253.579,0,0,1-31.615,9.955l-1.327.34c-5.9,1.515-13.995,3.589-20.161,1.3m30.2-105.9c-7.382-2.743-13.569-2.777-18.39-.1a6.6,6.6,0,0,0-3.618,4.627c-.815,4.279,2.356,10.022,5.6,13.968C26.6,76.833,34.14,81.033,41.434,85.092c2.784,1.551,5.663,3.154,8.39,4.866a1.53,1.53,0,0,1,.02,2.583c-14.112,9.147-24.592,18.107-32.982,28.2a85.15,85.15,0,0,0-11.8,18.614c-2.371,5.106-2.621,9.2-.74,12.165a8.206,8.206,0,0,0,4.24,3.377c5.267,1.957,12.816.02,18.33-1.394l1.339-.343a250.753,250.753,0,0,0,31.231-9.831c1.3-.52,2.427-1.008,3.433-1.494a1.605,1.605,0,0,1,1.242-.039,1.532,1.532,0,0,1,.864.9c1.113,3.075,2.5,6.143,3.841,9.11l.634,1.4c2.646,5.889,5.218,11.081,7.866,15.871,2.737,4.952,7.828,14.17,14.647,16.7a10.526,10.526,0,0,0,4.683.637c4.154-.383,6.59-5.137,7.675-7.935,2.765-7.141,3.481-15.448,3.78-21.075C108.855,143.613,106.8,128.673,102,113c-.1-.335-.2-.676-.3-1.019l-.056-.192a1.532,1.532,0,0,1,1.7-1.942c3.192.482,6.409,1.134,9.523,1.767,7.961,1.613,16.193,3.283,24.334,2.123,4.8-.684,11.263-2.829,13.7-6.63a6.578,6.578,0,0,0,.659-5.728c-1.588-5.334-6.314-9.5-14.045-12.37a62.352,62.352,0,0,0-9.049-2.527,79.182,79.182,0,0,0-10.7-1.421,1.534,1.534,0,0,1-.621-2.879c.709-.38,1.408-.784,2.1-1.217,9.424-5.891,15.788-16.576,17.462-29.318,2.086-15.847-3.292-35.517-20.011-43.735a47.033,47.033,0,0,0-4.331-1.862A47.574,47.574,0,0,0,98.257,3.116C84.822,2.416,72,8.982,63.948,20.683c-8.19,11.9-9.862,26.991-4.364,39.375.344.775.717,1.538,1.106,2.291a1.532,1.532,0,0,1-2.335,1.889,88.876,88.876,0,0,0-11.668-8.027,58.7,58.7,0,0,0-9-4.344" transform="translate(4.579 4.6)" fill="#fff"/>
      <path id="Path_3246" data-name="Path 3246" d="M1.961,6.054C5.725,7.453,7.9,1.615,4.132.215S-1.8,4.654,1.961,6.054" transform="translate(74.013 112.399)" fill="#fff"/>
      <path id="Path_3247" data-name="Path 3247" d="M1.961,6.053C5.725,7.453,7.9,1.614,4.132.215S-1.8,4.653,1.961,6.053" transform="translate(69.222 125.29)" fill="#fff"/>
      <path id="Path_3248" data-name="Path 3248" d="M7.414,7.082C6.248,10.216,3.779,12.194,1.9,11.493S-.564,7.684.6,4.55,4.236-.559,6.118.141s2.46,3.807,1.3,6.941" transform="translate(80.677 37.055)" fill="#21381d"/>
      <path id="Path_3249" data-name="Path 3249" d="M7.414,7.083C6.25,10.217,3.781,12.193,1.9,11.494S-.564,7.685.6,4.55,4.238-.558,6.118.14s2.46,3.808,1.3,6.943" transform="translate(114.735 49.712)" fill="#21381d"/>
      <path id="Path_3250" data-name="Path 3250" d="M1.1,1.086C-1.155,7.029-.371,19.512,7.472,21.113c7.212,1.474,12.3-7.572,14.714-12.99.908-2.043-2.342-3.237-3.244-1.206-1.784,4-4.929,10.052-9.685,10.909C2.826,18.986,3.05,5.705,4.345,2.291,5.139.2,1.9-1,1.1,1.086" transform="translate(88.624 48.5)" fill="#21381d"/>
      <path id="Path_3251" data-name="Path 3251" d="M13.709,6.4c-.6,1.612-4.135,1.785-7.9.386S-.512,2.944.087,1.333,4.221-.453,7.984.945,14.31,4.784,13.709,6.4" transform="translate(67.622 46.489)" fill="#fff"/>
      <path id="Path_3252" data-name="Path 3252" d="M13.708,6.4c-.6,1.613-4.134,1.785-7.9.388S-.514,2.944.087,1.333,4.223-.453,7.983.945s6.326,3.84,5.725,5.451" transform="translate(114.655 63.97)" fill="#fff"/>
      <path id="Path_3253" data-name="Path 3253" d="M10.338,1.426C13.258,6.857,7.4,10.183,3.6,12.194c-.814.43-1.86,1.012-2.151,1.973a11.1,11.1,0,0,0-.369,5.16c.429,2.447,4.309,5.142-.468,6.943-1.256.474-.382,2.358.865,1.889,1.737-.656,3.66-1.419,3.846-3.546.272-3.106-5.389-7.982-.859-10.53C9.85,11.053,15.786,7.184,12.225.559,11.594-.613,9.7.244,10.338,1.426" transform="translate(30.818 54.046)" fill="#fff"/>
      <path id="Path_3254" data-name="Path 3254" d="M1.195,2.085A9.336,9.336,0,0,1,9.528,6.111c.989,1.659-.232,4.042-.848,5.614a36.957,36.957,0,0,0-2.292,7.234c-.164,1.016.657,1.715,1.4,2.209,2.339,1.554,8.071,4.095,7.608,7.193-.2,1.324,1.871,1.5,2.069.18.61-4.085-1.82-4.484-4.763-6.481-1.369-.931-2.7-1.915-4.085-2.834-.581-.386,1.46-5.311,1.674-5.908,1.081-3.037,2.482-5.791.678-8.823C9.057,1.286,4.36-.276.837.04-.5.159-.132,2.2,1.195,2.085" transform="translate(14.522 130.737)" fill="#fff"/>
      <path id="Path_3255" data-name="Path 3255" d="M.292,1.633C5.274,6.524,8.96,13.177,6.6,20.251c-.421,1.267,1.522,1.995,1.946.723C11.138,13.212,7.439,5.756,1.9.319.952-.611-.663.7.292,1.633" transform="translate(8.264 140.834)" fill="#fff"/>
      <path id="Path_3256" data-name="Path 3256" d="M11.4,1.176C13.247,9.254,10.347,24.619.818,26.738c-1.3.289-.953,2.338.358,2.047C11.943,26.391,15.566,10.091,13.446.817c-.3-1.3-2.344-.951-2.045.358" transform="translate(36.548 58.073)" fill="#fff"/>
      <path id="Path_3257" data-name="Path 3257" d="M10.708.917c-.38,10.255.964,21.6-10.12,26.664a1.039,1.039,0,0,0,.865,1.887C13.294,24.06,12.359,12.383,12.775,1.1c.049-1.332-2.018-1.521-2.067-.18" transform="translate(42.531 61.017)" fill="#fff"/>
      <path id="Path_3258" data-name="Path 3258" d="M11.943,1.963c-5.76,2.208-3.5,8.549-1.931,12.555a3.952,3.952,0,0,1,.34,2.9A11.083,11.083,0,0,1,7.26,21.569C5.337,23.138.641,22.647,3.081,27.128c.642,1.18-1.25,2.037-1.887.865C.307,26.363-.651,24.528.6,22.8c1.82-2.532,9.291-2.525,7.525-7.417C6.024,9.574,4.056,2.766,11.078.076c1.245-.476,2.117,1.407.865,1.887" transform="translate(130.145 91.022)" fill="#fff"/>
      <path id="Path_3259" data-name="Path 3259" d="M29.775,4.922a9.331,9.331,0,0,0-8.941-2.394c-1.834.61-2.464,3.209-3.025,4.8a36.9,36.9,0,0,1-2.99,6.975,2.374,2.374,0,0,1-2.5.757c-2.787-.352-8.787-2.17-10.462.477-.715,1.133-2.4-.086-1.685-1.214,2.208-3.492,4.309-2.206,7.844-1.8,1.644.191,3.3.316,4.944.523.688.088,2.361-4.974,2.59-5.567,1.163-3.006,1.9-6.005,5.251-7.124,3.541-1.181,8.119.706,10.58,3.245.931.961-.679,2.272-1.605,1.316" transform="translate(81.056 163.253)" fill="#fff"/>
      <path id="Path_3260" data-name="Path 3260" d="M18.97,2.048C12,2.5,4.865,5.127,2.029,12.023c-.509,1.236-2.455.516-1.945-.723C3.2,3.733,10.864.5,18.612,0c1.324-.086,1.693,1.959.358,2.045" transform="translate(90.987 178.108)" fill="#fff"/>
      <path id="Path_3261" data-name="Path 3261" d="M12.75,1.82C6.074,6.732-1.764,20.26,4.066,28.088c.8,1.069-.8,2.392-1.605,1.314C-4.13,20.561,3.772,5.853,11.436.213c1.072-.79,2.4.81,1.314,1.607" transform="translate(121.729 89.589)" fill="#fff"/>
      <path id="Path_3262" data-name="Path 3262" d="M13.389,1.613C6.977,9.627-1.45,17.341,3.637,28.413a1.04,1.04,0,0,1-1.889.867C-3.686,17.447,4.651,9.217,11.706.4c.832-1.041,2.522.167,1.684,1.214" transform="translate(115.33 88.376)" fill="#fff"/>
    </g>
  </g>
</svg>
