<?xml version="1.0" encoding="UTF-8"?>
<svg id="Layer_1" data-name="Layer 1" xmlns="http://www.w3.org/2000/svg" viewBox="0 0 1379.16 962.78">
  <defs>
    <style>
      .cls-1 {
        fill: #21381d;
      }

      .cls-1, .cls-2, .cls-3, .cls-4 {
        stroke-width: 0px;
      }

      .cls-2 {
        fill: #a9b13e;
      }

      .cls-3 {
        fill: #b4131b;
      }

      .cls-4 {
        fill: #fefefd;
      }
    </style>
  </defs>
  <path class="cls-1" d="m740.26,783.66c.19-6.26,5.25-11.27,11.51-11.4,6.28-.06,11.43,4.98,11.5,11.26,0,.17,0,.35,0,.52.13,6.07-4.7,11.1-10.77,11.22-.21,0-.41,0-.62,0-6.28.13-11.48-4.85-11.61-11.12,0-.16,0-.32,0-.47Z"/>
  <path class="cls-2" d="m861.58,694.12c-4.35-10.7-8.11-21.66-13.64-31.86-.95-2.33-3.47-3.61-5.91-3-10.86,3.91-21.87,3.9-33,1.23-3.43.84-6.22-.7-9-2.41-4.95-2.53-10.19-4.54-14.65-8-3.49-1.05-6.21-3.81-7.22-7.32-9.95-14.42-9.74-30.24-6.42-46.48-1.08-2.34.26-4.13,1.35-6,2-4,4.09-7.94-2.07-10.28-.27-.11-.42-.51-.67-.71-12.25-10-19.71-23.31-25.72-37.67-4.53-10.96-8.33-22.2-11.37-33.66-3-11-5.45-22.13-7.5-33.22-1.87-10.14-3.07-20.55-4.19-30.89-2.42-22.34-4.43-44.7-5.23-67.14-.85-23.76-1.5-47.52-1.25-71.3,0-1.44.62-3.16-.6-4.29-2.24-2.07-9.56-.28-10.69,2.58-.73,1.66-1.23,3.41-1.49,5.2-2.11,22.66-3.9,45.35-6.26,68-2.1,20.28-4.09,40.58-9.91,60.31-6.9,23.38-16.76,45.29-36.74,60.05-10.36,7.66-14.85,16-15.86,28.44-1.61,19.88-3.42,39.71-3.27,59.67,0,3.06.78,3.21,3.4,2.11,5.15-2.16,9.26-5.76,13.62-9,.36-3.11,2.82-5.57,5.93-5.93l2.65-3.16c1.08-3.11,2.52-6,5.28-8,2.11-2.55,3.7-5.49,4.66-8.65.56-1.6,1.75-3.79-.95-5.55-12.72-8.25-15.14-15.49-10.56-30.35.8-4.73,4.5-8.43,9.23-9.23.5-.04.99-.14,1.46-.3,11.73-5.3,24.87.76,29.12,11.29,4.61,11.42.92,22.92-11.35,28.64-2.33,1.08-1.72,2.5-1.76,3.93-.55,17.36-3.39,34.23-10.55,50.2.64,2.31-.24,3.93-2.28,5-.72,1.1-1.5,2.16-2.14,3.3-6.83,11.85-16.55,21.79-28.25,28.88-4.39,2.72-4.7,4.47-3.83,8.47,1.65,7.62,2.76,15.36,4.53,22.94,2.26,9.76,4.94,19.42,7.62,29.8,6.74-7.9,12.54-15.37,15.68-24.19,1.72-4.82,7.16-9.87-.54-15.9-7.11-5.57-7.28-19.71-2.53-27.77,4.46-7.58,15.28-12.1,24.6-10.27,9.57,1.88,17.75,10.81,18.2,19.88.62,12.52-5.27,21.51-16.32,24.87-2.44.74-4.79.78-5,4.67-1.44,23.44-8.5,45.22-20.37,65.44-1.33,2.27-2.12,4.31-1.34,7,7,24.32,13.16,48.85,17.21,75.23,18-28.5,19.18-59.25,18.91-91.58,6.6,12.07,11.63,23.35,14.4,35.55,2.56,10.65,6.01,21.06,10.33,31.12,1.08,2.62,2,4.06,5.65,3.52,8.73-1.26,16.14,1.92,21.14,9.36,4.84,7.18,5.37,15,1.22,22.63-1.51,2.79-.63,4,1.48,5.59,12.66,9.56,26.72,12.94,42.31,10,24.1-4.58,38-26,32-49.72-4.44-17.79-16.29-29.67-31.38-38.84-15.9-9.66-32.11-18.84-46.87-30.25-38-29.35-47.87-68.8-40.63-114.16,1.14-7.14,4-14,9.47-19.29,5.73-5.55,12.45-6.21,18.95-1.7,4.78,3.33,7.85,8,10.55,13.06,6.44,12,9.11,25.22,11.89,38.36,4,18.68,5.77,37.77,10.83,56.24,4.4,16.06,11.73,29.93,28.4,36.32,9.53,3.62,19.77,4.99,29.92,4,10.3-.94,19.29-4.9,25.89-13.29.86-2.11,1.8-4.18,3.83-5.48,4.68-7,6.49-15,7.83-23.12.18-.98.1-1.98-.23-2.92Zm-109.86,73c8.96-.3,16.46,6.72,16.76,15.68,0,.27.01.53,0,.8.1,9.68-6.77,16.79-16.31,16.89-9.83.1-17.13-7-17.11-16.68-.12-9.09,7.16-16.55,16.25-16.67.13,0,.27,0,.4,0v-.02Z"/>
  <path class="cls-2" d="m526.43,522.76c-7.44,11.77-10.25,24.23-14.44,36.54-5-5.21-10.84-8.38-18.06-8.3-5.03-.04-9.93,1.61-13.91,4.69-8.16,6.34-11.03,17.37-7,26.88,4.49,10.64,13.75,15,28.29,13.17-2.57,5.56-6.12,10.27-10.15,15.33-4.26-7.15-9.85-11.61-18-12.06-5.54-.46-11.03,1.37-15.19,5.06-10,8.85-9.28,21.57,2,33.69-.81.53-1.56,1.09-2.36,1.55-2.74,1.55-5.6,4.42-8.24,4.25-3-.21-2-4.8-3.31-7.3-4.64-9.05-14.99-13.61-24.8-10.93-9.68,2.71-16.05,11.92-15.17,21.93.44,5.68.44,5.66-5.3,4.57-11.91-2.28-23.17-6-32.05-14.8-17.39-17.31-14.69-48.1,5.47-62.08,11.48-8,24.59-12.28,37.74-16.37,12.2-3.79,24.43-7.58,36.83-10.63,30.23-7.42,53.52-25,72.82-48.64,12.24-15.12,22.41-31.8,30.24-49.61,1.18-2.62,2-5.28-1-7s-4.89,0-6.65,2.49c-23.33,32.35-55.5,50.22-94.28,56.89-12.69,2.18-25.49,2.07-38.06-1.6-13.66-4-24.54-11.4-27-26.2-2.55-15.42,1.31-29.43,13.85-40,9.52-8,21-11.08,33-12.63,8.92-1.14,17.93-1.26,26.88-.38,3.14.31,4.35.86,4.44,4.5.36,13.9,11.66,24.28,25,23.53,13.24-.59,23.5-11.81,22.9-25.05-.02-.55-.07-1.11-.13-1.66-.32-3.16.95-3,3-3.31,27.71-3.91,52.3-14.6,72.9-33.81,8.52-7.99,15.79-17.22,21.57-27.38,16.68-29,40.09-50.57,70.79-64.08.46-.06.92-.06,1.38,0-1.43,3.85-3.66,7.34-6.55,10.25-27.8,29.4-51.13,62.72-69.25,98.89-12.88,25.79-17.82,53.74-18.5,82.44-.34,14-.12,27.94,2,41.8.16,1-.09,2.2.41,2.93,3.91,5.74,0,9.3-3.29,13.32-4.67,5.67-8.39,11.93-10.15,19.2-2.46,10.2.84,18.31,8.81,24.73,4.58,3.6,9.86,6.23,15.5,7.71,3,.83,3.74,2.32,3.85,5.19.44,10.63,1.55,21.22,3.34,31.7.58,3.44-.49,5.32-2.89,7.15-12.91,9.89-27.78,13.09-43.63,12.21-15.45-.86-25.85-9.33-32.36-23-3.45-7.57-5.63-15.65-6.46-23.93-3-25.26.35-50.06,5.5-74.72.42-1.92,1.26-3.8-.33-7.12Z"/>
  <path class="cls-2" d="m863.81,614.14c-13.55-23.79-27.75-46-41.83-68.32-6.39-10.11-12.69-20.28-19-30.41-1.06-1.7-1.87-3.27-1.52-5.53,6.55-42.51-.09-83.37-15.79-123-9.23-23.16-21.3-45.09-35.95-65.27-4.6-6.38-8.3-13.17-8.74-21.34-.17-3.07.51-4.86,3.72-5.84,2.93-.89,6.13-4.23,8.27-3.55,3.23,1,4.41,5.48,6.17,8.64,12.56,22.44,23.88,45.6,39.49,66.24,8.44,11.14,16.92,22.23,25.91,32.93,1.81,2.14,2.7,3.86,1.51,7-4.22,10.89.8,23.19,11.45,28,11.13,5,23.48.82,29.32-10.25,1.1-2.07,2.06-2.92,4.43-2.77,25.88,1.58,51.81,2.68,77.66,4.72,16.46,1.3,28.53,10.09,34.19,25.77,5.71,15.83-.08,29.51-10.88,41.1-19,20.35-45.59,23.75-71.57,9.78-13.51-7.26-24.36-17.84-35.45-28.13-3-2.83-6.07-5.71-9.85-7.58-5-2.45-7.68-.77-7.7,4.73,0,6.22,2.59,11.63,5.6,16.81,6.45,11.1,15.28,20.07,25.58,27.62,23.19,17,46.79,33.45,70.6,49.58,2.61,1.77,3.86,3,2.24,6.53-3.74,8.24-1,17.73,5.89,23.38,7.28,5.95,16.41,6,26,0,2.19,2.06,2.65,4.92,3.16,7.62,1.37,7.19.26,8.43-6.85,8.29-8.08-.15-14.35,4-17,11.33-2.57,7.15-.62,15,5.8,19.56,3.48,2.48,2.45,3.86.2,5.93-11.74,10.79-25.49,12.16-40,7.78-19.77-6-31.44-20.45-38.24-39.09-5.86-16.06-8.5-33.07-13.43-49.44-3.44-11.44-6.73-22.94-11.31-34-.83-1.97-.8-4.19.1-6.13,3-8,1.87-15.48-4.07-21.72-5.52-5.82-12.65-7.45-20.19-5.26-8,2.33-12.77,8-14.24,16.35-2.34,13.29,10.25,25.46,23.65,22.75,2.32-.47,4.15-1.49,5.32,2,7.63,22.6,10.42,46.56,8.19,70.31-.21.98-.5,1.94-.84,2.88Z"/>
  <path class="cls-3" d="m759,285.18c.39-.56.83-1.09,1.33-1.56,2.55-2,2.73-6.93,5.93-6.91,2.71,0,5.43,2.89,8.09,4.58,30.17,18.92,58.19,41.05,83.59,66,18.46,18.25,39.49,32.46,65.12,38.8,17.84,4.42,34.7,2.78,49.81-8.5,12.72-9.5,18.81-23,19.69-38.23,2.05-35.33-5.76-68.08-29.07-95.77-17.05-20.24-39.46-31.56-65.39-34.69-48.35-5.83-94.35,1.9-136.87,26.69-1.51.88-2.68,1.77-4.19-.15-1.68-2.07-3.5-4.01-5.47-5.8-1.93-1.8-4.05-3.39-6.33-5.27,18.31-12.48,38.18-21,59-27.38,37.9-11.58,76.78-15.91,116.27-13.95,62.69,3.12,109.11,42.37,124.23,104.4,4.52,18.4,7.52,36.95,3.62,55.82-7.41,36-35.91,62.9-72.41,70.44s-68.1-3.45-97.27-24.58c-20.32-14.71-37.28-33.1-55.67-50-17.52-16-34.8-32.42-53.7-46.91-3.27-2.49-6.81-4.65-10.31-7.03Z"/>
  <path class="cls-3" d="m677.88,237.92c-16.49-6.06-33.31-11.19-50.37-15.37-36.19-8.84-73.2-13.97-110.43-15.29-19-.71-38-.41-56.45,4.63s-34.91,14-42.9,32.62c-17.1,39.88,3,85.93,39.66,97.66,17.89,5.71,35.15,2.33,52.12-4,25.4-9.53,48.9-23,73.18-34.93,23.88-11.69,48-22.67,74.32-28,6.52-1.3,13.12-2.17,19.76-2.6,2.92-.2,3.8,1,4.11,3.45.18,2.81.77,5.59,1.76,8.23,1.2,2.74-1.78,2.71-3.1,3.38-27.09,13.78-53.39,29.06-78.78,45.78-15.53,10.21-30.59,21.16-47.81,28.62-17.55,7.6-35.68,13.32-54.84,13.16-28-.23-52.56-10.92-73.58-29-28.64-24.6-38-57.2-34.41-93.43,3.73-38,26.52-61.74,66.23-72,25-6.46,50.4-6.5,75.81-3.47,50.07,6,96.78,22.55,141.54,45.23,3.67,1.86,6,3.5,4.66,8.07-.61,2.04-.32,4.32-.48,7.26Z"/>
  <path class="cls-3" d="m852.74,906.26c4.51-11.33,8.49-21.82,11.73-32.57,11.86-39.28,18-79.4,16.38-120.44-.91-23.13-8-45-16.39-66.42-16.89-43.11-40-83.07-62.89-123.12-16.81-29.38-34.32-58.38-48.79-89-14.58-30.92-22.73-63.66-27.6-97.31-3.44-24.05-5.08-48.32-4.92-72.62,0-2.68.28-4.29,3.53-4.5,3.71-.23,7.38-1.11,11.07-1.7.38,3.79.79,7.58,1.12,11.38,4.38,51.53,14.16,101.92,32.54,150.4,9.82,25.91,24.48,49.29,39.1,72.66,20.94,33.49,42.91,66.37,61.2,101.46,15,28.79,27.49,58.51,33.65,90.62,4.47,23.28,4.08,46.61,1.43,70-3.15,27.78-10,54.5-24,79-6.96,11.97-15.19,22.96-27.16,32.16Z"/>
  <path class="cls-3" d="m628.75,956.08c6.51-15.45,11.39-31.54,14.55-48,5.09-26.81,5.79-53.83,4.27-81-2.84-50.53-14.42-99.49-26.57-148.36-8-32.35-13-65.16-13.33-98.57-.33-30.11.53-60.18,4.38-90.06,3.94-30.47,13.7-59.44,24.61-88,14-36.76,30.89-72.23,49.4-107,1.72-3.22,2.95-4.51,5.92-1.5,2.27,2.3,7.33,2.1,7.68,5.23.33,2.86-2.29,6.05-3.62,9.09-21.48,48.79-40.55,98.42-54.24,150-12.81,48.35-17.65,97.35-16.64,147.24.78,38.69,9.91,75.57,20.49,112.33,8.68,30.15,17.59,60.24,23,91.21,5.32,30.23,7.38,60.4-2.4,90.24-7.3,22.42-19.35,41.75-37.5,57.15Z"/>
  <path class="cls-3" d="m636.36,7.35c15.52-2.34,28.63,1.84,40.91,9.13,24.28,14.41,37.38,36.24,42.91,63.55,5.87,29,8.24,58.21,8.86,87.64.34,15.79,0,31.6-.1,47.4,0,7.73-.08,7.73-7.7,7.73-12,0-11.71,0-12.16-12.17-2.7-72.06-23.17-138.1-67-196.13-1.68-2.24-3.46-4.33-5.72-7.15Z"/>
  <path class="cls-2" d="m571.1,739.35c-5.82.17-11.64-.44-17.31-1.8-19.91-5.15-28.17-20.35-21.8-40,2.87-8.86,8.34-15.84,15.55-21.46,17.69-13.78,38.56-19.52,60.14-23.41,1.72-.31,2.33.22,2.63,1.92,4,22,10.31,43.56,15.26,65.39.6,2.67-.93,3.69-2.47,4.85-7,5.28-15.11,8.11-23.48,10.4-9.28,2.62-18.87,4-28.52,4.11Z"/>
  <path class="cls-3" d="m711.62,227.8h23.47c3.85-.08,7.59,1.27,10.51,3.77,10.05,8.36,16.44,18.49,16.71,32,.16,7.73-2.82,13.88-8.44,18.88-14.22,12.68-40.08,16.74-55.47,8.77-6.95-3.6-11.57-8.27-12.77-16.93-1.83-13.23-3.13-26.38-2.39-39.71q.38-6.76,6.91-6.77h21.47Z"/>
  <path class="cls-2" d="m792.98,559.51c14.37,24.85,28.35,49.11,41.15,74,2.65,5.16,5.07,10.45,7.9,15.51,1.62,2.88.63,4-2,5.12-12.85,5.27-25.52,3.17-37.91-1.29-20.64-7.44-30.24-24.75-26.62-47.08,2.55-15.8,8.15-30.71,17.48-46.26Z"/>
  <path class="cls-2" d="m634.81,765.64c3.58,19.66,6.03,39.5,7.36,59.44.32,4.81.49,9.63.86,14.43.17,2.15-.41,3.36-2.66,4-9,2.4-17.95,3.52-27.07,1-19-5.15-27-28.47-15.79-46.16,1.69-2.67,3.66-5.15,5.88-7.4,9.36-9.5,20.87-16.25,31.42-25.31Z"/>
  <path class="cls-3" d="m468.18,424.97c.14-10.39,8.68-18.71,19.07-18.57,10.39.14,18.71,8.68,18.57,19.07-.14,10.29-8.52,18.57-18.82,18.57-10.42-.03-18.85-8.5-18.82-18.92,0-.05,0-.1,0-.15Z"/>
  <path class="cls-3" d="m696.26,644c.06,10-7.51,17.94-17.23,18.1-9.84.32-18.07-7.39-18.4-17.22-.32-9.84,7.39-18.07,17.22-18.4s18.07,7.39,18.4,17.22c0,.1,0,.2,0,.3Z"/>
  <path class="cls-3" d="m511.45,573.62c.06,9.65-7.71,17.53-17.37,17.59s-17.53-7.71-17.59-17.37c-.06-9.52,7.5-17.34,17.02-17.59,9.69-.22,17.72,7.46,17.94,17.15,0,.07,0,.14,0,.21Z"/>
  <path class="cls-3" d="m829.87,412.93c.12-9.24,7.7-16.63,16.94-16.52.18,0,.35,0,.53.02,9.42.22,16.88,8.04,16.66,17.46-.42,9.39-8.22,16.76-17.62,16.65-9.42-.3-16.81-8.19-16.51-17.61Z"/>
  <path class="cls-2" d="m602.4,532.88v54.8c0,1.19.95,2.75-1.5,2.65-7.17-.28-19-10.15-20.84-17.34-1.66-6.46.68-12.1,3.57-17.55,1.72-3.02,3.66-5.91,5.79-8.65,3.84-5.1,8.44-9.38,12.98-13.91Z"/>
  <path class="cls-3" d="m711.13,818.69c.26-9.24,7.96-16.51,17.2-16.25,9.24.26,16.51,7.96,16.25,17.2-.26,9.19-7.89,16.45-17.09,16.25-9.23-.19-16.56-7.84-16.36-17.07,0-.04,0-.09,0-.13Z"/>
  <path class="cls-3" d="m657.34,526.97c.18-9.2,7.79-16.52,17-16.34s16.52,7.79,16.34,17c-.18,9.09-7.62,16.37-16.71,16.34-9.26-.08-16.7-7.66-16.62-16.92,0-.03,0-.05,0-.08Z"/>
  <path class="cls-3" d="m426.98,661.42c-8.73-.04-15.78-7.15-15.74-15.88.04-8.73,7.15-15.78,15.88-15.74,8.73.04,15.77,7.14,15.74,15.87-.03,8.73-7.12,15.78-15.85,15.75-.01,0-.02,0-.03,0Z"/>
  <path class="cls-3" d="m487.48,619.96c-.08,8.64-7.14,15.59-15.79,15.51-8.64-.08-15.59-7.14-15.51-15.79.08-8.64,7.14-15.59,15.79-15.51.1,0,.2,0,.29,0,8.52.24,15.28,7.26,15.22,15.78Z"/>
  <path class="cls-3" d="m970.16,564.26c8.23-.19,15.05,6.32,15.25,14.55,0,.15,0,.3,0,.45-.08,8.21-6.64,14.88-14.85,15.1-8.06.13-15.45-7.15-15.42-15.21.14-8.22,6.8-14.82,15.02-14.89Z"/>
  <path class="cls-3" d="m862.16,518.97c.16,8.23-6.33,15.05-14.56,15.29-8,.12-14.91-6.72-15.06-14.86-.08-8.22,6.5-14.97,14.72-15.09,8.08-.15,14.75,6.28,14.9,14.36,0,.1,0,.2,0,.3Z"/>
  <path class="cls-3" d="m979.33,616.16c6.59-.07,11.99,5.23,12.06,11.82v.02c-.09,6.72-5.6,12.09-12.32,12-6.47-.08-11.74-5.22-11.99-11.69-.14-6.57,5.07-12.01,11.64-12.15.2,0,.41,0,.61,0Z"/>
  <path class="cls-4" d="m763.26,784.04c.13,6.07-4.7,11.1-10.77,11.22-.21,0-.41,0-.62,0-6.28.13-11.48-4.85-11.61-11.12,0-.16,0-.32,0-.47.19-6.26,5.25-11.27,11.51-11.4,6.28-.06,11.43,4.98,11.5,11.26,0,.17,0,.35,0,.52Z"/>
  <path class="cls-3" d="m763.26,784.04c.13,6.07-4.7,11.1-10.77,11.22-.21,0-.41,0-.62,0-6.28.13-11.48-4.85-11.61-11.12,0-.16,0-.32,0-.47.19-6.26,5.25-11.27,11.51-11.4,6.28-.06,11.43,4.98,11.5,11.26,0,.17,0,.35,0,.52Z"/>
</svg>