<svg xmlns="http://www.w3.org/2000/svg" xmlns:xlink="http://www.w3.org/1999/xlink" width="242.259" height="227.084" viewBox="0 0 242.259 227.084">
  <defs>
    <clipPath id="clip-path">
      <rect id="Rectangle_1072" data-name="Rectangle 1072" width="242.259" height="227.084" fill="none"/>
    </clipPath>
    <clipPath id="clip-path-3">
      <rect id="Rectangle_1067" data-name="Rectangle 1067" width="91.34" height="10.042" fill="none"/>
    </clipPath>
    <clipPath id="clip-path-4">
      <rect id="Rectangle_1068" data-name="Rectangle 1068" width="91.341" height="10.191" fill="none"/>
    </clipPath>
    <clipPath id="clip-path-5">
      <rect id="Rectangle_1069" data-name="Rectangle 1069" width="91.336" height="9.549" fill="none"/>
    </clipPath>
    <clipPath id="clip-path-6">
      <rect id="Rectangle_1070" data-name="Rectangle 1070" width="91.336" height="9.697" fill="none"/>
    </clipPath>
  </defs>
  <g id="Group_2432" data-name="Group 2432" clip-path="url(#clip-path)">
    <path id="Path_6046" data-name="Path 6046" d="M3.937,104.544,57.111,8.854l59.973,89.481,62.7-93.222,50.587,97.257Z" transform="translate(2.598 3.254)" fill="#89baf0"/>
    <path id="Path_6047" data-name="Path 6047" d="M44.955,14.706l91.266-.347L91.469,89.4Z" transform="translate(29.66 9.138)" fill="#b4131b"/>
    <path id="Path_6048" data-name="Path 6048" d="M3.556,65.968,5.67,185.479,232.6,186.869l1.411-123.68Z" transform="translate(2.346 40.215)" fill="#f7f6e2"/>
    <path id="Path_6049" data-name="Path 6049" d="M233.51,85.441l.076-6.716L103.234,77.73,3.775,77.447l.118,6.727,128.41-.741Z" transform="translate(2.491 49.289)" fill="#fce7ce"/>
    <path id="Path_6050" data-name="Path 6050" d="M233.3,92.281l.076-6.716-138.736.524-90.75-1.8.119,6.727,133.8.08Z" transform="translate(2.569 53.643)" fill="#fce7ce"/>
    <path id="Path_6051" data-name="Path 6051" d="M232.462,120.188l.076-6.716-139.23-.085L4.381,112.2l.12,6.727,141.624-.535Z" transform="translate(2.89 71.407)" fill="#fce7ce"/>
    <path id="Path_6052" data-name="Path 6052" d="M232.256,127.027l.076-6.716L98.307,121.55,4.5,119.044l.119,6.726,138.887-.214Z" transform="translate(2.969 75.762)" fill="#fce7ce"/>
    <path id="Path_6053" data-name="Path 6053" d="M12.541,115.08l-.705-45.859,91.266.694.354,44.818Z" transform="translate(7.809 44.053)" fill="#89baf0"/>
    <path id="Path_6054" data-name="Path 6054" d="M78.568,115.08l-.705-45.859,91.266.694.354,44.818Z" transform="translate(51.372 44.053)" fill="#89baf0"/>
    <path id="Path_6055" data-name="Path 6055" d="M12.541,149.9l-.705-45.859,91.266.694.354,44.818Z" transform="translate(7.809 66.212)" fill="#89baf0"/>
    <path id="Path_6056" data-name="Path 6056" d="M78.568,149.9l-.705-45.859,91.266.694.354,44.818Z" transform="translate(51.372 66.212)" fill="#89baf0"/>
    <path id="Path_6057" data-name="Path 6057" d="M180.769,0,120.018,94.225,63.714,3.652,0,108.833l9.341-.118,52.89-90.455,53.395,89.165,9.335-.1,55.808-92.716,48.985,91.456,12.506-.152Z" transform="translate(0 0)" fill="#f7f6e2"/>
    <path id="Path_6058" data-name="Path 6058" d="M25.848,77.626,26.2,95.345,36.068,95l-.176-17.708Z" transform="translate(17.054 49.188)" fill="#635c54"/>
    <path id="Path_6059" data-name="Path 6059" d="M46.33,77.5l.705,17.719,9.866-.349-.481-17.4Z" transform="translate(30.567 49.308)" fill="#635c54"/>
    <path id="Path_6060" data-name="Path 6060" d="M124.967,130.453l-.52-16.857-9.7-.514.324,17.785Z" transform="translate(75.708 71.967)" fill="#635c54"/>
    <path id="Path_6061" data-name="Path 6061" d="M103.994,131.749l-.705-17.719-9.866.349.7,18.066Z" transform="translate(61.638 72.571)" fill="#635c54"/>
    <path id="Path_6062" data-name="Path 6062" d="M93.631,78.727l-.144,17.886,10.716.054-1.057-17.94Z" transform="translate(61.68 50.103)" fill="#635c54"/>
    <path id="Path_6063" data-name="Path 6063" d="M113.674,79.151l-.347,17.387,10.566-.016-1.057-17.371Z" transform="translate(74.771 50.373)" fill="#635c54"/>
    <path id="Path_6064" data-name="Path 6064" d="M57.578,131.242l.843-17.911L47.2,112.937l.868,18.3Z" transform="translate(31.139 71.875)" fill="#635c54"/>
    <path id="Path_6065" data-name="Path 6065" d="M36.06,131.091l.037-17.379-10.256.008L26.9,131.091Z" transform="translate(17.049 72.368)" fill="#635c54"/>
    <g id="Group_2431" data-name="Group 2431">
      <g id="Group_2430" data-name="Group 2430" clip-path="url(#clip-path)">
        <path id="Path_6066" data-name="Path 6066" d="M33.192,60.408s-.591-22.733,6.5-23.317,8.87,23.9,8.87,23.9Z" transform="translate(21.891 23.599)" fill="#635c54"/>
        <path id="Path_6067" data-name="Path 6067" d="M102.293,59.955s0-21.568,7.1-22.151,7.685,22.151,7.685,22.151Z" transform="translate(67.49 24.052)" fill="#635c54"/>
        <g id="Group_2420" data-name="Group 2420" transform="translate(19.645 113.274)" opacity="0.1" style="mix-blend-mode: multiply;isolation: isolate">
          <g id="Group_2419" data-name="Group 2419">
            <g id="Group_2418" data-name="Group 2418" clip-path="url(#clip-path-3)">
              <path id="Path_6068" data-name="Path 6068" d="M103.175,79.262l-.073-9.346-91.266-.7.134,8.758c11.6-2.355,51.284-8.946,91.2,1.283" transform="translate(-11.836 -69.22)" fill="#9d1905"/>
            </g>
          </g>
        </g>
        <g id="Group_2423" data-name="Group 2423" transform="translate(129.234 113.274)" opacity="0.1" style="mix-blend-mode: multiply;isolation: isolate">
          <g id="Group_2422" data-name="Group 2422">
            <g id="Group_2421" data-name="Group 2421" clip-path="url(#clip-path-4)">
              <path id="Path_6069" data-name="Path 6069" d="M169.2,79.412l-.075-9.5-91.266-.7L78,77.86c12.357-2.456,51.732-8.727,91.208,1.551" transform="translate(-77.862 -69.221)" fill="#9d1905"/>
            </g>
          </g>
        </g>
        <g id="Group_2426" data-name="Group 2426" transform="translate(19.645 170.251)" opacity="0.1" style="mix-blend-mode: multiply;isolation: isolate">
          <g id="Group_2425" data-name="Group 2425">
            <g id="Group_2424" data-name="Group 2424" clip-path="url(#clip-path-5)">
              <path id="Path_6070" data-name="Path 6070" d="M103.172,113.587l-.07-8.855-91.266-.694.128,8.266c11.589-2.352,51.28-8.948,91.208,1.283" transform="translate(-11.836 -104.038)" fill="#9d1905"/>
            </g>
          </g>
        </g>
        <g id="Group_2429" data-name="Group 2429" transform="translate(129.234 170.251)" opacity="0.1" style="mix-blend-mode: multiply;isolation: isolate">
          <g id="Group_2428" data-name="Group 2428">
            <g id="Group_2427" data-name="Group 2427" clip-path="url(#clip-path-6)">
              <path id="Path_6071" data-name="Path 6071" d="M169.2,113.736l-.071-9-91.266-.7.126,8.149c12.347-2.455,51.729-8.73,91.211,1.548" transform="translate(-77.863 -104.038)" fill="#9d1905"/>
            </g>
          </g>
        </g>
      </g>
    </g>
  </g>
</svg>
