<svg xmlns="http://www.w3.org/2000/svg" xmlns:xlink="http://www.w3.org/1999/xlink" width="515.884" height="496.567" viewBox="0 0 515.884 496.567">
  <defs>
    <clipPath id="clip-path">
      <rect id="Rectangle_1074" data-name="Rectangle 1074" width="426.991" height="399.672" fill="none"/>
    </clipPath>
  </defs>
  <g id="Group_2442" data-name="Group 2442" transform="matrix(0.966, 0.259, -0.259, 0.966, 103.662, 0.059)">
    <g id="Group_2439" data-name="Group 2439" transform="translate(-0.227)">
      <g id="Group_2438" data-name="Group 2438" clip-path="url(#clip-path)">
        <path id="Path_6184" data-name="Path 6184" d="M417.934.364c0-.127.036-.242.036-.358l-6.75.022c-.127,5.972-3.808,10.789-8.382,10.8s-8.3-4.757-8.484-10.72l-7,.024c-.14,5.972-3.821,10.789-8.393,10.8s-8.3-4.757-8.475-10.72l-7.026.024c-.129,5.972-3.81,10.789-8.382,10.8S346.785,6.279,346.6.317l-7.015.036c-.14,5.961-3.81,10.778-8.393,10.789-4.561.022-8.3-4.759-8.475-10.72l-6.193.022c-.173,5.906-3.832,10.651-8.371,10.676S299.91,6.43,299.679.526L292.64.548c-.184,5.906-3.843,10.651-8.369,10.662S276.038,6.534,275.8.619L268.77.653c-.2,5.9-3.845,10.64-8.371,10.662-4.561.022-8.255-4.677-8.486-10.593l-7.037.036c-.176,5.9-3.832,10.651-8.371,10.662S228.274,6.743,228.043.826l-7.028.036c-.184,5.9-3.854,10.651-8.393,10.662S204.391,6.848,204.16.931l-7.028.036c-.2,5.9-3.843,10.649-8.38,10.662s-8.244-4.677-8.475-10.593l-7.026.036c-.187,5.9-3.845,10.649-8.382,10.662s-8.231-4.679-8.475-10.593l-7.037.036c-.173,5.9-3.832,10.649-8.36,10.66s-8.242-4.677-8.5-10.58l-7.015.022c-.184,5.917-3.832,10.651-8.382,10.662s-8.231-4.677-8.462-10.591l-7.039.033c-.184,5.906-3.832,10.651-8.369,10.662S85,7.368,84.758,1.464l-7.037.022c-.176,5.9-3.832,10.651-8.371,10.662S61.119,7.472,60.875,1.555l-7.026.036c-.184,5.9-3.843,10.651-8.371,10.662C40.928,12.275,37.236,7.565,37,1.66L29.966,1.7c-.184,5.915-3.832,10.651-8.382,10.662S13.353,7.681,13.122,1.775L6.8,1.8c0,.116.036.231.036.358C6.858,7.321,3.975,11.651.1,12.751l.044,9.482c3.879,1.076,6.8,5.381,6.819,10.522C6.987,37.93,4.1,42.238.237,43.349L.283,52.84C4.162,53.918,7.078,58.2,7.1,63.365S4.242,72.844.364,73.945L.41,83.438c3.879,1.089,6.808,5.372,6.819,10.536.036,5.163-2.861,9.469-6.726,10.58l.047,9.482c3.879,1.076,6.795,5.383,6.817,10.545.024,5.141-2.858,9.471-6.737,10.571l.047,9.491c3.879,1.089,6.808,5.372,6.819,10.525.033,5.163-2.85,9.469-6.726,10.591l.047,9.482c3.876,1.089,6.795,5.383,6.817,10.536s-2.858,9.469-6.726,10.58l.036,9.482c3.879,1.087,6.806,5.37,6.819,10.533.033,5.174-2.85,9.471-6.728,10.593l.047,9.493c3.879,1.065,6.8,5.359,6.819,10.511.022,5.174-2.858,9.482-6.726,10.593l.036,9.48c3.89,1.089,6.806,5.372,6.83,10.536S5.18,287.048,1.3,288.159l.047,9.482c3.879,1.087,6.795,5.383,6.819,10.533s-2.861,9.482-6.726,10.593l.033,9.482c3.89,1.076,6.808,5.37,6.83,10.522s-2.87,9.482-6.737,10.58l.047,9.493c3.879,1.089,6.795,5.372,6.819,10.536s-2.861,9.48-6.726,10.591l.033,8.858a8.472,8.472,0,0,1,4.319,3.612,12.356,12.356,0,0,1,2.512,7.535l-.022.093,6.528-.022c0-.187-.033-.349-.047-.545-.022-6.159,3.752-11.16,8.417-11.182s8.486,4.954,8.52,11.114c0,.2-.033.358-.047.531l7.039-.022c-.011-.173-.047-.347-.047-.545-.022-6.159,3.739-11.16,8.417-11.182s8.484,4.954,8.52,11.114c0,.184-.047.358-.047.531l7.039-.022c-.011-.173-.047-.347-.047-.545-.036-6.159,3.727-11.16,8.415-11.182s8.486,4.954,8.511,11.114c0,.2-.036.358-.047.533l7.05-.024c-.013-.173-.047-.347-.047-.545-.024-6.159,3.728-11.16,8.4-11.182s8.5,4.954,8.52,11.114c0,.2-.033.36-.044.534l7.037-.024c-.011-.173-.047-.347-.047-.545-.022-6.157,3.741-11.158,8.429-11.182,4.665-.022,8.475,4.954,8.5,11.114,0,.2-.022.36-.036.533l7.039-.036c-.011-.162-.036-.336-.036-.531-.033-6.159,3.727-11.16,8.393-11.185,4.69-.011,8.5,4.954,8.522,11.1,0,.209-.036.371-.036.556l7.039-.036c-.011-.173-.047-.347-.047-.542-.036-6.159,3.739-11.16,8.415-11.185s8.475,4.957,8.5,11.114c0,.2-.022.36-.022.533l7.039-.022c-.013-.176-.047-.349-.047-.545-.036-6.159,3.739-11.171,8.4-11.183s8.486,4.954,8.52,11.114c0,.2-.033.358-.033.531l7.026-.033c-.011-.162-.047-.338-.047-.533-.022-6.159,3.741-11.16,8.417-11.183s8.484,4.954,8.509,11.114c0,.185-.024.358-.024.531l7.039-.033a3.941,3.941,0,0,1-.047-.533c-.033-6.159,3.741-11.16,8.406-11.182s8.484,4.954,8.52,11.114c0,.2-.036.358-.047.531l7.039-.033c-.013-.173-.047-.336-.047-.533-.036-6.159,3.739-11.16,8.415-11.182s8.475,4.954,8.509,11.114c0,.184-.022.358-.033.533l7.037-.024c-.011-.184-.044-.347-.044-.545-.036-6.159,3.739-11.16,8.4-11.182s8.486,4.954,8.52,11.1c0,.2-.033.371-.033.545l7.037-.024a4.251,4.251,0,0,1-.058-.545c-.022-6.157,3.741-11.171,8.417-11.182s8.484,4.954,8.52,11.1c0,.2-.036.371-.036.545l6.195-.024c-.011-.127-.047-.264-.047-.416-.022-6.148,3.752-11.16,8.415-11.171,4.679-.036,8.486,4.943,8.511,11.1,0,.149-.024.289-.024.416l7.015-.036c0-.127-.033-.264-.033-.416-.024-6.148,3.739-11.16,8.415-11.171s8.486,4.943,8.509,11.1a3.978,3.978,0,0,1-.022.416l7-.033c0-.129-.022-.267-.022-.407-.024-6.159,3.739-11.171,8.415-11.194s8.486,4.954,8.509,11.114a3.912,3.912,0,0,1-.033.4l7.015-.022c0-.129-.024-.267-.024-.407-.033-6.157,3.741-11.171,8.417-11.194s8.473,4.954,8.5,11.114a3.53,3.53,0,0,1-.024.4l6.506-.022-.011-.093a12.094,12.094,0,0,1,2.756-7.917,8.285,8.285,0,0,1,3.983-3.15l-.036-9c-3.89-1.087-6.808-5.372-6.83-10.533s2.858-9.482,6.737-10.6l-.047-9.482c-3.89-1.076-6.806-5.359-6.817-10.522-.036-5.163,2.847-9.471,6.726-10.582l-.036-9.48c-3.89-1.089-6.806-5.383-6.83-10.536s2.847-9.469,6.726-10.593l-.033-9.48c-3.89-1.089-6.808-5.372-6.83-10.536s2.858-9.458,6.737-10.58l-.036-9.482c-3.89-1.087-6.806-5.359-6.83-10.533s2.85-9.471,6.726-10.582L425.7,225.1c-3.89-1.087-6.808-5.359-6.819-10.522-.036-5.163,2.847-9.469,6.726-10.593l-.033-9.48c-3.892-1.089-6.808-5.372-6.83-10.525s2.847-9.48,6.726-10.6l-.036-9.471c-3.89-1.087-6.808-5.372-6.83-10.533s2.861-9.482,6.737-10.593L425.3,133.3c-3.879-1.065-6.8-5.37-6.819-10.511-.024-5.174,2.847-9.493,6.726-10.6l-.036-9.48c-3.89-1.089-6.806-5.361-6.83-10.536-.022-5.152,2.861-9.469,6.739-10.58l-.047-9.5c-3.89-1.054-6.8-5.35-6.819-10.525-.022-5.15,2.847-9.458,6.726-10.569L424.9,41.5c-3.89-1.087-6.806-5.37-6.83-10.533s2.861-9.471,6.739-10.593l-.047-9.469c-3.89-1.078-6.808-5.372-6.83-10.536" transform="translate(0.351 0.007)" fill="#cf6e35"/>
      </g>
    </g>
    <rect id="Rectangle_1075" data-name="Rectangle 1075" width="379.648" height="340.599" transform="translate(25.002 29.636) rotate(-0.252)" fill="#f9eee4"/>
    <g id="Group_2441" data-name="Group 2441" transform="translate(-0.227)">
      <g id="Group_2440" data-name="Group 2440" clip-path="url(#clip-path)">
        <path id="Path_6185" data-name="Path 6185" d="M87.688,15.016C93.58,24.867,98.152,36.583,98.21,48.877c.162,36.617-30.585,66.288-67.2,66.45a66.058,66.058,0,0,1-18.28-2.5,48.038,48.038,0,0,1,.429,4.817c5.706,1.458,12.283,1.111,18.442,1.076,39.118-.162,70.211-31,70.038-70.107a70.2,70.2,0,0,0-8.693-33.5c-1.749-.036-3.5-.058-5.257-.093" transform="translate(15.794 18.36)" fill="#cf6e35"/>
        <path id="Path_6186" data-name="Path 6186" d="M27.674,43.567c6.4,0,5.719-14.866,4.179-18.535-.925-2.223-3.125-4.525-5.857-3.6-2.525.856-.88-.6-1.667,1.643-1.367,3.856,0,10.651,0,14.75,0,4.154-1.343,6.077,3.345,5.741m0,.336h-11.4c4.746-.636,4.583-22.147,0-22.805,4.608,0,11.1-1.158,15.408.82C41.334,26.352,38.972,43.9,27.674,43.9" transform="translate(20.124 25.384)" fill="#cf6e35"/>
        <path id="Path_6187" data-name="Path 6187" d="M26.229,20.925h13.5c5.535,0,5.29-.68,5.29,5.039-1.54-3.094-1.747-4.319-5.752-4.7-.649-.069-4.192-.44-4.632,0s.011.811-.347,1.5c-.3.591-.487,7.455,0,7.882,1.945,1.716,5.477-1.329,5.672-2.672v5.695c-.313-1.078-3.868-4.5-5.672-2.592-.822.867-.162,8.148,0,9.284.533,3.554-.371,3.136,3.97,3.032,4.481-.091,5.268-1.156,7.1-4.69,0,5.826.173,5.026-5.579,5.026H26.229c4.746-.636,4.585-22.145,0-22.807" transform="translate(32.3 25.554)" fill="#cf6e35"/>
        <path id="Path_6188" data-name="Path 6188" d="M45.546,21.073c-8.137,0-7.6,31.709,5.975,20.1C50.05,44.318,44.2,44.354,41.4,43.058c-4.421-2.074-6.3-7.306-5.892-11.9.382-4.305,2.652-8.426,6.924-9.884,2.512-.858,7.317,1.076,9.122-.36.093,1.725.2,3.45.3,5.163-1.182-2.663-2.594-5-6.31-5" transform="translate(43.581 25.568)" fill="#cf6e35"/>
        <path id="Path_6189" data-name="Path 6189" d="M29.441,35.314c5.5,0,12.283,1.354,13.185,7.78.742,5.2-3.172,9.644-5.984,13.6-1.843,2.569-7.039,7.466-3.334,9.689,5.532,3.323,10.429-3.6,10.753-8.231h.613c0,1.494.96,8.313,0,9.133-.971.847-6.424,0-7.639,0H16.047c4.966-4.259,9.331-11.3,13.347-17.168,1.934-2.823,7.155-9.086,4.25-12.781-4.6-5.821-13.939,1.714-13.939,7.166h-.625c0-1.389-.6-4.259,0-5.486,1.423-2.872,7.617-3.705,10.36-3.705" transform="translate(19.851 43.083)" fill="#cf6e35"/>
        <path id="Path_6190" data-name="Path 6190" d="M29.651,63.88V58.312h.613c.358,10.3,15,12.272,16.415,1.494,1.494-11.391-9.758-14.7-17.028-6.8.358-4.514.811-9.029,1.076-13.543.291-4.69,1.182-3.694,5.812-3.694,4.481,0,11.889-1.494,16.092,0,2.014.707.658-.473,1.678,1.078.88,1.318.427,5.857.545,7.455-2.872-1.749-1.229-2.918-6.09-3.056-2.894-.071-5.788,0-8.682,0-2.432,0-5.964-.613-7.873,1.274-1.829,1.794-1.527,6.181-1.736,8.6,6.61-5.452,26.048-4.814,26.048,6.726,0,11.96-20.585,12.261-26.87,6.032" transform="translate(36.484 42.926)" fill="#cf6e35"/>
        <path id="Path_6191" data-name="Path 6191" d="M320.65,126.609c-16.65-6.993-35.45,1.147-52.847,2.338-1.38.093-2.758.151-4.134.22q26.116-16.947,52.234-33.9c11.854-7.7-2.341-24.508-14.079-16.879q-22.035,14.293-44.061,28.6.123-6.111.2-12.214c11.82-17.746,33.665-25.77,46.11-43.365,8.173-11.565-9.738-24.312-17.9-12.758-7.4,10.465-18.106,17.435-28.108,25.2q-.07-14.8-.382-29.567c-.313-13.985-22.194-16.128-21.891-1.98q.4,18.6.4,37.208-13.02-10.959-26.032-21.9c-10.851-9.122-23.514,8.846-12.761,17.9q19.314,16.237,38.609,32.485c-.044,3.276-.127,6.553-.184,9.818a106.353,106.353,0,0,1-25.7-17.586c-4.368-4.074-10.48-5.475-15.481-1.389-4.152,3.392-5.717,11.427-1.4,15.468a139.5,139.5,0,0,0,35.817,24.61c-28.12-.809-56.344,2.085-84.472,1.345-.927-.024-1.865-.058-2.792-.093q19-12.139,38.017-24.265c5.046-3.218,4.817-11.287,1.4-15.477-4.145-5.07-10.5-4.574-15.477-1.4q-13.1,8.369-26.2,16.728c.056-2.93.1-5.87.162-8.8a11.408,11.408,0,0,0,2.107-2.349A164.953,164.953,0,0,1,175.4,58.365c11.065-8.858-3.021-25.723-14.076-16.879a185.045,185.045,0,0,0-20.989,19.669c.127-7.964.278-15.917.4-23.883.253-14.054-21.638-16.148-21.88-1.978q-.243,13.976-.485,27.957A180.651,180.651,0,0,1,97.4,42.679c-9.258-10.7-26.15,3.356-16.875,14.076a204.917,204.917,0,0,0,37.357,33.792q-.123,7.675-.269,15.35A146.829,146.829,0,0,1,91.072,86.751c-4.445-3.994-12.109-1.829-15.326,2.569-3.832,5.257-1.818,11.38,2.569,15.339a160.557,160.557,0,0,0,36.766,24.577c-23.985-.787-50.693-6.377-74.321-1.527-1.714.347-3.727,1.643-4.168,3.472-4.852,19.958,23.721,38.875,37.993,46.341a298.127,298.127,0,0,0,30.3,13.916,156.884,156.884,0,0,0,2.778,31.952c4.145,20.871,11.832,44.105,22.689,62.456,10.756,18.186,27.391,28.593,48.575,30.389,21.071,1.783,42.427-4.863,57.444-20,29.229-29.487,31.8-73.281,37.055-112,.093-.7.173-1.389.256-2.085,6.264-4.746,12.387-9.724,18.915-14.1,12.249-8.231,24.183-21.071,31.258-34.361,1.436-2.685-.762-6.041-3.205-7.073" transform="translate(44.303 27.743)" fill="#cf6e35"/>
        <path id="Path_6192" data-name="Path 6192" d="M96.145,113.44c-.011-.416-.036-.845-.047-1.274a4.126,4.126,0,0,0-1.3-2.743,3,3,0,0,0-1.309-.765,2.943,2.943,0,0,0-1.551-.267,3.97,3.97,0,0,0-2.743,1.285,4.151,4.151,0,0,0-1.031,2.85c.024.427.036.856.058,1.285a4.057,4.057,0,0,0,1.287,2.743,3.036,3.036,0,0,0,1.318.765,2.928,2.928,0,0,0,1.54.267,3.988,3.988,0,0,0,2.743-1.287,4.05,4.05,0,0,0,1.031-2.858" transform="translate(108.03 132.517)" fill="#5c3316"/>
        <path id="Path_6193" data-name="Path 6193" d="M115.21,111.3c.022.429.047.845.058,1.274a4.126,4.126,0,0,0,1.3,2.754,2.936,2.936,0,0,0,1.309.765,3.039,3.039,0,0,0,1.54.267,4.011,4.011,0,0,0,2.754-1.285,4.168,4.168,0,0,0,1.031-2.861c-.024-.427-.036-.856-.058-1.271a4.141,4.141,0,0,0-1.285-2.756A4.557,4.557,0,0,0,119,107.151a3.966,3.966,0,0,0-2.743,1.287,4.11,4.11,0,0,0-1.042,2.858" transform="translate(141.094 131.002)" fill="#5c3316"/>
        <path id="Path_6194" data-name="Path 6194" d="M128.516,132.612A16.42,16.42,0,0,0,120.91,122.4a15.873,15.873,0,0,0-13.138-.949A16.67,16.67,0,0,0,97.536,132.67a10.611,10.611,0,0,0,.429,6.437,14.585,14.585,0,0,0,5.117,9.227,16.763,16.763,0,0,0,11.287,3.843l.256-.022a15.464,15.464,0,0,0,12.272-7.675,15.269,15.269,0,0,0,1.62-11.867" transform="translate(119.095 147.288)" fill="#f8eadd"/>
        <path id="Path_6195" data-name="Path 6195" d="M77.177,29.929q.92,45.5-1.678,90.969c-.289,5.094,7.639,4.7,7.931-.358Q86.017,75.094,85.1,29.571c-.1-5.119-8.024-4.748-7.92.358" transform="translate(92.534 31.682)" fill="#f8eadd"/>
        <path id="Path_6196" data-name="Path 6196" d="M59.148,38.921C62.7,45.8,68.883,51.03,74.267,56.447q9.569,9.639,19.2,19.206c3.623,3.612,8.949-2.258,5.348-5.857q-8.752-8.719-17.457-17.459C75.912,46.874,69.392,41.548,65.8,34.616c-2.338-4.539-8.984-.2-6.657,4.305" transform="translate(71.955 39.974)" fill="#f8eadd"/>
        <path id="Path_6197" data-name="Path 6197" d="M115.5,33.893Q96.156,53.914,77.252,74.353c-3.474,3.752,2.385,9.1,5.857,5.348q18.911-20.438,38.248-40.46c3.554-3.681-2.314-9.018-5.857-5.348" transform="translate(93.387 39.933)" fill="#f8eadd"/>
        <path id="Path_6198" data-name="Path 6198" d="M56.74,60.433Q77.545,76.46,99.3,91.194c4.225,2.87,7.86-4.192,3.681-7.028Q82.086,70,62.088,54.577c-4.028-3.092-9.4,2.743-5.348,5.857" transform="translate(67.846 65.659)" fill="#f8eadd"/>
        <path id="Path_6199" data-name="Path 6199" d="M119.861,55.022Q99.473,70.772,78.105,85.156c-4.239,2.85.058,9.518,4.305,6.657q21.375-14.36,41.769-30.133c4.005-3.1-.267-9.793-4.319-6.657" transform="translate(93.598 66.278)" fill="#f8eadd"/>
        <path id="Path_6200" data-name="Path 6200" d="M130.275,29.2q-.26,46.47-.509,92.925c-.024,5.106,7.9,4.737,7.931-.358q.24-46.47.5-92.925c.033-5.106-7.9-4.737-7.92.358" transform="translate(158.897 30.796)" fill="#f8eadd"/>
        <path id="Path_6201" data-name="Path 6201" d="M111.6,42.573q19.9,20.211,41.618,38.4c3.9,3.287,9.262-2.558,5.348-5.857q-21.671-18.251-41.618-38.4c-3.587-3.647-8.924,2.234-5.348,5.857" transform="translate(135.243 43.488)" fill="#f8eadd"/>
        <path id="Path_6202" data-name="Path 6202" d="M176.97,32.956q-21.741,20.681-45.252,39.338c-3.961,3.136.3,9.84,4.317,6.657q24.3-19.278,46.793-40.647c3.705-3.519-2.176-8.844-5.857-5.348" transform="translate(159.352 38.9)" fill="#f8eadd"/>
        <path id="Path_6203" data-name="Path 6203" d="M111,62.012a349.884,349.884,0,0,0,43.03,29.635c4.423,2.583,8.082-4.468,3.683-7.026a336.938,336.938,0,0,1-41.376-28.466c-3.959-3.2-9.331,2.649-5.337,5.857" transform="translate(134.228 67.53)" fill="#f8eadd"/>
        <path id="Path_6204" data-name="Path 6204" d="M191.253,50.561a527.216,527.216,0,0,0-59.411,40.947c-3.959,3.161.3,9.851,4.305,6.668a527.512,527.512,0,0,1,59.411-40.958c4.4-2.605.082-9.262-4.305-6.657" transform="translate(159.505 61.095)" fill="#f8eadd"/>
        <path id="Path_6205" data-name="Path 6205" d="M102.35,124.431c-11.565-6.09-23.107-12.318-34.29-19.078-9.771-5.917-23.212-19.138-24.241-31.489-.627.7-1.263,1.378-1.887,2.072,10.6-1.678,24.079,4.7,34.777,4.99q16.287.453,32.6.707,33.254.5,66.533.184,32.611-.33,65.21-1.447,16.947-.573,33.9-1.389c10.049-.473,23.1-7.768,32.265-2.616-.187-1.031-.371-2.06-.545-3.092-14.354,14.414-30.527,32.392-46.979,44.363-2.047,1.494.093,4.828,2.165,3.323C278.569,108.8,295.008,90.6,309.6,75.949a2.008,2.008,0,0,0-.545-3.092c-7.606-4.272-18.1-.6-25.932.834-11.554,2.107-22.689,2-34.428,2.443q-33.9,1.267-67.817,1.667t-67.84-.069q-16.947-.243-33.908-.7c-11.529-.3-25.944-6.877-37.382-5.059a2.012,2.012,0,0,0-1.887,2.072c.927,11.1,11.138,24.485,19.9,30.645,12.721,8.924,27.03,16.01,40.749,23.245,2.256,1.2,4.1-2.316,1.84-3.507" transform="translate(48.956 86.634)" fill="#f8eadd"/>
        <path id="Path_6206" data-name="Path 6206" d="M67.984,103.313c6.379,4.041,3.948,20.26,4.492,26.661.914,10.58,4.654,21.034,8.866,30.7a306,306,0,0,0,16.613,31.72,65.673,65.673,0,0,0,19.4,21.509,61.443,61.443,0,0,0,59.989,5.315c19.2-8.729,31.987-26.742,39.049-46.11,9.169-25.157,10.847-52.7,11.356-79.242.047-2.547-3.912-2.361-3.959.185-.776,40.636-3.868,98.622-45.208,120.2a57.731,57.731,0,0,1-63.694-7.2c-8.646-7.351-13.856-17.11-19.275-26.893-5.568-10.038-10.847-20.271-14.585-31.154-3.659-10.685-4.572-20.676-5.141-31.812-.3-5.95-.451-13.834-6.055-17.388-2.165-1.367-3.994,2.154-1.852,3.507" transform="translate(82.186 112.546)" fill="#f8eadd"/>
        <path id="Path_6207" data-name="Path 6207" d="M53.991,79.224c.011.209.022.416.036.625a2.027,2.027,0,0,0,.647,1.367,2.173,2.173,0,0,0,1.425.52,2.044,2.044,0,0,0,1.378-.647,2.085,2.085,0,0,0,.509-1.425c-.011-.209-.024-.4-.024-.613a2.09,2.09,0,0,0-.647-1.378,1.479,1.479,0,0,0-.66-.382,1.584,1.584,0,0,0-.765-.138,2.043,2.043,0,0,0-1.378.647,2.091,2.091,0,0,0-.52,1.425" transform="translate(66.243 94.333)" fill="#c96331"/>
        <path id="Path_6208" data-name="Path 6208" d="M58.822,87.654c2.547-.116,2.374-4.074-.184-3.97-2.547.127-2.363,4.085.184,3.97" transform="translate(69.701 102.319)" fill="#c96331"/>
        <path id="Path_6209" data-name="Path 6209" d="M45.892,76.548c-.2.209-.393.429-.591.636a2.109,2.109,0,0,0-.509,1.436,1.41,1.41,0,0,0,.209.754,1.368,1.368,0,0,0,.44.625,1.979,1.979,0,0,0,1.423.509,2.058,2.058,0,0,0,1.378-.647c.2-.209.382-.429.58-.638a2.039,2.039,0,0,0,.52-1.425,1.441,1.441,0,0,0-.209-.762,1.411,1.411,0,0,0-.44-.613A2.017,2.017,0,0,0,47.27,75.9a2.087,2.087,0,0,0-1.378.649" transform="translate(54.995 92.796)" fill="#c96331"/>
        <path id="Path_6210" data-name="Path 6210" d="M71.3,87.362c2.547-.127,2.374-4.088-.184-3.97s-2.374,4.085.184,3.97" transform="translate(84.95 101.962)" fill="#c96331"/>
        <path id="Path_6211" data-name="Path 6211" d="M73.793,81.419c2.558-.116,2.374-4.088-.173-3.97s-2.374,4.085.173,3.97" transform="translate(88.013 94.695)" fill="#c96331"/>
        <path id="Path_6212" data-name="Path 6212" d="M95.022,90.429c2.547-.116,2.374-4.074-.184-3.959s-2.374,4.074.184,3.959" transform="translate(113.958 105.726)" fill="#c96331"/>
        <path id="Path_6213" data-name="Path 6213" d="M96.089,119.8c2.547-.116,2.374-4.088-.184-3.97s-2.374,4.085.184,3.97" transform="translate(115.263 141.625)" fill="#c96331"/>
        <path id="Path_6214" data-name="Path 6214" d="M88.516,130.127c2.547-.116,2.361-4.074-.184-3.959s-2.374,4.074.184,3.959" transform="translate(106.003 154.265)" fill="#c96331"/>
        <path id="Path_6215" data-name="Path 6215" d="M82.683,117.908c2.547-.116,2.374-4.074-.184-3.959s-2.374,4.074.184,3.959" transform="translate(98.871 139.325)" fill="#c96331"/>
        <path id="Path_6216" data-name="Path 6216" d="M80.4,98.554c.011.211.022.407.022.616a2.092,2.092,0,0,0,.649,1.367,1.579,1.579,0,0,0,.66.391,1.549,1.549,0,0,0,.776.127,1.918,1.918,0,0,0,1.365-.649,2.069,2.069,0,0,0,.522-1.423c-.011-.207-.024-.4-.036-.611a2.077,2.077,0,0,0-.636-1.378,1.569,1.569,0,0,0-.66-.385,1.6,1.6,0,0,0-.765-.127,2,2,0,0,0-1.378.638,2.042,2.042,0,0,0-.52,1.434" transform="translate(98.536 117.963)" fill="#c96331"/>
        <path id="Path_6217" data-name="Path 6217" d="M75.37,97.271c.22.4.44.8.671,1.2a2,2,0,0,0,1.227.856,2.027,2.027,0,0,0,1.5-.278,2,2,0,0,0,.869-1.216,2.2,2.2,0,0,0-.278-1.527c-.22-.393-.451-.8-.671-1.194a1.955,1.955,0,0,0-1.227-.856,2,2,0,0,0-1.518.267,2.029,2.029,0,0,0-.856,1.227,2.179,2.179,0,0,0,.278,1.516" transform="translate(92.003 115.196)" fill="#c96331"/>
        <path id="Path_6218" data-name="Path 6218" d="M118.715,92.95c2.558-.1,2.374-4.074-.173-3.959s-2.374,4.085.173,3.959" transform="translate(142.94 108.808)" fill="#c96331"/>
        <path id="Path_6219" data-name="Path 6219" d="M112.513,83.818c.209-.011.416-.011.613-.022a2.02,2.02,0,0,0,1.378-.649,1.476,1.476,0,0,0,.382-.66,1.442,1.442,0,0,0,.138-.765,1.979,1.979,0,0,0-2.072-1.887c-.209,0-.418.013-.613.024a2.04,2.04,0,0,0-1.378.647,1.5,1.5,0,0,0-.382.649,1.463,1.463,0,0,0-.138.776,1.992,1.992,0,0,0,.647,1.367,2.039,2.039,0,0,0,1.425.52" transform="translate(135.26 97.611)" fill="#c96331"/>
        <path id="Path_6220" data-name="Path 6220" d="M105.129,85.793c-.162.834-.336,1.667-.5,2.5a1.983,1.983,0,1,0,3.868.88c.173-.834.336-1.667.509-2.5a1.989,1.989,0,0,0-3.879-.88" transform="translate(128.115 103.034)" fill="#c96331"/>
        <path id="Path_6221" data-name="Path 6221" d="M107.579,104.283c2.558-.116,2.374-4.074-.173-3.959s-2.374,4.074.173,3.959" transform="translate(129.323 122.665)" fill="#c96331"/>
        <path id="Path_6222" data-name="Path 6222" d="M133.07,91.2c2.545-.127,2.372-4.088-.187-3.97s-2.372,4.074.187,3.97" transform="translate(160.478 106.649)" fill="#c96331"/>
        <path id="Path_6223" data-name="Path 6223" d="M149.037,82.419c2.547-.127,2.374-4.088-.184-3.97s-2.374,4.085.184,3.97" transform="translate(180.003 95.918)" fill="#c96331"/>
        <path id="Path_6224" data-name="Path 6224" d="M124.912,88.783c2.547-.116,2.374-4.074-.185-3.959s-2.374,4.074.185,3.959" transform="translate(150.505 103.713)" fill="#c96331"/>
        <path id="Path_6225" data-name="Path 6225" d="M126.522,112.018c2.558-.116,2.374-4.074-.173-3.959s-2.374,4.074.173,3.959" transform="translate(152.485 132.123)" fill="#c96331"/>
        <path id="Path_6226" data-name="Path 6226" d="M126,136.736c2.547-.116,2.374-4.074-.184-3.959s-2.374,4.074.184,3.959" transform="translate(151.831 162.346)" fill="#c96331"/>
        <path id="Path_6227" data-name="Path 6227" d="M117.488,136.294c-.22-.184-.429-.382-.649-.578a2,2,0,0,0-1.423-.522,1.438,1.438,0,0,0-.753.209,1.579,1.579,0,0,0-.625.44,2.014,2.014,0,0,0-.509,1.423,2.073,2.073,0,0,0,.636,1.378c.22.2.44.393.649.591a2.109,2.109,0,0,0,1.436.509,2.095,2.095,0,0,0,1.365-.636,2,2,0,0,0,.522-1.436,2.116,2.116,0,0,0-.649-1.378" transform="translate(139.036 165.302)" fill="#c96331"/>
        <path id="Path_6228" data-name="Path 6228" d="M102.969,151.451c.393-.231.787-.476,1.18-.707a1.991,1.991,0,0,0,.58-2.743,2.029,2.029,0,0,0-2.745-.591c-.393.244-.776.476-1.18.718a1.989,1.989,0,0,0-.578,2.732,2.016,2.016,0,0,0,2.743.591" transform="translate(122.39 179.873)" fill="#c96331"/>
        <path id="Path_6229" data-name="Path 6229" d="M94.558,140.95c2.547-.116,2.374-4.074-.185-3.959s-2.374,4.074.185,3.959" transform="translate(113.391 167.499)" fill="#c96331"/>
        <path id="Path_6230" data-name="Path 6230" d="M109.891,148.57c2.547-.116,2.374-4.074-.184-3.959s-2.374,4.074.184,3.959" transform="translate(132.139 176.816)" fill="#c96331"/>
        <path id="Path_6231" data-name="Path 6231" d="M116.166,146.339c2.545-.113,2.372-4.072-.176-3.956s-2.374,4.074.176,3.956" transform="translate(139.816 174.09)" fill="#c96331"/>
        <path id="Path_6232" data-name="Path 6232" d="M116.96,121.3c.011.4.036.822.058,1.227a1.981,1.981,0,1,0,3.959-.184c-.022-.407-.033-.811-.058-1.227a1.981,1.981,0,0,0-3.959.184" transform="translate(143.235 145.773)" fill="#c96331"/>
        <path id="Path_6233" data-name="Path 6233" d="M104.079,112.732c.011.2.022.4.036.613a2.018,2.018,0,0,0,.636,1.378,1.5,1.5,0,0,0,.66.369,1.444,1.444,0,0,0,.765.14,1.979,1.979,0,0,0,1.9-2.072c-.011-.209-.024-.407-.024-.613a2.142,2.142,0,0,0-.647-1.378,1.59,1.59,0,0,0-.66-.382,1.574,1.574,0,0,0-.776-.127,1.98,1.98,0,0,0-1.367.636,2.1,2.1,0,0,0-.52,1.436" transform="translate(127.487 135.299)" fill="#c96331"/>
        <path id="Path_6234" data-name="Path 6234" d="M99.016,104.95c2.547-.116,2.374-4.074-.184-3.959s-2.374,4.085.184,3.959" transform="translate(118.842 123.481)" fill="#c96331"/>
        <path id="Path_6235" data-name="Path 6235" d="M83.971,84.567c.209,0,.4-.011.613-.022a2.042,2.042,0,0,0,1.378-.649,2.089,2.089,0,0,0,.509-1.425,2,2,0,0,0-.636-1.376,2.085,2.085,0,0,0-1.436-.511c-.209,0-.407.013-.613.024a2.04,2.04,0,0,0-1.378.647,1.48,1.48,0,0,0-.371.649,1.463,1.463,0,0,0-.138.776,1.971,1.971,0,0,0,.647,1.378,2.062,2.062,0,0,0,1.425.509" transform="translate(100.362 98.529)" fill="#c96331"/>
        <path id="Path_6236" data-name="Path 6236" d="M95.839,84.012c2.547-.116,2.374-4.074-.184-3.959s-2.374,4.074.184,3.959" transform="translate(114.957 97.879)" fill="#c96331"/>
        <path id="Path_6237" data-name="Path 6237" d="M94.74,100.728c-.011-.2-.011-.4-.022-.613a1.994,1.994,0,0,0-.649-1.367,1.474,1.474,0,0,0-.649-.38,1.5,1.5,0,0,0-.776-.14,2.028,2.028,0,0,0-1.376.649,2.077,2.077,0,0,0-.522,1.423c.024.209.024.407.036.613a2.04,2.04,0,0,0,.647,1.378,1.479,1.479,0,0,0,.66.382,1.51,1.51,0,0,0,.765.127,2.028,2.028,0,0,0,1.378-.636,2.086,2.086,0,0,0,.509-1.436" transform="translate(111.184 120.097)" fill="#c96331"/>
        <path id="Path_6238" data-name="Path 6238" d="M127.831,98.085c2.547-.116,2.374-4.074-.173-3.959s-2.374,4.074.173,3.959" transform="translate(154.081 115.087)" fill="#c96331"/>
        <path id="Path_6239" data-name="Path 6239" d="M117.827,97.71c2.547-.116,2.374-4.074-.184-3.959s-2.363,4.074.184,3.959" transform="translate(141.847 114.628)" fill="#c96331"/>
        <path id="Path_6240" data-name="Path 6240" d="M60.092,42.637c2.558-.116,2.374-4.074-.173-3.959s-2.374,4.074.173,3.959" transform="translate(71.255 47.29)" fill="#c96331"/>
        <path id="Path_6241" data-name="Path 6241" d="M66.168,48.195c2.558-.116,2.374-4.074-.173-3.97-2.547.127-2.374,4.085.173,3.97" transform="translate(78.689 54.072)" fill="#c96331"/>
        <path id="Path_6242" data-name="Path 6242" d="M76.454,30.236c2.547-.116,2.374-4.074-.185-3.959s-2.374,4.074.185,3.959" transform="translate(91.255 32.127)" fill="#c96331"/>
        <path id="Path_6243" data-name="Path 6243" d="M76.36,40.507c2.558-.116,2.374-4.074-.173-3.959s-2.374,4.074.173,3.959" transform="translate(91.151 44.685)" fill="#c96331"/>
        <path id="Path_6244" data-name="Path 6244" d="M129.759,46.669c-.209-.2-.429-.382-.636-.578a2.058,2.058,0,0,0-1.436-.522,1.41,1.41,0,0,0-.754.209,1.469,1.469,0,0,0-.613.44,1.975,1.975,0,0,0-.52,1.423,2.085,2.085,0,0,0,.647,1.378c.209.2.429.393.638.591a2.1,2.1,0,0,0,1.425.509,2.265,2.265,0,0,0,1.376-.649,2,2,0,0,0,.522-1.423,2.117,2.117,0,0,0-.649-1.378" transform="translate(154.04 55.716)" fill="#c96331"/>
        <path id="Path_6245" data-name="Path 6245" d="M109.719,35.893c.011.209.022.4.036.613a2.03,2.03,0,0,0,.647,1.378,1.526,1.526,0,0,0,.649.382,1.358,1.358,0,0,0,.776.127,2.032,2.032,0,0,0,1.378-.636,2.094,2.094,0,0,0,.509-1.436c-.011-.2-.024-.407-.024-.613a2,2,0,0,0-.647-1.367,1.479,1.479,0,0,0-.66-.382,1.423,1.423,0,0,0-.765-.138,2.017,2.017,0,0,0-1.378.647,2.122,2.122,0,0,0-.52,1.425" transform="translate(134.385 41.346)" fill="#c96331"/>
        <path id="Path_6246" data-name="Path 6246" d="M111.4,41.182c.184-.22.382-.429.578-.649a2,2,0,0,0,.522-1.423,1.41,1.41,0,0,0-.209-.754,1.475,1.475,0,0,0-.44-.625,1.965,1.965,0,0,0-1.423-.509,2.1,2.1,0,0,0-1.378.636c-.187.22-.382.429-.591.649a2.058,2.058,0,0,0-.509,1.425,1.4,1.4,0,0,0,.209.751,1.456,1.456,0,0,0,.44.625,1.965,1.965,0,0,0,1.423.509,2.091,2.091,0,0,0,1.378-.636" transform="translate(132.218 45.504)" fill="#c96331"/>
        <path id="Path_6247" data-name="Path 6247" d="M128.725,26.7c.011.209.011.4.022.613a2.092,2.092,0,0,0,.649,1.378,1.475,1.475,0,0,0,.66.382,1.457,1.457,0,0,0,.765.127,2.022,2.022,0,0,0,1.376-.636,2.1,2.1,0,0,0,.522-1.436c-.011-.2-.024-.407-.036-.613a1.992,1.992,0,0,0-.647-1.367,1.5,1.5,0,0,0-.649-.382,1.463,1.463,0,0,0-.776-.138,1.975,1.975,0,0,0-1.887,2.072" transform="translate(157.622 30.106)" fill="#c96331"/>
        <path id="Path_6248" data-name="Path 6248" d="M128.938,37.279c2.547-.116,2.374-4.088-.184-3.97s-2.374,4.085.184,3.97" transform="translate(155.428 40.725)" fill="#c96331"/>
        <path id="Path_6249" data-name="Path 6249" d="M149.469,35.52c0-.2-.022-.4-.022-.613a1.994,1.994,0,0,0-.649-1.367,1.523,1.523,0,0,0-.649-.393,1.621,1.621,0,0,0-.776-.127,1.981,1.981,0,0,0-1.376.649,2.077,2.077,0,0,0-.522,1.423c.024.209.024.407.036.613a2.04,2.04,0,0,0,.647,1.378,1.5,1.5,0,0,0,.649.382,1.573,1.573,0,0,0,.776.127,2.028,2.028,0,0,0,1.378-.636,2.086,2.086,0,0,0,.509-1.436" transform="translate(178.102 40.366)" fill="#c96331"/>
        <path id="Path_6250" data-name="Path 6250" d="M153.72,33.085c2.547-.116,2.374-4.074-.184-3.959s-2.374,4.074.184,3.959" transform="translate(185.729 35.61)" fill="#c96331"/>
        <path id="Path_6251" data-name="Path 6251" d="M145.294,60.436c.2-.209.393-.429.591-.636a2.146,2.146,0,0,0,.52-1.425,1.686,1.686,0,0,0-.209-.765,1.522,1.522,0,0,0-.44-.613,1.984,1.984,0,0,0-1.434-.52,2.058,2.058,0,0,0-1.367.647c-.2.22-.393.429-.591.649a2.126,2.126,0,0,0-.52,1.425,1.671,1.671,0,0,0,.209.751,1.542,1.542,0,0,0,.44.625,2.035,2.035,0,0,0,1.434.511,2.012,2.012,0,0,0,1.367-.649" transform="translate(173.664 69.048)" fill="#c96331"/>
        <path id="Path_6252" data-name="Path 6252" d="M157.5,49.247c.011.2.022.4.022.613a2.092,2.092,0,0,0,.649,1.378,2.143,2.143,0,0,0,1.425.509,1.984,1.984,0,0,0,1.376-.649,2.058,2.058,0,0,0,.522-1.423c-.011-.209-.024-.407-.036-.613a2.077,2.077,0,0,0-.636-1.378,1.541,1.541,0,0,0-.66-.382,1.573,1.573,0,0,0-.776-.127,1.98,1.98,0,0,0-1.367.636,2.044,2.044,0,0,0-.52,1.436" transform="translate(192.806 57.674)" fill="#c96331"/>
        <path id="Path_6253" data-name="Path 6253" d="M163.089,55.97c2.547-.113,2.374-4.085-.184-3.968s-2.374,4.085.184,3.968" transform="translate(197.185 63.581)" fill="#c96331"/>
        <path id="Path_6254" data-name="Path 6254" d="M129.688,64.171c-.011-.2-.011-.4-.022-.613a2.042,2.042,0,0,0-.649-1.378,2.345,2.345,0,0,0-1.425-.509,2,2,0,0,0-1.376.636,2.034,2.034,0,0,0-.511,1.436c0,.2.013.407.024.613a2.077,2.077,0,0,0,.636,1.378,1.583,1.583,0,0,0,.66.371,1.463,1.463,0,0,0,.776.138,1.993,1.993,0,0,0,1.378-.647,2.04,2.04,0,0,0,.509-1.425" transform="translate(153.927 75.398)" fill="#c96331"/>
        <path id="Path_6255" data-name="Path 6255" d="M112.1,55.66c-.011-.127-.011-.256-.022-.382-.1-2.558-4.076-2.374-3.961.173.013.129.013.256.024.382.116,2.558,4.074,2.374,3.959-.173-.011-.127-.011-.256-.022-.382-.1-2.558-4.076-2.374-3.961.173.013.129.013.256.024.382.116,2.558,4.074,2.374,3.959-.173" transform="translate(132.427 65.351)" fill="#c96331"/>
        <path id="Path_6256" data-name="Path 6256" d="M39.2,77.169c2.558-.116,2.374-4.074-.173-3.959s-2.374,4.074.173,3.959" transform="translate(45.706 89.512)" fill="#c96331"/>
        <path id="Path_6257" data-name="Path 6257" d="M39.933,81.018c2.547-.116,2.361-4.074-.184-3.959s-2.374,4.074.184,3.959" transform="translate(46.6 94.219)" fill="#c96331"/>
        <path id="Path_6258" data-name="Path 6258" d="M80.714,141.58c2.547-.116,2.374-4.074-.185-3.959s-2.374,4.085.185,3.959" transform="translate(96.464 168.269)" fill="#c96331"/>
        <path id="Path_6259" data-name="Path 6259" d="M93.458,151.561c-.011-.2-.011-.4-.022-.613a2.066,2.066,0,0,0-.649-1.367,2.266,2.266,0,0,0-1.425-.52,1.983,1.983,0,0,0-1.376.649,2.077,2.077,0,0,0-.522,1.423c.011.209.024.407.036.613a2.077,2.077,0,0,0,.636,1.378,1.609,1.609,0,0,0,.66.382,1.716,1.716,0,0,0,.776.138A1.983,1.983,0,0,0,92.938,153a2.044,2.044,0,0,0,.52-1.436" transform="translate(109.617 182.251)" fill="#c96331"/>
      </g>
    </g>
  </g>
</svg>
