<svg id="Group_2308" data-name="Group 2308" xmlns="http://www.w3.org/2000/svg" xmlns:xlink="http://www.w3.org/1999/xlink" width="336.354" height="502.014" viewBox="0 0 336.354 502.014">
  <defs>
    <clipPath id="clip-path">
      <rect id="Rectangle_989" data-name="Rectangle 989" width="336.354" height="502.014" fill="none"/>
    </clipPath>
  </defs>
  <g id="Group_2307" data-name="Group 2307" clip-path="url(#clip-path)">
    <path id="Path_5638" data-name="Path 5638" d="M307.86,1263.738a110.921,110.921,0,0,1,24.556,21.2,388.31,388.31,0,0,1,90.138-53.434,5.515,5.515,0,0,0,2.442-1.6c1.253-1.7.285-3.972-.71-5.668l-18.017-30.685c-3.567-6.075-7.382-12.4-13.473-15.687-17.176-9.277-30.053,11.711-40.1,22.995-15.282,17.165-33.874,42.384-44.839,62.876" transform="translate(-258.034 -985.301)" fill="#af3a3a"/>
    <path id="Path_5639" data-name="Path 5639" d="M327.971,1656c1.5-2.129,2.7-2.81,4.239-5.931.954-1.929.609-3.943-1.716-8.245-3.415-6.319-10.176-9.595-16.384-11.825a31.807,31.807,0,0,0-18.977-.877,12.474,12.474,0,0,0-4.577,2.05c-2.793,2.12-4.763,5.983-6.572,9.642-.672,1.357-1.383,2.946-1.135,4.293a3.069,3.069,0,0,0,2.035,2.173c8.222,3.929,16.446,7.861,24.829,11.366,3.05,1.275,6.9,4.073,10.409,3.6,3.4-.452,5.411-2.794,7.849-6.251" transform="translate(-237.028 -1364.574)" fill="#fff"/>
    <path id="Path_5640" data-name="Path 5640" d="M230.626,1749.784a10.6,10.6,0,0,1-2.915,7.237,6.36,6.36,0,0,1-2.265,1.478c-2.742,1.013-5.613-.164-8.448-.343a12.862,12.862,0,0,0-8.336,2.54c-1.706,1.246-3.178,2.891-4.866,4.169a21.121,21.121,0,0,1-11.345,3.826,27.152,27.152,0,0,1-5.469-.1,15.584,15.584,0,0,1-10.454-5.32,22.253,22.253,0,0,1-3.809-7.965c-1.266-4.4-1.829-9.41-.072-13.714,1.923-4.71,6.2-7.566,10.422-9.3a36.62,36.62,0,0,1,6.565-2.009,37.544,37.544,0,0,1,6.28-.76,48.928,48.928,0,0,1,22.7,5.125,25.8,25.8,0,0,1,8.106,5.492,14.928,14.928,0,0,1,1.263,1.555,14.542,14.542,0,0,1,2.125,4.361,12.76,12.76,0,0,1,.523,3.733" transform="translate(-143.774 -1449.576)" fill="#231f20"/>
    <path id="Path_5641" data-name="Path 5641" d="M752.113,1325.49q-.567,3.716-1.4,7.494c-.084.37-.167.737-.252,1.107-9.224,39.96-34.1,42.5-70.07,47.722-20.978,3.044-52.093,8.953-70.786-13.374a95.778,95.778,0,0,1-17.747-31.358q-1.26-3.78-2.159-7.549c-11.874-49.354,20.007-95.787,21.027-96.865l121.559.583s27.686,41.219,19.826,92.24" transform="translate(-492.042 -1033.163)" fill="#ce4646"/>
    <path id="Path_5642" data-name="Path 5642" d="M1098.542,1519.183a6.9,6.9,0,1,1-5.825-7.745,6.888,6.888,0,0,1,5.825,7.745" transform="translate(-909.24 -1266.755)" fill="#231f20"/>
    <path id="Path_5643" data-name="Path 5643" d="M1096.733,1687.871a7.33,7.33,0,1,1-6.189-8.229,7.32,7.32,0,0,1,6.189,8.229" transform="translate(-907.004 -1407.731)" fill="#231f20"/>
    <path id="Path_5644" data-name="Path 5644" d="M765.816,1806.186q-.568,3.715-1.4,7.494a240.442,240.442,0,0,1-68.822,14.814,246.176,246.176,0,0,1-52.314-1.875q-3.977-.576-7.914-1.29a216.706,216.706,0,0,1-29.8-7.552q-1.261-3.781-2.159-7.549a208.555,208.555,0,0,0,33.13,8.782,242.052,242.052,0,0,0,114.254-7.414q7.76-2.472,15.029-5.411" transform="translate(-505.745 -1513.859)" fill="#231f20"/>
    <path id="Path_5645" data-name="Path 5645" d="M1015.79,1878.069a5.16,5.16,0,0,1-4.426-5.195l.191-8.462a5.075,5.075,0,0,1,1.639-3.633,5.177,5.177,0,0,1,3.767-1.381c5.351.225,18.835.556,28.453-1.217a5.238,5.238,0,0,1,4.212,1.046,5.107,5.107,0,0,1,1.932,3.832l.271,8.315a5.139,5.139,0,0,1-4.462,5.249c-5.59.776-19.828,2.473-31.277,1.481-.1-.01-.2-.021-.3-.035m30.6-14.979a.156.156,0,0,0-.053,0c-10.129,1.867-24.07,1.529-29.593,1.3a.137.137,0,0,0-.142.134l-.191,8.464a.131.131,0,0,0,.117.14c10.932.947,24.716-.7,30.135-1.451a.136.136,0,0,0,.116-.14l-.271-8.315a.12.12,0,0,0-.049-.1.159.159,0,0,0-.069-.031" transform="translate(-847.676 -1557.366)" fill="#fff"/>
    <path id="Path_5646" data-name="Path 5646" d="M1231.63,880.1a114.8,114.8,0,0,1-27.132-19.68,399.87,399.87,0,0,1-87.984,62.763,5.676,5.676,0,0,0-2.371,1.854c-1.139,1.853.058,4.111,1.232,5.768l21.246,30c4.206,5.939,8.689,12.111,15.245,14.968,18.487,8.054,31.8-23.318,41.136-35.792,14.2-18.978,29.163-37.856,38.628-59.882" transform="translate(-933.438 -721.16)" fill="#ce4646"/>
    <path id="Path_5647" data-name="Path 5647" d="M1719.413,684.754c1.727-7.956-2.292-16.023-8.147-18.365a24.888,24.888,0,0,0-17.645-.718c-5.991,1.973-7.185,3.384-12.547,6.685.164-4.369-2.008-8.944-8.66-7.571-3.671.758-6.622,3.925-8.067,6.663a32.5,32.5,0,0,0-3.369,14.836c0,8.292,2.572,16.05,10.06,19.775a28.552,28.552,0,0,0,7.071,2.134c6.092,1.243,15.57,3.427,21.462.378,5.43-2.811,16.894-10.241,19.843-23.818" transform="translate(-1392.152 -556.859)" fill="#231f20"/>
    <path id="Path_5648" data-name="Path 5648" d="M1660.4,852.263c1.574-1.733,3.294-3.784,3.516-6.124a6.794,6.794,0,0,0-1.634-4.687,38.463,38.463,0,0,0-14.757-12.44,32.589,32.589,0,0,0-17.978-2.94,11.829,11.829,0,0,0-4.493,1.314c-2.8,1.58-4.941,4.812-6.914,7.88-.732,1.138-1.518,2.479-1.376,3.712a3.007,3.007,0,0,0,1.785,2.175c7.543,4.449,15.088,8.9,22.815,12.988,2.811,1.487,6.273,4.427,9.645,4.407,3.261-.019,6.833-3.468,9.391-6.284" transform="translate(-1355.08 -692.169)" fill="#fff"/>
    <path id="Path_5649" data-name="Path 5649" d="M336.922,183.808a23.561,23.561,0,1,1-23.56-23.307,23.435,23.435,0,0,1,23.56,23.307" transform="translate(-242.898 -134.524)" fill="#fff"/>
    <path id="Path_5650" data-name="Path 5650" d="M474.653,413.892c-.206,1.134-14.984,34.316-13.347,64.68-10.043,9.165-21.321,22.665-19.68,36.084a14.279,14.279,0,0,0,3.123,7.748c4.876,5.565,13.734,4.49,21.011,2.937-.75,6.615,1.414,17.357,5.01,22.983s9.894,9.719,16.621,9.847c8.031.153,16.419-5,23.647-1.535,2.836,1.359,4.91,3.848,7.155,6.036a43.908,43.908,0,0,0,41.391,10.611,43.335,43.335,0,0,0,29.941-30.2,23.883,23.883,0,0,0,23.492-.256c7.033-4.195,6.919-14.641,6.634-22.761a4.041,4.041,0,0,1,.382-2.439c.887-1.316,2.866-1.006,4.458-.85,6.277.615,12.277-3.968,14.617-9.764s1.565-12.435-.612-18.292a41.5,41.5,0,0,0-12.69-17.656c-5.206-4.225-8.113-8.815-11.691-14.457-5.255-8.286-3.5-19.032-5.92-28.518-4.576-17.954-8.575-20.97-17.862-26.752-6.108-3.8-16.881-3.678-23.664-6.115-22.043-7.92-46.422-1.848-69.044,4.269-4.835,1.307-9.78,2.666-13.872,5.528-4.664,3.264-4.466,5.562-9.1,8.871" transform="translate(-370.016 -328.094)" fill="#fff"/>
    <path id="Path_5651" data-name="Path 5651" d="M747.364,467.912c-16.358-5.741-29.619-3.457-33.037-2.7-3.489-.244-16.925-.537-32.2,7.563-2.4,1.27-42.909,35.944-19.161,60.859,17.715,18.586,34.374-2.592,55.467-3.11l.01.131c.288-.053.576-.1.863-.142.29,0,.581,0,.873.013l-.01-.131c20.967-2.62,40.676,15.849,55.4-5.156,19.738-28.158-25.637-56.427-28.2-57.328" transform="translate(-549.429 -389.006)" fill="#ffd7c7"/>
    <path id="Path_5652" data-name="Path 5652" d="M711.587,763.856a12.517,12.517,0,0,0-6.514,2.676c-1.759,1.593-2.692,4.267-1.669,6.4A7.125,7.125,0,0,0,707,776.018c5.1,2.381,11.121,2.216,16.522.618,2.114-.626,4.368-1.65,5.216-3.665a5.6,5.6,0,0,0-.593-4.911c-3.263-5.529-10.914-5.117-16.554-4.2" transform="translate(-589.205 -639.772)" fill="#f7b5a4"/>
    <path id="Path_5653" data-name="Path 5653" d="M1228.672,740.156a12.542,12.542,0,0,1,6.686,2.222c1.868,1.469,2.985,4.072,2.115,6.269a7.116,7.116,0,0,1-3.367,3.327c-4.918,2.725-10.939,2.975-16.439,1.752-2.152-.479-4.472-1.346-5.46-3.3a5.6,5.6,0,0,1,.247-4.94c2.867-5.74,10.528-5.854,16.219-5.332" transform="translate(-1015.621 -620.196)" fill="#f7b5a4"/>
    <path id="Path_5654" data-name="Path 5654" d="M914.537,793.578a14.746,14.746,0,0,0-1.863,4.655c-.919,4.843,1.758,9.9,5.812,12.764s9.236,3.791,14.213,3.6a36.087,36.087,0,0,0,11.83-2.474,20.65,20.65,0,0,0,8.3-5.494,11.081,11.081,0,0,0,2.708-9.262c-.421-1.969-3.4-13.524-18.429-15.2a22.9,22.9,0,0,0-15.362,3.8,23.779,23.779,0,0,0-7.21,7.608" transform="translate(-764.808 -655.46)" fill="#f27b5c"/>
    <path id="Path_5655" data-name="Path 5655" d="M630.183,74.577S619.4,5.063,554.467.346s-79.742,40.2-78.737,45.868,6.418,1.877,14.048,4.69-2.984,22.259.856,39.514c0,0,59.48-41.067,139.55-15.841" transform="translate(-398.694 0)" fill="#ce4646"/>
    <path id="Path_5656" data-name="Path 5656" d="M682.151,343.332s7.812,5.218,8.767,17.673,1.705,18.2-4.129,18.641-17.18-26.69-63.066-25.007c-48.257,1.771-73.153,15.854-78.013,33.393,0,0-4.681,3.778-7.273-1.833s-4.115-17.411-.589-23.786S560.1,334.469,606.068,329.8c33.709-3.427,63.125,5.649,76.083,13.536" transform="translate(-449.068 -275.796)" fill="#fff"/>
    <path id="Path_5657" data-name="Path 5657" d="M799.035,677.564c-.32,6.592-4.61,11.743-9.583,11.507s-8.745-5.771-8.425-12.362,4.61-11.743,9.583-11.507,8.745,5.771,8.425,12.362" transform="translate(-654.604 -557.534)" fill="#231f20"/>
    <path id="Path_5658" data-name="Path 5658" d="M1204.14,663.629c-.319,6.592-4.61,11.744-9.582,11.508s-8.745-5.77-8.426-12.362,4.61-11.743,9.583-11.508,8.744,5.771,8.424,12.362" transform="translate(-994.144 -545.854)" fill="#231f20"/>
    <path id="Path_5659" data-name="Path 5659" d="M977.266,1024.107a10.74,10.74,0,0,0-3.462,10.129,10.9,10.9,0,0,0,7.637,7.836,18.449,18.449,0,0,0,5.127.567,24.547,24.547,0,0,0,11.011-2.289c3.328-1.7,6.041-4.636,6.661-8.078a11.575,11.575,0,0,0-.2-4.595c-1.125-4.982-4.475-8.389-9.972-8.039-5.891.375-12.264.391-16.8,4.468" transform="translate(-816.009 -854.592)" fill="#231f20"/>
    <path id="Path_5660" data-name="Path 5660" d="M1626.485,2137.773q14.485-1.145,28.926-2.487c-.573-21.969-1.76-39.7-1.76-39.7l-24.728.559c-.43,11.138-1.161,22.225-1.883,33.163-.183,2.792-.371,5.625-.555,8.469" transform="translate(-1363.242 -1756.417)" fill="#d68940"/>
    <path id="Path_5661" data-name="Path 5661" d="M467.847,2399.613q18.684,1.179,37.379,1.443c-.383-9.208-.743-18.49-1.079-27.233q-18.711-.414-37.4-1.646c-.725-.05-1.447-.1-2.168-.153q-14.026-.975-28.021-2.48c.173,8.9.4,18.407.707,27.532q14.166,1.461,28.4,2.4Z" transform="translate(-365.905 -1986.04)" fill="#d68940"/>
    <path id="Path_5662" data-name="Path 5662" d="M482.58,2737.1c-.729-.039-1.454-.079-2.182-.121q-14.36-.835-28.682-2.184c.617,6.567,1.375,11.341,2.305,13.244,3.651,7.447,31.863,11.024,66.447,12.226-.379-6.095-.776-13.643-1.176-22q-18.349-.15-36.712-1.161" transform="translate(-378.607 -2292.174)" fill="#21381d"/>
    <path id="Path_5663" data-name="Path 5663" d="M958.247,2739.652c-.011-.5-.021-.989-.028-1.485-12.449.913-24.952,1.684-37.434,2.209-.721.032-1.443.06-2.168.089q-7.748.305-15.483.475-8.165.171-16.352.171-2.072,0-4.145-.011c.4,8.4.8,15.974,1.176,22.061,24.141.764,51.159.4,75-.592-.079-4.246-.195-8.475-.31-12.672-.09-3.358-.184-6.833-.26-10.245" transform="translate(-739.785 -2295.001)" fill="#89baf0"/>
    <path id="Path_5664" data-name="Path 5664" d="M1151.838,2143.858c.721-.039,1.446-.074,2.167-.113q20.047-1.06,40.041-2.641c.191-2.952.382-5.888.574-8.779.718-10.876,1.447-21.9,1.875-32.974l-83.354,1.887c.8,14.671,1.1,29.37,1.169,43.984q18.77-.384,37.527-1.365" transform="translate(-932.983 -1759.576)" fill="#b4131b"/>
    <path id="Path_5665" data-name="Path 5665" d="M458.462,2122.7l-26.716.606c.256,2.188.382,18.032.739,37.185q13.977,1.515,27.989,2.487c-.451-13.3-.945-26.8-2.013-40.278" transform="translate(-361.869 -1779.148)" fill="#b4131b"/>
    <path id="Path_5666" data-name="Path 5666" d="M649.607,2155.251q1.083.027,2.172.047,19.409.4,38.833,0c-.069-14.613-.368-29.312-1.169-43.976l-79.234,1.8c1.068,13.549,1.558,27.117,2.013,40.474q18.673,1.26,37.386,1.656" transform="translate(-511.447 -1769.612)" fill="#21381d"/>
    <path id="Path_5667" data-name="Path 5667" d="M469.852,2555.385q-14.242-.932-28.433-2.388c.361,10.135.837,19.685,1.475,27.247q14.323,1.365,28.707,2.2-1.044-13.537-1.75-27.06" transform="translate(-369.977 -2139.801)" fill="#89baf0"/>
    <path id="Path_5668" data-name="Path 5668" d="M1157.86,2548.018c-.722.046-1.443.093-2.164.135-12.3.764-24.668,1.424-37.033,1.862q-.022,2.64-.043,5.264l-.173,21.32c12.456-.521,24.941-1.3,37.372-2.208l2.164-.161c12.824-.957,25.594-2.055,38.223-3.165q.195-12.885.7-25.741l-2.615.189c-12.023.86-24.187,1.736-36.427,2.505" transform="translate(-937.429 -2133.369)" fill="#d68940"/>
    <path id="Path_5669" data-name="Path 5669" d="M1433.854,2354.2q-14.534,1.337-29.119,2.5l-2.179.172q-19.95,1.55-39.965,2.626-.379,13.087-.513,26.184c12.182-.767,24.288-1.639,36.254-2.495l2.857-.2,2.171-.156,30.7-2.2c.094-8.861-.007-17.918-.209-26.421" transform="translate(-1141.63 -1973.178)" fill="#21381d"/>
    <path id="Path_5670" data-name="Path 5670" d="M945.422,2413.834q.119-13.1.5-26.209-18.711.955-37.45,1.358c-.722.02-1.443.032-2.165.044q-9.789.188-19.58.189-9.594,0-19.184-.192c.335,8.74.7,18.015,1.075,27.214q5.947.072,11.882.044,12.824-.053,25.716-.509c.725-.02,1.446-.045,2.168-.074,12.362-.442,24.732-1.1,37.032-1.866" transform="translate(-727.138 -2001.194)" fill="#89baf0"/>
    <path id="Path_5671" data-name="Path 5671" d="M1612.288,2558.656q3.62-.32,7.225-.639,11.488-1.015,23.1-2.065c.66-7.609,1.006-16.27,1.136-25.2l-30.759,2.207q-.5,12.83-.7,25.7" transform="translate(-1351.344 -2121.153)" fill="#b4131b"/>
    <path id="Path_5672" data-name="Path 5672" d="M678.659,2570.12q-4.3,0-8.6-.049c-.725-.009-1.446-.015-2.168-.03q-18.662-.256-37.357-1.434.709,13.511,1.753,27.047,18.381,1.02,36.78,1.174c.721,0,1.446.01,2.168.01q10.286.059,20.551-.158,7.76-.159,15.548-.477l.177-21.427q.022-2.58.043-5.167-12.868.428-25.7.5c-1.064.006-2.135.006-3.2.006" transform="translate(-528.484 -2152.885)" fill="#b4131b"/>
    <path id="Path_5673" data-name="Path 5673" d="M1403.29,2702.56c-.722.065-1.443.128-2.168.189-12.608,1.114-25.348,2.206-38.151,3.159.011.531.021,1.067.032,1.6.072,3.409.17,6.877.26,10.235.115,4.186.231,8.4.31,12.64,31.751-1.385,57.457-3.875,62.493-6.273,3.838-1.828,6.107-11.306,7.377-24.24q-11.4,1.04-22.7,2.031-3.716.332-7.452.66" transform="translate(-1142.377 -2262.902)" fill="#b4131b"/>
    <path id="Path_5674" data-name="Path 5674" d="M625.258,2169.12l-2.857.2c-11.965.858-24.072,1.728-36.253,2.495q.124-13.088.512-26.182,20.01-1.05,39.965-2.627,1.087-.086,2.179-.171,14.583-1.145,29.118-2.5-.027-1.081-.054-2.153-14.442,1.333-28.927,2.488c.184-2.844.372-5.677.556-8.469.721-10.937,1.454-22.025,1.883-33.163l-2.168.05c-.429,11.074-1.158,22.1-1.876,32.974-.191,2.891-.382,5.826-.573,8.78q-19.988,1.556-40.041,2.64c-.721.04-1.447.075-2.168.114q-18.749.958-37.527,1.364c-.072-14.614-.368-29.312-1.169-43.983l-2.164.049c.8,14.664,1.1,29.364,1.169,43.977q-19.414.371-38.832,0-1.088-.02-2.172-.045-18.706-.418-37.386-1.657c-.455-13.356-.945-26.925-2.013-40.474l-2.168.045c1.068,13.476,1.562,26.979,2.013,40.279q-14.009-.979-27.989-2.487c.014.714.025,1.435.04,2.159q14,1.514,28.021,2.48c.722.054,1.443.1,2.168.153q18.679,1.248,37.4,1.645c.336,8.744.7,18.025,1.079,27.233q-18.673-.263-37.379-1.442l-2.175-.139q-14.231-.937-28.4-2.4c.029.723.054,1.442.079,2.159q14.176,1.456,28.433,2.387.7,13.517,1.75,27.062-14.377-.835-28.707-2.2c.065.745.126,1.471.191,2.177q14.312,1.354,28.682,2.183c.729.043,1.454.082,2.182.121q18.349,1.012,36.712,1.159c.4,8.363.8,15.911,1.176,22,.722.027,1.443.052,2.168.072-.379-6.087-.775-13.66-1.176-22.061q2.072.01,4.145.01,8.181,0,16.352-.171,7.732-.166,15.482-.475c.725-.029,1.447-.057,2.168-.089,12.481-.525,24.984-1.3,37.433-2.209.007.5.018.989.029,1.485.076,3.412.17,6.888.26,10.245.116,4.2.231,8.425.31,12.673.725-.029,1.447-.062,2.164-.089-.079-4.235-.195-8.454-.31-12.641-.09-3.357-.188-6.826-.26-10.234-.011-.531-.021-1.067-.032-1.6,12.8-.952,25.543-2.045,38.151-3.158.725-.061,1.446-.125,2.168-.19q3.734-.331,7.452-.66,11.293-1,22.7-2.03c.069-.714.137-1.435.2-2.171q-11.6,1.056-23.1,2.066-3.6.323-7.225.639.2-12.862.7-25.7l30.76-2.206q.016-1.074.029-2.151l-30.7,2.2Zm-80.533,12.091-.177,21.426q-7.786.311-15.547.478-10.259.214-20.551.158c-.721,0-1.446-.007-2.168-.01q-18.381-.156-36.78-1.174-1.045-13.527-1.753-27.046,18.673,1.171,37.357,1.434c.721.015,1.443.021,2.168.029q4.3.049,8.6.049c1.064,0,2.135,0,3.2-.006q12.818-.055,25.695-.5-.022,2.587-.043,5.168m.058-7.312q-12.878.434-25.716.507-5.936.028-11.882-.044c-.375-9.2-.74-18.473-1.075-27.214q9.594.2,19.183.194,9.789,0,19.58-.19,1.082-.014,2.164-.042,18.733-.379,37.451-1.36-.374,13.1-.505,26.209c-12.3.767-24.67,1.424-37.032,1.866q-1.082.043-2.168.075m79.693,23.114c-12.629,1.11-25.4,2.208-38.223,3.167l-2.164.16c-12.431.912-24.915,1.687-37.372,2.208l.173-21.319c.014-1.752.029-3.5.043-5.264,12.366-.438,24.735-1.1,37.033-1.863q1.082-.065,2.164-.136c12.24-.77,24.4-1.645,36.427-2.5l2.615-.188q-.5,12.852-.7,25.74" transform="translate(-365.698 -1759.318)" fill="#fff"/>
    <path id="Path_5675" data-name="Path 5675" d="M526.722,1926.537c-10.245.949-183.4,20.6-252.186,1.138,0,0-8.217-3.911-10-18.153-.729-5.827-1.392-13.789-.354-20.788a27.241,27.241,0,0,0,5.469.1A21.125,21.125,0,0,0,281,1885.009c1.688-1.277,3.16-2.923,4.866-4.169a12.86,12.86,0,0,1,8.336-2.54c2.835.178,5.707,1.356,8.448.343a6.383,6.383,0,0,0,2.265-1.478c40.041,5.8,131.991,15.3,216.25-3.662,0,0,12.871-5.574,13.361,15.424s2.438,36.661-7.806,37.61" transform="translate(-220.978 -1569.719)" fill="#fff"/>
    <path id="Path_5676" data-name="Path 5676" d="M336.323,2645.046c-.709-9.053-12.466-12.014-19.155-18.229-5.643-5.245-7.671-13.122-10.71-20.168s-8.447-14.285-16.171-14.824c-4.522-.313-8.824,1.784-12.807,3.923a266.9,266.9,0,0,0-39.042,25.608c-1.7,1.341-3.528,2.763-5.7,2.943-3.348.279-6.077-2.41-8.591-4.615-5.771-5.063-13.983-8.574-21.184-5.838-5.766,2.19-9.414,7.756-14.394,11.372-8.735,6.34-21.931,5.715-30.015-1.421-5.853-5.167-9.8-13.541-17.541-14.83-11.636-1.936-20.11,13.98-31.866,12.973-6.907-.593-11.691-6.774-16.149-12.026-7.045-8.3-22.376-14.014-30.4-3.376-3.169,4.2-4.865,9.5-8.777,13.037-5.078,4.587-12.534,5.088-19.328,6.131a90.649,90.649,0,0,0-30.821,10.683A7.551,7.551,0,0,0,.439,2639.2c-1.69,3.3,1.82,6.833,5.065,8.676a65.509,65.509,0,0,0,33.645,8.47c10.164-.231,21.2-2.645,29.888,2.578,4.7,2.827,7.959,7.538,12.476,10.648,6.689,4.6,15.391,5.2,23.511,4.52a88.492,88.492,0,0,0,26.752-6.563c12.437-5.219,24.329-13.45,37.839-13.312,16.342.167,32.9,12.635,47.728,5.84,3.178-1.458,5.916-3.71,9.01-5.333,8.283-4.345,18.359-3.8,27.437-1.484s17.672,6.262,26.769,8.5a74.729,74.729,0,0,0,41.506-1.75c7.074-2.39,14.837-7.578,14.26-14.952" transform="translate(0 -2172.318)" fill="#fff"/>
  </g>
</svg>
