<svg xmlns="http://www.w3.org/2000/svg" xmlns:xlink="http://www.w3.org/1999/xlink" width="861.976" height="605.103" viewBox="0 0 861.976 605.103">
  <defs>
    <clipPath id="clip-path">
      <rect id="Rectangle_1073" data-name="Rectangle 1073" width="791.542" height="474.867" transform="translate(0 0)" fill="none"/>
    </clipPath>
  </defs>
  <g id="Group_2435" data-name="Group 2435" transform="matrix(0.985, -0.174, 0.174, 0.985, 0, 137.449)">
    <g id="Group_2434" data-name="Group 2434" transform="translate(0 0.001)" clip-path="url(#clip-path)">
      <path id="Path_6072" data-name="Path 6072" d="M227.017,357.825c-9.865-16.621-25.9-29.041-45.227-29.077-.748-3.9,3.414-7,7.272-7.949s8.19-.954,11.262-3.47c4.617-3.781,3.613-11.782-.891-15.7s-11.136-4.4-16.972-3.152-11.233,3.984-16.89,5.884c-8.528,2.864-18.046,3.765-26.446.546-6.651-2.549-12.081-7.433-17.769-11.72s-12.2-8.186-19.322-8.194-14.651,5.314-14.668,12.436c-.011,4.725,3.116,8.877,6.573,12.1s7.446,5.982,10.091,9.9,3.589,9.541.611,13.209c-1.811,2.231-4.651,3.286-7.237,4.54a39.039,39.039,0,0,0-.513,69.994c7.7,3.878,16.549,5.139,24.118,9.276,19.056,10.416,26.354,36.753,46.713,44.311,4.974,1.847,10.326,2.368,15.608,2.873l18.655,1.785c5.106.489,10.529.922,15.11-1.385,5.422-2.73,8.433-8.755,9.675-14.7s1.082-12.095,2.114-18.077c1.02-5.915,3.185-11.563,4.736-17.361,4.994-18.671,3.261-39.45-6.6-56.071" transform="translate(-60.131 -227.266)" fill="#b71408"/>
      <path id="Path_6073" data-name="Path 6073" d="M265.711,316.933c-1.492-5.716-7.933-10.077-13.839-10.245s-11.563,2.139-17.061,4.3c-5.678,2.233-11.49,4.374-17.57,4.886a31.573,31.573,0,0,1-14-1.935c-6.331-2.451-11.6-7-17.493-10.362-7.5-4.284-12.2-6.379-20.844-6.526a11.118,11.118,0,0,0-8.951,3.671,7.991,7.991,0,0,0-.733,9.311c2.149,3.148,6.391,3.907,10.177,4.343a118.267,118.267,0,0,1,16.451,2.57c5.374,1.406,10.617,3.751,14.643,7.579,3.02,2.871,5.416,6.6,9.206,8.337,4.236,1.938,9.326.873,13.383-1.416s7.363-5.669,10.9-8.706a79.171,79.171,0,0,1,8.855-6.6c3-1.923,6.376-3.7,9.919-3.364,3.367.32,6.306,2.545,8.345,5.244,1.483,1.963,3.185,4.506,5.623,4.171,2.557-.352,3.648-2.762,3-5.26" transform="translate(-122.841 -236.876)" fill="#630d0b"/>
      <path id="Path_6074" data-name="Path 6074" d="M219.38,418.619c-2.638-3.417-2.927-8.125-5.158-11.821-2.314-3.834-6.5-6.186-10.772-7.52s-8.766-1.812-13.117-2.871a50.455,50.455,0,0,1-18.051-8.46l.765.574c2.87,3.885,7.777,5.548,11.837,8.165a27.419,27.419,0,0,1,11.74,16.764c.47,2.066.8,4.371,2.4,5.759a7.737,7.737,0,0,0,2.052,1.171,43.5,43.5,0,0,0,21.872,3.276c-.475-2.024-2.294-3.392-3.564-5.038" transform="translate(-137.383 -309.364)" fill="#d61a07"/>
      <path id="Path_6075" data-name="Path 6075" d="M548.973,425.3c-4.257-3.483-7.734-7.158-16.71-9.953-5.069-1.578-10.044-1.917-15.142-2.557-.377-3.695,3.158-6.675,6.7-7.805s7.413-1.176,10.763-2.779,4.5-4.978,4.2-8.992c.393,1.761-1.482,3.4-3.285,3.354a6.478,6.478,0,0,1-4.518-2.67c-1.155-1.386-2.848-3.662-4.649-3.782-5.2-.345-16.362,8.367-20.508,12.9-2.91,3.183-6.18,6.161-8.108,10.019s-2.169,8.974.776,12.125c1.677,1.794,4.08,2.669,6.294,3.733,8.757,4.207,15.4,12.077,19.506,20.882s5.869,18.529,6.721,28.207c2.065,23.456-1.784,49.1-13.9,69.288,10.271,1.206,12.979.944,20.542,2.411,2.05.4,8.484.933,10.51.427,7.661-1.911,11.325-6.5,13.139-12.776,2.191-7.579,1.8-15.442,3.25-21.81,2.685-11.831,5.373-18.156,7.006-29.579,3.19-22.321-5.132-46.368-22.582-60.647" transform="translate(-395.742 -311.09)" fill="#d61a07"/>
      <path id="Path_6076" data-name="Path 6076" d="M292.194,472.713c-.641-1.253-2.495-1.372-3.708-.659a10.742,10.742,0,0,0-2.821,3.1,21.958,21.958,0,0,1-8.66,6.711,69.559,69.559,0,0,1-8.785,2.423c-6.69.847-13.464-.121-20.129-1.147a91.99,91.99,0,0,1-16.129-3.522,32.534,32.534,0,0,1-13.852-8.69c-.736-.827-1.341-2.2-2.448-2.21-4.815-.053-4.719,2.4-4.8,3.7a7.031,7.031,0,0,0,1.974,5.007,19.22,19.22,0,0,0,4.373,3.348c3.981,2.45,8.095,4.817,12.606,6.042,19.827,5.384,40.793,2.706,43.932,1.512,13.675-5.2,16.829-10.558,16.495-11.373-.64-1.562,2.725-2.734,1.957-4.237" transform="translate(-168.137 -373.772)" fill="#f4a414"/>
      <path id="Path_6077" data-name="Path 6077" d="M590.145,575.119c-2.146-6.087-6.61-16.809-6.211-23.087a14.921,14.921,0,0,0-.47-4.459,95.261,95.261,0,0,0-3.958-11.337c-1.428-2.559-5.019-7.183-5.113-6.918-.31.877-1.075,3.439-1.229,4.016s.04.367.04.367a65.714,65.714,0,0,1,6.185,26.9,78.071,78.071,0,0,0,.249,8.715c.364,2.885.461,4.075,2.395,6.247,1.83,1.294,2.884,1.628,4.714,1.413,1.342-.157,3.519-1.52,3.4-1.86" transform="translate(-457.015 -422.089)" fill="#f4a414"/>
      <path id="Path_6078" data-name="Path 6078" d="M517.826,553.3s-4.536-1.67-4.714-.96c-3.037,12.1.115,26.767-4.013,38.536-1.026,2.925-.7,4.929-4.953,6.121-1.51.423,2.025,1.983,4.838,1.965,1.568-.01,3.733.254,5.136-.447,1.93-.964,2.784-3.224,3.339-5.309,3.444-12.936,1.918-26.61.368-39.907" transform="translate(-401.737 -440.316)" fill="#f4a414"/>
      <path id="Path_6079" data-name="Path 6079" d="M475.083,592.827a14.466,14.466,0,0,1,.278-7.714c2.736-10.747,11.424-31.839,11.424-31.839a10.652,10.652,0,0,0-3.139-1.106,2.767,2.767,0,0,0-2.779,1.082,4.478,4.478,0,0,0-.428,2.165c-.223,5-2.1,9.793-4.514,14.172s-5.388,8.426-8.045,12.664c-2.016,3.216-3.909,7.11-2.575,10.664,1.023,2.726,3.82,4.373,6.644,5.083a23.038,23.038,0,0,0,11.13.491c-2.6-.078-7.238-3.17-8-5.663" transform="translate(-370.696 -440.292)" fill="#f7ca11"/>
      <path id="Path_6080" data-name="Path 6080" d="M594.363,555.986a53.22,53.22,0,0,0-6.588-15.777,27.7,27.7,0,0,0-13.149-10.85l-1.229,4.016c2.416.3,3.172,2.453,4.561,4.135a56.84,56.84,0,0,1,8.508,13.628,34.085,34.085,0,0,1,3.237,8.8c1.048,6.18-2.724,17.082-7.438,15.669,2.309,2.945,7.429,1.222,9.79-1.052a13.256,13.256,0,0,0,3.67-8.874,31.416,31.416,0,0,0-1.362-9.7" transform="translate(-457.249 -422.132)" fill="#f7ca11"/>
      <path id="Path_6081" data-name="Path 6081" d="M538.5,517.051c2.537-2.335,2.839-4.344,2.227-7.448-.619-3.136-3.388-2.884-4.712-1.9a19.029,19.029,0,0,1-6.026,2.264c-1.348.215-3.059,4.566.365,6.346s5.556,3.12,8.146.737" transform="translate(-421.324 -404.336)" fill="#f7ca11"/>
      <path id="Path_6082" data-name="Path 6082" d="M1292.384,1175.808s17.36,1.237,13.329,24.288c-2.243,12.824-17.7,14.792-31.031,13.331s-17.708-8.035-16.98-10.409,12.391-32.14,34.682-27.21" transform="translate(-1002.879 -937.196)" fill="#d32d24"/>
      <path id="Path_6083" data-name="Path 6083" d="M1246.823,1289.589a2.905,2.905,0,0,0-3.855,1.978,21.4,21.4,0,0,0,.081,9.591c1.826,9.131.675,16.176-.575,18.68s-9.286,12.548-6.547,20.218,4.383,10.409,18.262,11.5,41.454,1.644,44.193-2.922-3.835-19.723-17.349-21.914-3.287-14.975-.73-18.627,10.223-17.531,10.316-25.384-5.568.141-7.759,1.9c-2.11,1.69-14.882,13.093-36.037,4.979" transform="translate(-985.125 -1020.178)" fill="#6d3535"/>
      <path id="Path_6084" data-name="Path 6084" d="M1362.351,1330.672s.046,11.322-3.082,14.792-8.424,17.531-8.424,19.905.365,12.053,10.774,13.148,24.918,5.661,24.736,7.122.712,5.837-9.078,5.722c0,0,16.1.335,14.079-9.009-2.32-10.72-5-13.514-21.352-17.1-9.409-2.063.578-14.895,2.389-17.781s8.126-13.331,8.263-16.8-10.82-1.644-18.307,0" transform="translate(-1077.216 -1059.554)" fill="#542424"/>
      <path id="Path_6085" data-name="Path 6085" d="M1268.216,1424.294a58.882,58.882,0,0,0,0,8.035c.338,2.975,5.661,5.3,10.318,5.844s19.607-.548,22.176-1.644,3.89-8.868,3.5-9.5-1.616,3.8-10.953,4.273-12.989,1.936-18.1-.986-4.018-7.122-6.939-6.027" transform="translate(-1011.204 -1135.644)" fill="#2d0806"/>
      <path id="Path_6086" data-name="Path 6086" d="M1295.194,1453.07l7.715.693a.555.555,0,0,1,.48.72l-1.234,3.913a.555.555,0,0,1-.7.363l-.458-.145a.555.555,0,0,1-.363-.7l.21-.666a.555.555,0,0,0-.427-.713l-3.462-.654a.555.555,0,0,0-.625.357l-1.1,3.029a.555.555,0,0,0,.422.735l3.6.663a.555.555,0,0,0,.63-.379.556.556,0,0,1,.666-.371l.466.118a.555.555,0,0,1,.394.706l-.6,1.918a.556.556,0,0,1-.646.376l-7.432-1.592a.555.555,0,0,1-.413-.71l2.295-7.279a.556.556,0,0,1,.58-.386" transform="translate(-1030.524 -1158.732)" fill="#f4a414"/>
      <path id="Path_6087" data-name="Path 6087" d="M1262.091,1289.336a3.719,3.719,0,0,0-3.9,3.137,15.6,15.6,0,0,0-.263,3.278c.18,1.826,2.306,3.034,6.206,4.017,4.931,1.244,29.954,1.244,42.412-4.576,2.2-1.03,3.017-7.274,3.366-11.685a2.314,2.314,0,0,0-3.526-2.145,52.962,52.962,0,0,1-12.3,5.8c-6.818,1.947-22.5,2.758-31.994,2.168" transform="translate(-1003.101 -1021.528)" fill="#2d0806"/>
      <path id="Path_6088" data-name="Path 6088" d="M1217.47,1264.159s17.36,1.237,13.329,24.288c-2.243,12.824-17.7,14.792-31.031,13.331s-17.708-8.035-16.98-10.409,12.391-32.14,34.682-27.21" transform="translate(-943.139 -1007.65)" fill="#b71408"/>
      <path id="Path_6089" data-name="Path 6089" d="M1171.909,1377.94a2.905,2.905,0,0,0-3.855,1.977,21.405,21.405,0,0,0,.081,9.591c1.826,9.131.675,16.176-.575,18.68s-9.286,12.548-6.547,20.218,4.383,10.409,18.262,11.5,41.454,1.644,44.193-2.922-3.835-19.723-17.349-21.914-3.287-14.975-.73-18.627,10.223-17.531,10.316-25.384-5.568.141-7.759,1.9c-2.11,1.69-14.882,13.093-36.036,4.98" transform="translate(-925.385 -1090.633)" fill="#6d3535"/>
      <path id="Path_6090" data-name="Path 6090" d="M1287.437,1419.023s.046,11.322-3.081,14.792-8.424,17.531-8.424,19.905.365,12.053,10.774,13.149,24.918,5.661,24.735,7.122.713,5.837-9.078,5.723c0,0,16.1.335,14.079-9.009-2.32-10.72-5-13.514-21.352-17.1-9.409-2.063.578-14.895,2.389-17.781s8.126-13.331,8.263-16.8-10.82-1.644-18.307,0" transform="translate(-1017.477 -1130.008)" fill="#542424"/>
      <path id="Path_6091" data-name="Path 6091" d="M1193.3,1512.645a58.878,58.878,0,0,0,0,8.035c.338,2.975,5.661,5.3,10.318,5.844s19.607-.548,22.176-1.644,3.89-8.868,3.5-9.5-1.616,3.8-10.953,4.273-12.989,1.936-18.1-.986-4.017-7.122-6.939-6.026" transform="translate(-951.464 -1206.099)" fill="#2d0806"/>
      <path id="Path_6092" data-name="Path 6092" d="M1220.278,1541.42l7.715.693a.556.556,0,0,1,.48.72l-1.234,3.913a.555.555,0,0,1-.7.363l-.458-.144a.555.555,0,0,1-.363-.7l.21-.666a.555.555,0,0,0-.427-.713l-3.462-.654a.556.556,0,0,0-.625.357l-1.1,3.029a.556.556,0,0,0,.422.735l3.6.663a.555.555,0,0,0,.63-.379.556.556,0,0,1,.666-.371l.466.118a.556.556,0,0,1,.393.706l-.6,1.918a.555.555,0,0,1-.646.376l-7.432-1.592a.556.556,0,0,1-.413-.71l2.3-7.279a.556.556,0,0,1,.579-.386" transform="translate(-970.784 -1229.186)" fill="#f4a414"/>
      <path id="Path_6093" data-name="Path 6093" d="M1187.176,1377.687a3.719,3.719,0,0,0-3.9,3.136,15.6,15.6,0,0,0-.263,3.278c.18,1.826,2.306,3.034,6.206,4.017,4.931,1.244,29.954,1.244,42.412-4.576,2.2-1.03,3.017-7.274,3.366-11.685a2.314,2.314,0,0,0-3.526-2.145,52.958,52.958,0,0,1-12.3,5.8c-6.818,1.947-22.5,2.757-31.994,2.168" transform="translate(-943.361 -1091.983)" fill="#2d0806"/>
      <path id="Path_6094" data-name="Path 6094" d="M790.925,746.048c-2.195,1.384-27.648,18.361-36.734,66.91,0,.012,0,.023-.005.035L752.66,824.52a.6.6,0,0,1-.07.214c-.529.951-4.727,8.625-6.436,15.634-1.826,7.487-2.557,15.705,3.652,19.723s27.575,6.757,37.984,8.035,23.74,7.122,30.68,7.122,18.444-1.461,27.21-11.322c6.53-7.346,11.87-7.487,15.157-8.766s6.392-14.609,5.661-21.366c-.638-5.9-6.851-8.6-8.411-9.187a.6.6,0,0,1-.388-.515,86.176,86.176,0,0,1-.332-11.482c.365-3.835-1.826-4.748-1.826-4.748s3.1,3.1,6.574,2.739,8.035-2.557,9.5-9.313c1.37-6.335,2.9-8.817,3.086-9.1a.674.674,0,0,0,.04-.072,10.5,10.5,0,0,0,1.036-5.077.606.606,0,0,1,.627-.683c1.691.077,5.7.2,7.263-.222,2.009-.548,3.287-3.652,4.2-8.035s4.383-10.957,6.392-12.053,3.835-1.1,3.1-2.191-14.975-4.2-21.366-3.835-10.592-5.844-11.5-8.035-4.565-7.66-5.113-8.761.73,13.143-7.852,14.6a40.633,40.633,0,0,1-16.283-.948.607.607,0,0,0-.711.329c-.647,1.4-3.1,5.431-10.033,5.733-8.4.365-13.7-.913-14.609-7.487-.875-6.3-12.8-9.242-13.811-9.48a.593.593,0,0,0-.137-.016h-4.689a.606.606,0,0,0-.324.094" transform="translate(-593.981 -592.624)" fill="#b71408"/>
      <path id="Path_6095" data-name="Path 6095" d="M1020.754,923.934a.607.607,0,0,1,.92-.756c5.773,4.723,19.861,15.624,29.525,17.9,9.383,2.208,13.448,2.33,14.875,2.258a.6.6,0,0,1,.639.6c.011,1.179.155,3.642,1.1,5,1.212,1.731,5.544,2.971,7.391,2.471a.611.611,0,0,1,.537.1l1.237.963a.6.6,0,0,1,.234.463c.042,1.8.275,11.611.441,14.63a.607.607,0,0,0,.345.514l2.651,1.263a.607.607,0,0,1,.3.309l3.485,8.135c.548,1.278,2.8.992,1.778,6.435s-2.143,12.375-5.431,14.383-6.512.689-10.834,4.727-9.225,10.622-20.288,13.9c-9.541,2.831-20.952-.289-23.91-1.2a.6.6,0,0,1-.345-.882c1.817-3.131,1.906-20.369,10.819-30.61,17.352-19.935-7.043-44.943-15.47-60.6" transform="translate(-813.927 -736.065)" fill="#d32d24"/>
      <path id="Path_6096" data-name="Path 6096" d="M1227.249,868.747a15.551,15.551,0,0,0,6.209,8.948s-1.644-6.939-1.461-8.948c0,0-.913.731-4.748,0" transform="translate(-978.655 -692.772)" fill="#d32d24"/>
      <path id="Path_6097" data-name="Path 6097" d="M847.681,1131.853a5.414,5.414,0,0,0-2.147,6.639,31.736,31.736,0,0,0,2.633,5.114c3.235,5.174,1.278,5.3-.183,7.487s-2.858,6.392-5.942,8.766-11.108,5.3-14.511,7.67-6.209,15.157-22.66,15.705c-5.4.18-16.8-2.739-23.277-7.122s-18.709-4.2-24-4.566-17.348-.365-20.27-3.47-5.724-6.349-8.523-6.187-4.991,4.544-4.26,10.753,4.566,9.125,14.975,10.68,16.253-.53,22.827,3.982,16.073,6.371,21.366,5.974c7.3-.548,10.957-1.279,18.992,4.017,6.606,4.354,18.444.913,22.1-4.566s3.287-9.679,7.67-11.5,4.267-3.276,10.774-2.191c8.766,1.461,15.157-5.661,16.253-13.838.614-4.58,1.227-8.043,4.565-11,5.3-4.687,4.383-9.313,2.192-13.879-2.061-4.293-5.113-9.313-10.957-9.313-3.734,0-5.8-.242-7.608.848" transform="translate(-577.658 -901.889)" fill="#f9e9f1"/>
      <path id="Path_6098" data-name="Path 6098" d="M1441.4,851.121s-9.845,13.7-11.306,22.279c0,0,4.383,2.545,14.609,2.733s12.783-6.589,12.783-10.87-6.94-4.981-6.94-4.981,2.374-1.857,1.278-4.414-4.05-5.113-10.425-4.748" transform="translate(-1140.411 -678.689)" fill="#b71408"/>
      <path id="Path_6099" data-name="Path 6099" d="M1382.524,814.772s-2.374-4.931-6.939-.913-7.3,8.583-7.67,12.418-2.374,8.035-2.922,10.227,3.652,5.661,7.487,6.026,8.353,3.581,8.583-.913,3.479-9.978,4.383-11.87,5.479-5.661,7.67-9.131-4.748-8.4-10.592-5.844" transform="translate(-1088.459 -647.746)" fill="#f9e9f1"/>
      <path id="Path_6100" data-name="Path 6100" d="M1364.418,901.055s4.485,4.047,7.772,5.143a21.8,21.8,0,0,0,7.569.692,26.068,26.068,0,0,0-1.28,4.642c-.273,2-.584,3.694-2.546,3.243s-4.018-1.546-6.118-1.455-7.213-1.552-7.944-2.922.183-3.287.913-4.657a32.5,32.5,0,0,0,1.632-4.687" transform="translate(-1085.795 -718.536)" fill="#f2aaaa"/>
      <path id="Path_6101" data-name="Path 6101" d="M1364,955.333s6.031-1.48,8.583-.913c4.931,1.1,4.729,6.792,1.36,8.144,0,0,5.579,1.17,6.858,6.648s-4.565,15.921-26.137,9.1c0,0-.8-7.181,0-8.006s4.771-16.07,9.336-14.975" transform="translate(-1079.976 -760.987)" fill="#d61a07"/>
      <path id="Path_6102" data-name="Path 6102" d="M1270.173,915.718s-2.922-.307-4.383.789c0,0-1.1-3.1-5.3,0-2.919,2.158-8.263,9.343-10.685,16.07-1.062,2.951-1.562,5.815-1.047,8.127,1.688,7.579,6.619,7.031,8.445,4.292a5.284,5.284,0,0,0,4.748,4.2c4.2.548,9.578-.662,10.178-4.748s1.509-6.209,2.97-7.67,4.748-10.044,4.566-12.235-1.826-4.565-5.479-4.93c-2.277-.228-1.692-2.8-4.018-3.893" transform="translate(-995.648 -729.757)" fill="#f9e9f1"/>
      <path id="Path_6103" data-name="Path 6103" d="M1252.139,1000.723a10.334,10.334,0,0,0,5.935,2.678,10.825,10.825,0,0,0,6.209,1.552,62.292,62.292,0,0,0,9.429-1.284,15.447,15.447,0,0,0-1.587,4.5c-.673,3.04-.441,5.926-7.931,6.668s-7.307-4.31-7.307-4.31-2.269,4.087-6.308.4-2.1-11.444-.786-13.622a28.808,28.808,0,0,0,2.346,3.422" transform="translate(-995.327 -795.286)" fill="#f2aaaa"/>
      <path id="Path_6104" data-name="Path 6104" d="M776.084,1096.54a1.938,1.938,0,0,0-2.6.509c-1.322,1.838-3.286,5.157-2.758,8.08.78,4.317,24.653,12.418,44.376,13.7s51.863.016,63-9.762c0,0,2.739-9.048-1.826-6.491s-21.033,8.035-34.531,8.766-31.577-.349-40.89-2.275c-8.414-1.74-19.481-9.212-24.772-12.524" transform="translate(-614.534 -874.187)" fill="#2d0806"/>
      <path id="Path_6105" data-name="Path 6105" d="M1226.327,1132.436v-3.468a.724.724,0,0,0-.862-.711l-11.152,2.152a.725.725,0,0,0-.587.711v12.748a.724.724,0,0,0,.871.709l11.152-2.306a.724.724,0,0,0,.578-.709v-4.971a.724.724,0,0,0-.948-.689l-1.106.359a.724.724,0,0,0-.5.692l.007,1.5a.724.724,0,0,1-.507.694l-5.866,1.846a.724.724,0,0,1-.942-.691v-5.862a.724.724,0,0,1,.532-.7l5.674-1.564a.724.724,0,0,1,.917.7.724.724,0,0,0,.958.686l1.291-.44a.725.725,0,0,0,.491-.685" transform="translate(-967.871 -899.704)" fill="#f4a414"/>
      <path id="Path_6106" data-name="Path 6106" d="M970.789,1145.757c.587,3.042,1.06,8.056-1.133,11.563a1.6,1.6,0,0,0,1.318,2.451,25.392,25.392,0,0,0,3.041-.092,1.6,1.6,0,0,0,1.372-1.145,42.028,42.028,0,0,0,1.576-12.526,1.6,1.6,0,0,0-1.4-1.553,23,23,0,0,1-2.8-.542,1.6,1.6,0,0,0-1.97,1.844" transform="translate(-773.044 -912.159)" fill="#d61a07"/>
      <path id="Path_6107" data-name="Path 6107" d="M1046.252,501.234s11.079,13.518,7.67,25.814-22.554,20.059-34,18.6-14.554-5.444-16.77-15.555c-2.276-10.385,25.81-36.654,43.1-28.858" transform="translate(-799.85 -398.567)" fill="#efbebd"/>
      <path id="Path_6108" data-name="Path 6108" d="M1002.515,498.071l3.1,2.425s9.679,2.07,10.044,7.3a31.579,31.579,0,0,1,0,7.061s14.067,1.278,14.743,13.192a18.156,18.156,0,0,1-6.1,14.322s4.271,9.071-1.217,16.922c-4.148,5.934-11.322,11.931-24.714,7.427,0,0-2.134,2.33-9.861,6.392-8.4,4.413-18.87.183-23.253-5.052a14.027,14.027,0,0,1-2.8-11.566,24.088,24.088,0,0,1-10.166-2.922c-4.939-2.6-8.583-9.433-6.026-18.14,1.334-4.544,6.7-12.418,8.887-14.061s2.922-1.644,2.922-1.644S957.1,534.1,961.731,536.9s5.965,0,5.965,0,.487,2.934,4.626,4.023,7.395.725,8.811-1.345,7.138-4.87,8.721-4.5,10.592.487,11.566-5.6.609-6.331,2.313-8.1,1.7-2.131,3.531-4.687-2.922-10.52-4.5-12.321-4.992-4.967-4.992-4.967,1.217-1.685,4.748-1.329" transform="translate(-753.921 -397.142)" fill="#f9e9f1"/>
      <path id="Path_6109" data-name="Path 6109" d="M1134.94,649.456s-.609,5.357-3.044,6.209-3.608,1.159-3.608,1.159a2.664,2.664,0,0,1-.531,3.534c-1.826,1.76-6.7,3.343-9.74,1.395s-.244-4.992,2.07-6.209,1.917-.243,2.115-3.287,2.39-7.183,5.555-7.426,7.548-2.8,7.183,4.626" transform="translate(-890.486 -513.717)" fill="#eac7c7"/>
      <path id="Path_6110" data-name="Path 6110" d="M1203.947,615.451s1.65,1.35,5.39.62,3.984-2.279,5.81-3.452,5.479-.687,5.479-.687,1.461-2.944,0-4.09,0-2.484-1.7-3.58-4.105-.876-6.31-.852-2.444-.7-5.621.852-6.209,7.891-3.044,11.189" transform="translate(-959.005 -481.063)" fill="#eac7c7"/>
      <path id="Path_6111" data-name="Path 6111" d="M1150.184,618.047a12.458,12.458,0,0,0,6.294.445c3.708-.621,6.927,1.389,5.7,5.666s-3.613,8.643-12.472,6.627.473-12.737.473-12.737" transform="translate(-913.779 -492.854)" fill="#efbebd"/>
      <path id="Path_6112" data-name="Path 6112" d="M1165.839,616.712a15.456,15.456,0,0,0,7.67.609c4.123-.774,4,5.766,1.695,8.666s-6.565,3.63-10.46,3.021c0,0,8.17,2.922,12.059-4.261s-.737-9.253-4.39-8.887-4.139,1.583-6.574.852" transform="translate(-928.811 -491.078)" fill="#cc8d8d"/>
      <path id="Path_6113" data-name="Path 6113" d="M871.192,353.14s-6.8-7.878-15.987-5.869-14.119,1.587-18.867-2.95c0,0-6.209-9.285-18.262-3.989s-20.27,14.244-17.531,15.7,5.479-1.461,8.218.913,4.565,5.278,3.287,11.5-3.427,19,10.065,18.819,60.191-25.333,49.077-34.124" transform="translate(-637.963 -270.092)" fill="#d61a07"/>
      <path id="Path_6114" data-name="Path 6114" d="M828.46,389.386s14.609-5.369,17.349,2.611.365,17.185,6.574,19.979,12.749,5.161,19.158,3.977c0,0-21.123,10.5-27.719,10.321s-5.317-7.048-4.222-14.3,3.47-11.633-1.826-15.833-13.7-3.652-9.313-6.757" transform="translate(-659.67 -309.103)" fill="#b71408"/>
      <path id="Path_6115" data-name="Path 6115" d="M967.589,415.083s.244-5.6-7.183-5.844-11.566,6.818-11.566,6.818-12.223-2.678-17.129,2.557-4.541,9.983-4.541,9.983-4.626-1.1-10.227,2.313-9.861,11.079-6.818,15.827,4.992,4.5,4.992,4.5a16,16,0,0,0,3.287,5.113c2.07,1.948,11.687,2.922,15.461-2.556s4.2-7.792,4.2-7.792a42.125,42.125,0,0,0,10.049-1.1c6.7-1.339,10.713-11.347,10.713-11.347s7.654-.063,10.941-2.412,6.9-7.059,5.008-11.564a7.355,7.355,0,0,0-7.183-4.5" transform="translate(-724.961 -326.339)" fill="#f9e9f1"/>
      <path id="Path_6116" data-name="Path 6116" d="M765.861,399.447s5.661.548,6.026-5.844.769-6.026-3.816-7.853-2.393-2.8-4.95-2.68-13.879,15.1,2.739,16.376" transform="translate(-603.645 -305.467)" fill="#f9e9f1"/>
      <path id="Path_6117" data-name="Path 6117" d="M1160.714,543.322s-3.222-6.61.333-9.721,7.308-5.222,7.959-4.166-3.765,2.923-6.181,3.888-3.777,5.5-2.111,10" transform="translate(-924.531 -421.972)" fill="#cc8d8d"/>
      <path id="Path_6118" data-name="Path 6118" d="M1177.368,544.89c0,.905-2.236,1.432-3.68,1.667-1.06.172-3.319,3.4-3.319,2.5s2.245-4.166,3.319-4.166,3.68-.905,3.68,0" transform="translate(-933.297 -434.196)" fill="#cc8d8d"/>
      <path id="Path_6119" data-name="Path 6119" d="M1071.61,608.157c.767.48-2.819.953-3.389,1.864s-3.01,3.424-3.777,2.944,1.486-2.9,2.055-3.813,4.343-1.475,5.111-.995" transform="translate(-848.703 -484.829)" fill="#cc8d8d"/>
      <path id="Path_6120" data-name="Path 6120" d="M1033.7,601.346c.333-.6,5.833-6.77,10.665-7.6s8.166,4.326,8.166,4.326-4.251-3.031-8.332-2.77-8.353,7.277-9.7,7.332-.8-1.285-.8-1.285" transform="translate(-824.225 -473.401)" fill="#cc8d8d"/>
      <path id="Path_6121" data-name="Path 6121" d="M1032.763,575.207s2.7,3.406-.611,4.111-3.555,3.277-4.5,4.611-5.93,4.447-7.853,2.724-.59-6.223,2.854-8.778,5.11-1.76,6.221-3.241,3.611-1.258,3.888.575" transform="translate(-812.522 -457.458)" fill="#eac7c7"/>
      <path id="Path_6122" data-name="Path 6122" d="M1138.873,519.3c-1.321.44.3,3.856,2.444,3.555s2.937-2.6,5.246-4.355,3.809-.589,5.475-1.756,2.666-4.61-1.167-4.333-3.635,1.257-4.625.757-4.152,1.217-5.152,2.661-.222,2.8-2.222,3.469" transform="translate(-907.8 -408.601)" fill="#eac7c7"/>
      <path id="Path_6123" data-name="Path 6123" d="M518.979,1030.181s-15.705,23.474-9.131,40.64,30.532,55.516,3.761,69.76-199.389,11.322-220.641,8.766-58.872-25.516-53.028-76.126,31.343-77.582-4.383-118.93c0,0,42.513,41.288,65.632,44.76s51.092,3.472,62.855,10.777,26,28.037,34.04,51.638,31.254,37.479,44.481,38.94,29.3-1.461,44.418-23.74c7.5-11.062,31.995-46.483,31.995-46.483" transform="translate(-187.843 -760.987)" fill="#b71408"/>
      <path id="Path_6124" data-name="Path 6124" d="M29.454,863.764s10.592,14.193-12.418,17.516-23.01-33.416,1.826-38.421,54.42-2.125,71.586,20.905,20.736,36.658,42.687,41.348,58.281-.055,70.8,31.72,11.753,45.581,31.128,55.844,44.576,10.962,61.377-26.641,42.367-49.656,59.9-43.081S385.556,944.6,377.887,965s-30.68,15.829-33.967,4.787,10.957-17.973,14.609-10.856,10.227-5.073,7.3-13.222-20.8-10.843-30.123,0-7.892,9.2-16.261,24.077-9.861,24.385-24.471,35.342-49.907,22.644-76.451-5.479-11.2-60.629-45.9-75.969-53.63-4.138-70.578-5.6c-31.688-2.733-37.531-26.254-47.758-41.189s-24.836-13.13-24.836-13.13" transform="translate(0 -670.461)" fill="#f7ca11"/>
      <path id="Path_6125" data-name="Path 6125" d="M68.471,910.957c-1.978-.328-9.861-.852-10.957,4.261s.548,6.757,3.47,7.67,5.113-1.278,4.931-4.383,6.859-4.227,9.131,1.075c0,0,11.115-2.238,21.258,8.713s12.283,24.232,22.373,32.862c18.46,15.788,27.88,13.414,44.719,13.414s47.336,2,56.1,7.668,20.619,13.136,24.919,31.131S255.8,1052.3,272.8,1063.1s38.453,16.47,57.675,5.147,31.033-25.313,36.357-37.656,12.5-37.655,28.912-36.157,17.155,11.8,16,15.266-3.243,11.806-7.626,5.045c0,0-4.2-.826-3.652,3.42s10.592,7.533,16.436-1.781-2.922-25.283-13.148-26.873-18.262,0-27.027,10.986c-6.388,8.005-30.834,49.475-50.327,62.272-20.124,13.212-44.633,11.112-59.973-8.4s-18.079-43.3-27.027-58.9-27.014-27.292-50.755-27.84-60.751-1.176-76.347-23.011-31.486-31.614-43.828-33.662" transform="translate(-45.591 -726.277)" fill="#f4a414"/>
      <path id="Path_6126" data-name="Path 6126" d="M333.388,1237.476s7.67,16.8,0,31.958-14.244,31.354-11.687,49.187c0,0,.365-15.629,7.3-21.977,0,0-6.272,46.75,20.088,58.072,14.724,6.324,27.668,5.844,40.131,2.557s44.809-7.3,48.256,3.653-11.8,9.542-17.166,2.191c0,0,7.67,16.435,19.927,9.5,11.4-6.456,2.718-25.932-22.1-25.2-13.243.39-28.918,2.191-28.918,2.191s17.293-13.879,13.6-26.662-16.691-23.1-30.645-17.757-10.119,26.34,3.583,24.331a14.323,14.323,0,0,0,7.654-3.287s-9.947,3.287-11.178-3.652,15.493-13.863,22.355-3.954c5.268,7.607,1.847,21.676-11.178,30.251-8.875,5.844-32.409,1.461-41.766-21.184s1.568-55.463,1.568-55.463,11.719,24.709,5.145,36.8c0,0,12.921-13.874,12.852-26.641s-3.078-13.245-3.078-13.245,18.379,8.062,22.565,18.149c0,0-.052-18.673-11.265-23.833,0,0,43.682-11.2,54.219,10.446s-11.465,39.909-20.833,25.143,17.923-19.378,11.281-5.865c0,0,8.589-5.026-1.914-14.477s-25.057,7.318-17.6,21.578,37.7,18.341,43.983-12.992c0,29.136,11.082,49.216,31.775,64.141,19.749,14.244,32.925,13.148,47.507,10.227s25.89-8.853,32.2-18.992c8.429-13.554,27.279-7.678,20.352,3.287-4.6,7.278-10.938,3.287-10.938,3.287s-3.92,6.209,1.693,8.766,18.4-.365,15.839-15.7-19.472-15.464-31.228-1.461a51.686,51.686,0,0,1-27.913,16.8s10.625-4.748,10.777-15.705c0,0-5.217,18.272-26.692,16.8-12.718-.871-33.506-12.053-42.958-27.758,0,0,8.974,5.542,21.592-2.557,0,0-19.5,1.826-26-4.018s-8.476-20.809-8.769-31.223-10.154-35.98-33.894-38.9c0,0,14.609-4.681,26.3,1.677,0,0-21.493-13.365-43.617-7.521s-50.149,5.936-61.2-10.957" transform="translate(-256.088 -986.811)" fill="#c96565"/>
      <path id="Path_6127" data-name="Path 6127" d="M476.1,1850.5c-10.409-13.7-23.558-25.475-30.132-35.336s-8.492-20.271,2.191-27.392,14.71,1.773,10.409,7.944c-4.2,6.026-12.053.457-7.944-3.561-4.883,2.034-6.9,9.347-3.561,14.127,3.4,4.874,14.269,7.265,21.184-4.9,13.7-24.105-26.388-31.958-30.771-6.483s18.627,35.884,30.064,50.4,2.26,36.158-17.189,37.8c-3.042.257-11.877.461-24.742.605a12.663,12.663,0,0,0,3.057-7.127c-.314,1.557-2.787,8.056-22.142,5.152-21.914-3.287-41.91-54.511-34.514-63.825a26.272,26.272,0,0,1,3.42-3.6c8.552.208,14.076.488,15.27.861,7.881,2.465,5.988,6.848,3.373,8.491,0,0,6.973,1.644,8.89-6.848s-3.964-11.6-27.438-10.526-178.553,2.583-194.167,1.213-35.336-4.931-32.049,10.409,17.257,5.752,17.257,5.752-5.753-.274-6.848-4.931,4.931-6.574,15.614-5.478c1.073.11,4.027.192,8.477.254.007,0,5.493.026,5.767,10.429s-21.5,54.151-38.076,52.959c-13.97-1-9.211-10.963-8.492-11.5-.776.582-8.212,8.218-2.4,14.565-31.966-4.314-25.268-20.135-25.268-20.135-16.435,19.175,3.835,30.68,30.406,31.5s211.2,1.37,244.068,2.192,75.055-2.192,86.286-9.547,10.409-19.764,0-33.46m-108.034-16.984c3.479,21.032,8.471,42.49-6.738,50.441-21.364-.012-44.752-.1-68.094-.263-5.374-3.3-10.932-10.586-11.072-26.621-.256-29.195,5.474-40.979,18.309-43.365,19.578.031,38.366.1,53.7.258,5.614,2.164,11.877,7.324,13.9,19.55m-188.353,34.241c2.739-17.805,18.9-48.734,28.214-51.411,5.932-1.7,14.307-2.392,19.608-2.667,10.038.006,20.951,0,32.216,0a15.866,15.866,0,0,1,13.1,11.615c4.027,13.03.471,47.533-17.4,58.055-24.839-.277-48.266-.653-67.56-1.137-5.185-2.568-9.332-6.958-8.178-14.46" transform="translate(-87.256 -1418.769)" fill="#f7ca11"/>
      <path id="Path_6128" data-name="Path 6128" d="M1685.454,2258.793a2.239,2.239,0,0,0,.046-.327c-.014.111-.03.219-.046.327" transform="translate(-1344.046 -1800.987)" fill="#f7ca11"/>
      <path id="Path_6129" data-name="Path 6129" d="M640.083,1939.311s-143.479-.146-182.619,1.644a11.385,11.385,0,0,0-9.96,6.907c-5.99,14.054-19.888,46.732-22.452,53.356-3.287,8.491.822,12.326,11.779,12.6s65.59-.152,68.633,0,11.224-12.751,13.2-17.47c0,0-8.837,14.289-12.4,14.714-5.065.6-64.138-.591-67.56-1.136-2.882-.46-9.943-6.79-8.178-14.46,1.971-8.564,14.005-38.009,21.575-46.307s34.61-8.465,52.263-7.741,130.388.6,135.015.6,11.865,5.3,5.506,9.344a5.76,5.76,0,0,0,4.355-5.57c.243-4.748-3.592-5.9-9.161-6.483" transform="translate(-338.074 -1546.479)" fill="#f4a414"/>
      <path id="Path_6130" data-name="Path 6130" d="M953.815,1951.26s-7.061,8.887-9.74,27.879,0,35.428,3.409,38.228,7.061,3.415,12.174,3.594,65.62.429,68.3,0,7.307-10.472,7.885-16.526c0,0-2.285,12.471-11.416,13.676s-64.341.2-66.351-.744c-8.759-4.128-13.879-16.557-10.6-41.272,2.6-19.623,6.774-21.542,9.907-24.345a15.615,15.615,0,0,1,7.8-3.283s-6.743-1.711-11.369,2.794" transform="translate(-751.971 -1553.527)" fill="#f4a414"/>
      <path id="Path_6131" data-name="Path 6131" d="M1397.667,1837.347s-3.958,1.965-4.968,9.083,9.866,35.412,19.586,47.38,25.326,12.84,30.192,11.357,6.828-2.389,8.427-5.546c0,0,.506,4.993-3.057,7.127,0,0,26.9-.877,34.039-3.206s18.325-22.6,7.893-35.2-20.394-15.965-27.648-30.993-1.174-26.414,2.038-29.289c0,0-14.366,20.888,6.413,38.916s35.569,36.158,23.446,50.219-31.5,11.328-46.373,12.056-26.744.728-33.5-4.386-21.467-41.271-22.6-52.594,2.411-15.516,2.411-15.516Z" transform="translate(-1109.495 -1441.815)" fill="#f4a414"/>
      <path id="Path_6132" data-name="Path 6132" d="M1788.866,1808.368a7.066,7.066,0,0,1,7.959,4.33c4.565,10.409-7.794,13.554-11.87,10.227-4.474-3.652.274-7.578.274-7.578s-.4,5.558,4.344,5.547c3.879-.009,4.9-4.027,4.33-7.921-.295-2-1.4-4.186-5.037-4.6" transform="translate(-1421.86 -1441.962)" fill="#f4a414"/>
      <path id="Path_6133" data-name="Path 6133" d="M3451.979,1931.033s-9.063,3.956-10.875,6.39.989,13.084,1.318,15.975,6.261,9.889,6.261,9.889,1.483-.608,1.977-3.956,7.25-11.819,7.25-11.819,9.063-15.414-5.932-16.479" transform="translate(-2743.584 -1539.88)" fill="#263720"/>
      <path id="Path_6134" data-name="Path 6134" d="M3339.15,2198.539a22.142,22.142,0,0,0-4.709,19.008,96.479,96.479,0,0,0,27.352,1.978c11.584-.725,8.074-2.739,8.074-2.739s-5.932-3.651-8.4-6.694-5.437-11.554-5.437-11.554-10.025-4.251-16.876,0" transform="translate(-2658.578 -1751.693)" fill="#263720"/>
      <path id="Path_6135" data-name="Path 6135" d="M2514.286,2194.771s-4.119,18.865,0,20.843,25.046,2.086,29.495,1.576,4.943-.663,4.614-1.88-10.216-8.064-11.864-11.563a31.465,31.465,0,0,0-7.415-9.64c-2.307-1.771-14.83.663-14.83.663" transform="translate(-2003.527 -1749.151)" fill="#263720"/>
      <path id="Path_6136" data-name="Path 6136" d="M2630.4,2106.888s-3.639,16.665,0,18.412,22.125,1.843,26.054,1.392,4.366-.585,4.076-1.661-9.024-7.123-10.48-10.214a27.793,27.793,0,0,0-6.55-8.515c-2.038-1.565-13.1.586-13.1.586" transform="translate(-2096.288 -1679.191)" fill="#263720"/>
      <path id="Path_6137" data-name="Path 6137" d="M3290.785,138.521s-12.336-10.853-3.438-20.286,7.36-11.462,23.343-19.424c11.624-5.79,7.085-15.671,5.437-18.1,0,0,1.923,10.6-2.526,13.794s-11.314,5.68-18.235,10.041a59.241,59.241,0,0,0-10.051,8.723,36.156,36.156,0,0,0-11.2-28.6c-13.182-12.476-6.06-27.994,3.478-27.994,0,0-18.85,1.065-12.564,20.844,0,0-8.544.913-11.84-7.3s-5.273-21.908,2.966-30.276c0,0-10.051,7.3-9.227,22.213a45.716,45.716,0,0,0,1.483,4.869s-5.932-4.716-5.437-11.715c0,0-2.307,8.977,2.307,12.628,0,0-4.614,1.521-14.006-3.651s-21.585-26.625-13.017-40.013,9.227-11.106,9.227-11.106-19.443,9.281-15.489,35.753,35.262,26.855,35.262,26.855-9.063,6.16-15.489,4.638a59.5,59.5,0,0,0-9.722-1.674s8.4,7.911,25.869,1.826,30.978,19.018,26.035,23.886c0,0-8.074-9.889-25.705-6.846s-26.364,1.217-33.119-4.564-6.1-15.518-6.1-15.518-2.966,14.3,8.9,21.908,25.1,4.716,34.053,4.716,20.872,5.68,22.464,13.693,1.813,11.411,2.472,14.453,6.3,5.837,13.874,6.238" transform="translate(-2558.736 -10.373)" fill="#916037"/>
      <path id="Path_6138" data-name="Path 6138" d="M2717.879,597.47c-9.887.766-18.784-4.252-23.728-16.349s-19.279-17.776-33.614-19.957a20.354,20.354,0,0,0-3.237-.206,27.482,27.482,0,0,1-2.906-4.866c-4.073-8.52-16.23-7.3-16.23-7.3s-4.265,9.26-.862,17.665c-14.066,7.118-27.718,21.314-26.2,43.563,2.472,36.142,4.943,48.922-6.426,54.4s-35.1,9.991-61.791-2.536-70.194-23.481-87,2.536-6.426,53.964,0,67.6a162.709,162.709,0,0,1,9.887,28.687s-12.786,30.6-19,35.16-10.842,7.3-8.28,10.954,8,13.236,8,15.975,7.415,42.9,7.415,45.643,0,14.149-1.483,15.518,4.944,0,4.944,0,4.943,3.651,6.426,4.108-.495-5.021-.495-5.021,5.932,3.195,11.37,3.195c0,0-3.46-5.477-7.415-11.867s-10.875-59.335-11.37-63.9l-.494-4.564,2.966-6.846s1.09-.6,2.909-1.589c-1.192,1.96-1.494,3.844-.437,5.529,2.471,3.941,2.471,2.906,8.4,17.055s7.909,36.971,7.909,41.991-1.977,5.477-1.977,5.477l6.426-.457,7.415,2.282c2.966.913,7.79.529,7.79.529-1.214.4-2.673-8.479-4.421-10.271-5.075-5.2-13.75-57.353-13.75-57.353l.989-2.282c.989-2.282,25.7-15.975,39.546-25.947,9.912-7.141,19.569-21.409,24.254-28.936,6.79,4.481,19.912,11.18,32.593,13.348,13.346,2.282,41.029-2.61,41.029-2.61s0,18.773-2.472,25.069S2608,800.36,2608.139,803c.154,2.873,5.932,6.1,5.932,6.1s3.46,15.062,3.46,19.17,9.886,30.124,8.9,36.514-6.2,22.12-6.2,22.12l7.681-2.95s6.2,4.685,8.935,1.124c2.128-2.766,6.883,1.158,6.883,1.158s-4.448-5.477-1.977-10.954-6.426-15.3-7.909-24.081-9.989-45.612-7.909-47.687a4.071,4.071,0,0,0,1.235-2.976c.365-3.652-4.2-1.935.248-8.781s17.8-20.539,17.8-20.539l.65-.935a61.161,61.161,0,0,0,15.169,1.391c10.381-.456,28.671,2.351,28.671,2.351s-1.977,4.5-5.02,10.321-12.282,31.145-13.765,33.427-2.966,6.846-8.9,7.3a26.215,26.215,0,0,0-10.875,3.651l5.932,2.739a38.564,38.564,0,0,1,1.483,5.521c.494,2.782-.624,10.57-.624,10.57a19.233,19.233,0,0,1,6.847-5.66c4.559-2.282,9.1-10.43,12.066-15.451s22.739-35.145,26.2-38.34,10.875-9.129,14.335-9.683-4.943-13.6-4.943-13.6h-13.346s-26.694-17.344-33.12-24.142h0c4.921-7.464,9.012-13.953,9.886-16.164a46.11,46.11,0,0,0,2.966-10.813,82.207,82.207,0,0,0,3.461-28.812c-.989-15.917-10.381-30.723-13.347-44.316s-10.38-17.061-3.954-27.194c0,0,13.347-.329,19.279-2.036s11.864,7.753,18.784,8.729,13.841-3.454,13.841-3.454,8.4-1.673,10.875-6.609,0-13.314-9.886-12.548" transform="translate(-1943.976 -437.578)" fill="#ca8b4e"/>
      <path id="Path_6139" data-name="Path 6139" d="M3327.374,1423.295s.659,15.519,13.841,24.951,19.773,16.06,36.909,16.55,25.375,3.062,23.728,6.645-16.676,31.707-22.843,40.751l17.405-40.751s-13.327-1.753-17.594-2.021-21.458,1.039-33.981-2.917-20.1-13.033-20.761-21.883,3.3-21.326,3.3-21.326" transform="translate(-2650.688 -1134.99)" fill="#263720"/>
      <path id="Path_6140" data-name="Path 6140" d="M3444.761,765.617s1.318,10.949,11.864,13.206,17.466,4.266,26.694,3.413,10.639,3.981,19.114,7.346,12.523,0,12.523,0-7.25.2-7.25-3.238a25.007,25.007,0,0,0,11.864,1.734,22.022,22.022,0,0,0,11.2-5.105s-3.841,6.706-10.875,6.609c0,0-4.614,4.457-13.841,3.454s-10.381-6.632-16.807-7.849-9.45.512-16.342.941-27.983-2.654-28.147-20.511" transform="translate(-2746.984 -610.532)" fill="#263720"/>
      <path id="Path_6141" data-name="Path 6141" d="M3359.945,835.208c-.138.438-6.756,20.387-2.142,34.841s12.724,17.648,12.724,17.648-5.968-6.542-2.838-10.5,2.838-7.455,2.838-7.455,4.577,5.325,3.589,9.889,2.636,13.845,5.767,16.279,8.714,7.759,8.714,7.759-3.606-4.869-1.135-7.151,6.261,3.2,5.767,7.151.165,6.542,4.449,11.259,12.583,13.3,9.332,18.685-4.19,6.867-4.19,6.867a15.471,15.471,0,0,0,9.029-9.262c2.307-7.01,2.142-11.269,0-16.29,0,0,3.954,1.674,3.625,3.8,0,0,2.636-12.476,1.648-16.583s.165-2.739,0-5.021-1.24-16.393-3.668-20.292-19.071-27.633-21.542-38.74a19.265,19.265,0,0,1,5.438-18.013s-18.921-1.095-21.159-12.156c0,0-14.521,21.783-16.244,27.278" transform="translate(-2676.338 -644.274)" fill="#f9e2aa"/>
      <path id="Path_6142" data-name="Path 6142" d="M3439.741,891.595s-.165-15.613-3.46-24.133-12.358-21.452-14.17-26.321-5.6-15.792.329-21.056c0,0-16.778-1.7-21.159-12.156,0,0-15.585,15.259-13.444,28.343s4.284,17.04,4.284,17.04.732-7.911,3.5-9.433.531,2.282,0,6.542,1.776,12.476,6.885,14.606,6.92,4.412,6.92,4.412-4.614-3.2-2.8-6.542,3.3-3.956,3.3-3.956-2.142,8.216,2.307,11.563,12.853,8.216,13.017,10.346a31.289,31.289,0,0,1-1.812-9.281c0-4.412,2.966-5.477,2.966-5.477s-.494,6.846,3.625,11.107,9.6,7.805,9.722,14.4" transform="translate(-2701.429 -644.274)" fill="#fdf8ee"/>
      <path id="Path_6143" data-name="Path 6143" d="M2873.858,1365.461s8.156,23.276,25.7,30.237,54.349,9.278,57.946,8.234l1.566,3.192s-3.289.922-17.572,2.038-30.9,3.617-50.387-7.719-21.707-10.423-28.38-7.456c0,0,11.863-16.66,11.122-28.527" transform="translate(-2282.855 -1088.871)" fill="#263720"/>
      <path id="Path_6144" data-name="Path 6144" d="M2733.995,1501.878c-4.293-2.1-9.481.7-9.6,5.185-.108,3.929-.809,9.5-3.591,13.155-4.7,6.177-31.59,31.325-38.534,33.7,0,0,28.895-16.75,38.287-24.076s17.613-19.188,17.828-25.238a26.876,26.876,0,0,0-4.385-2.725" transform="translate(-2138.94 -1197.088)" fill="#263720"/>
      <path id="Path_6145" data-name="Path 6145" d="M2604.886,1336.857s-15.571,49.066-28.424,57.282-37.074,23.734-37.074,23.734,34.356-19.626,42.512-22.821,25.819-37.125,28.357-42.456,9.458-13.918,6.492-27.87c0,0-8.773,3.044-11.864,12.131" transform="translate(-2025.005 -1056.387)" fill="#263720"/>
      <path id="Path_6146" data-name="Path 6146" d="M3229.128,125.514s-12.336-10.853-3.438-20.286,7.36-11.462,23.343-19.424c11.624-5.79,7.085-15.671,5.438-18.1,0,0,1.922,10.6-2.526,13.794s-11.314,5.68-18.235,10.041a59.251,59.251,0,0,0-10.051,8.723,36.155,36.155,0,0,0-11.2-28.6c-13.182-12.476-6.06-27.994,3.479-27.994,0,0-18.85,1.065-12.565,20.844,0,0-8.544.913-11.84-7.3s-5.273-21.908,2.966-30.276c0,0-10.051,7.3-9.227,22.213a45.776,45.776,0,0,0,1.483,4.869s-5.932-4.716-5.437-11.715c0,0-2.307,8.977,2.307,12.628,0,0-4.614,1.521-14.006-3.651s-21.585-26.625-13.017-40.013S3165.822.148,3165.822.148s-19.443,9.281-15.489,35.754S3185.6,62.757,3185.6,62.757s-9.063,6.159-15.489,4.638a59.493,59.493,0,0,0-9.722-1.674s8.4,7.911,25.869,1.826,30.978,19.018,26.035,23.886c0,0-8.074-9.889-25.7-6.846s-26.364,1.217-33.12-4.564-6.1-15.518-6.1-15.518-2.966,14.3,8.9,21.908,25.1,4.716,34.053,4.716,20.872,5.68,22.464,13.693,1.813,11.41,2.472,14.453,6.3,5.837,13.873,6.238" transform="translate(-2509.568 -0.001)" fill="#ba8965"/>
      <path id="Path_6147" data-name="Path 6147" d="M3438.872,842.816a22.666,22.666,0,0,1-11.534-16.888c-1.812-12.323,5.369-18,5.369-18s2.136,6.8,11.648,9.477,10.819,2.407,10.819,2.407-5.212,7.011-2.934,12.345a183.521,183.521,0,0,0,10.195,19.48,12.614,12.614,0,0,1,1.977,7.3s-4.778-8.672-9.227-10.346-9.887-5.477-11.04-8.52-2.966-7.3-2.966-7.3-1.647,4.412-.494,6.694-3.3-.609-2.966,0-2.472,1.369,1.153,3.347" transform="translate(-2732.856 -644.274)" fill="#f7d685"/>
      <path id="Path_6148" data-name="Path 6148" d="M2457.973,1004.688s-5.854-15.266-19.443-5.9c-9.244,6.368-13.471-2.065-13.035-6.855-2.623,2.336-6.9,12.093,1.357,16.475,7.395,3.925,4.372,9.823.513,4.812-2.006-2.605-7.367.06-8.278-3.886,3.785,10.667,6.864,14.1,12.616,14.1a11.2,11.2,0,0,1-8.831-.2c1.23,3.62,1.475,3.957,4.448,7.66,3.629,4.519,8.382,3.252,12.736-2.123,3.215-3.968-2.005-15.331,17.916-24.087" transform="translate(-1929.073 -791.001)" fill="#f9e2aa"/>
      <path id="Path_6149" data-name="Path 6149" d="M3427.045,549.019s10.18,1.978,9.521,9.737a9.935,9.935,0,0,0,.676,4.7c1.6,3.888,6.6,5.534,10.545,3.527l3.609-1.835s-4.047-1.217-8.12-8.824-16.23-7.3-16.23-7.3" transform="translate(-2732.856 -437.808)" fill="#fdf8ee"/>
      <path id="Path_6150" data-name="Path 6150" d="M3426.3,565.55a37.422,37.422,0,0,0-1.1,6.762c-.27,3.9.073,8.632,2.583,11.8h5.108s-8.4-6.086-6.591-18.561" transform="translate(-2731.321 -450.991)" fill="#263720"/>
      <path id="Path_6151" data-name="Path 6151" d="M3479.469,557.037s2.7.814,5.611,5.68,3.616,7.506,8.12,8.824l2.746-.406a8.915,8.915,0,0,1-7.579-4.463c-3.076-4.767-4.174-7-8.9-9.636" transform="translate(-2774.661 -444.203)" fill="#263720"/>
      <path id="Path_6152" data-name="Path 6152" d="M3552.375,689.194c-1.212.062,12.193.71,15.049,6.288s3.625,6.289,3.625,6.289a1.25,1.25,0,0,1-1.428,0c-.769-.507-3.043-4.159-5.312-6.8s-7.98-5.984-11.935-5.781" transform="translate(-2832.738 -549.583)" fill="#263720"/>
      <path id="Path_6153" data-name="Path 6153" d="M3580.633,704.185s-2.966,3.246-1.1,6.39,6.371,4.666,11.314,2.637c0,0-1.428-3.441-1.867-4.053s-1.208,1.315-2.2,1.416-5.822-.2-4.723-2.739,3.477-3.246,3.477-2.333c0,0-1.06-3.347-4.9-1.318" transform="translate(-2853.965 -561.023)" fill="#263720"/>
      <path id="Path_6154" data-name="Path 6154" d="M3325.219,670.211a17.609,17.609,0,0,1-7.8,7.607c-5.492,2.637-8.9,14.2-8.9,19.474s4.174,6.492,0,13.794-7.469,8.621-7.469,8.621a24.146,24.146,0,0,0,1.648-13.693c-1.208-8.216,5.712-28.907,13.951-33.269s8.568-2.536,8.568-2.536" transform="translate(-2632.385 -534.15)" fill="#f9e2aa"/>
      <path id="Path_6155" data-name="Path 6155" d="M3844.567,782.988s-4.614,1.826-1.978,6.694a29.99,29.99,0,0,0,4.779,6.914s.494-1.285,3.46-1.741,10.545-14.3-6.261-11.867" transform="translate(-3063.579 -624.156)" fill="#b14644"/>
      <path id="Path_6156" data-name="Path 6156" d="M3623.24,1083.487s2.722,6.292,2.953,8.924,3.9-.962,3.9-.962-2.5-9.394-4.749-9.85c-1.71-.347-2.1,1.888-2.1,1.888" transform="translate(-2889.31 -862.479)" fill="#a42825"/>
      <path id="Path_6157" data-name="Path 6157" d="M3277.041,924.7s-4.775-2.9-5.764,0,2.882,8.073,2.882,8.073l3.27,2.13Z" transform="translate(-2608.512 -736.366)" fill="#a42825"/>
      <path id="Path_6158" data-name="Path 6158" d="M3271.347,922.459s-4.775-2.576-5.928-1.664-1.318,1.826-.824,4.564-.525,7.911-.263,10.194,4.711,9.889,13.445,15.062,28.365,18.957,36.745,20.844c13.385,3.013,25.9.885,28.176-2.739,2.529-4.03,3.3-5.773,2.8-7.375s-3.625-5.405-4.119-6.775-3.955-1.826-2.966-.761,1.592,1.212,1.538,2.584-3.047,4.727-11.932,4.951-21.078-3.732-29.316-7.079-22.409-18.257-24.882-21.452-8.733-8.869-6.755-9.532,4.454,1.6,4.454,1.6Z" transform="translate(-2603.068 -734.122)" fill="#b14644"/>
      <path id="Path_6159" data-name="Path 6159" d="M3557.136,1155.687c0-3.7-3.372-6.707-7.531-6.707s-7.531,3-7.531,6.707,3.372,6.707,7.531,6.707v-1.445s-1.022.249-.94-.282,1.978-.863,2.508-.155c.366.489-.86.437-.86.437l.08,1.408c3.789-.351,6.743-3.2,6.743-6.67" transform="translate(-2824.585 -916.241)" fill="#a9b051"/>
      <path id="Path_6160" data-name="Path 6160" d="M3580.042,1224.675l0-.042a7.444,7.444,0,0,1-.788.042Z" transform="translate(-2854.232 -976.569)" fill="#a9b051"/>
      <path id="Path_6161" data-name="Path 6161" d="M3574.667,1143.291a1.57,1.57,0,1,1-1.565-1.445,1.509,1.509,0,0,1,1.565,1.445" transform="translate(-2848.079 -910.552)" fill="#ca8b4e"/>
      <path id="Path_6162" data-name="Path 6162" d="M3538.633,1178.539c0,.008,0,.017,0,.025a.938.938,0,0,0,.665.851c1.709.588,6.891,1.889,15.463-.066a.95.95,0,0,0,.782-.93c0-.03,0-.06,0-.09a1.015,1.015,0,0,0-1.271-.845c-2.3.5-8.553,1.587-14.323.148a1.015,1.015,0,0,0-1.314.907" transform="translate(-2821.841 -938.949)" fill="#ca8b4e"/>
      <path id="Path_6163" data-name="Path 6163" d="M3651.791,1130.742c-2.086-3.164-6.657-4.109-10.21-2.112s-4.741,6.181-2.655,9.345,6.658,4.109,10.21,2.112l-.814-1.234s-.733.7-.961.211,1.2-1.687,2.054-1.337c.588.242-.489.786-.489.786l.862,1.164a6.476,6.476,0,0,0,2-8.935" transform="translate(-2900.998 -899.178)" fill="#a9b051"/>
      <path id="Path_6164" data-name="Path 6164" d="M3699.483,1195.535l-.025-.035a6.924,6.924,0,0,1-.65.414Z" transform="translate(-2949.571 -953.338)" fill="#a9b051"/>
      <path id="Path_6165" data-name="Path 6165" d="M3651.264,1126.3a1.383,1.383,0,0,1-.523,1.986,1.641,1.641,0,0,1-2.151-.482,1.384,1.384,0,0,1,.523-1.986,1.642,1.642,0,0,1,2.151.483" transform="translate(-2909.343 -897.604)" fill="#ca8b4e"/>
      <path id="Path_6166" data-name="Path 6166" d="M3639.837,1146.925l.014.021a1.043,1.043,0,0,0,1.048.407c1.791-.318,6.949-1.7,13.17-7.482a.881.881,0,0,0,.144-1.17l-.054-.075a1.079,1.079,0,0,0-1.561-.112c-1.681,1.531-6.412,5.463-12.151,7a.929.929,0,0,0-.611,1.406" transform="translate(-2902.424 -907.672)" fill="#ca8b4e"/>
      <path id="Path_6167" data-name="Path 6167" d="M3421.259,1135.568c1.913-3.256.5-7.38-3.156-9.211s-8.17-.677-10.083,2.579-.5,7.38,3.156,9.211l.746-1.27s-1.027-.231-.681-.662,2.184.112,2.285.968c.069.591-.981.005-.981.005l-.657,1.273a7.677,7.677,0,0,0,9.372-2.894" transform="translate(-2717.005 -897.507)" fill="#a9b051"/>
      <path id="Path_6168" data-name="Path 6168" d="M3422.674,1196.808l.02-.038a7.184,7.184,0,0,1-.715-.31Z" transform="translate(-2728.817 -954.103)" fill="#a9b051"/>
      <path id="Path_6169" data-name="Path 6169" d="M3456.38,1124.784a1.634,1.634,0,0,1-2.123.581,1.391,1.391,0,0,1-.629-1.96,1.634,1.634,0,0,1,2.123-.581,1.391,1.391,0,0,1,.629,1.96" transform="translate(-2753.904 -895.243)" fill="#ca8b4e"/>
      <path id="Path_6170" data-name="Path 6170" d="M3407.5,1139.688l-.013.023a.873.873,0,0,0,.146,1.041c1.2,1.27,5.081,4.694,13.626,6.75a1.043,1.043,0,0,0,1.168-.473l.042-.081a.932.932,0,0,0-.68-1.3c-2.278-.573-8.338-2.371-12.667-6.177a1.077,1.077,0,0,0-1.623.219" transform="translate(-2717.175 -908.439)" fill="#ca8b4e"/>
      <path id="Path_6171" data-name="Path 6171" d="M3382.481,1074.268a1.761,1.761,0,1,1-1.755-1.62,1.692,1.692,0,0,1,1.755,1.62" transform="translate(-2694.521 -855.371)" fill="#ca8b4e"/>
      <path id="Path_6172" data-name="Path 6172" d="M3315.236,1026.7a1.76,1.76,0,1,1-1.755-1.62,1.692,1.692,0,0,1,1.755,1.62" transform="translate(-2640.897 -817.437)" fill="#ca8b4e"/>
      <path id="Path_6173" data-name="Path 6173" d="M3274.625,978.63a1.76,1.76,0,1,1-1.755-1.62,1.692,1.692,0,0,1,1.755,1.62" transform="translate(-2608.512 -779.105)" fill="#ca8b4e"/>
      <path id="Path_6174" data-name="Path 6174" d="M3042.19,1568.36l6.192-1.369a104.442,104.442,0,0,1-13.453-3.754c-7.555-2.636-4.095,4.685-3.354,4.219s10.615.9,10.615.9" transform="translate(-2416.349 -1246.127)" fill="#a42825"/>
      <path id="Path_6175" data-name="Path 6175" d="M3045.762,1106.972s.33-4.419-2.966-6.244-8.239.913-14.5-1.674-9.227-1.978-9.227-1.978l-3.165,6.633s10.749,3.119,17.829,3.263,12.029,0,12.029,0" transform="translate(-2404.997 -874.801)" fill="#a42825"/>
      <path id="Path_6176" data-name="Path 6176" d="M2982.357,1102.261s-5.6,2.2-10.711,14.221-10.051,44.426-10.051,51.576,3.46,24.191,7.415,26.473,4.684,2.739,4.684,2.739a43.429,43.429,0,0,1-13.582-.9c-7.909-1.683-11.04-6.417-11.04-6.417a85.061,85.061,0,0,1-4.284-37.409c2.472-20.235,11.534-49.142,17.136-55.228a23.2,23.2,0,0,1,9.227,1.978c4.779,2.13,11.369-.3,14.5,1.673s2.966,6.245,2.966,6.245l-1.525-.026s-.782-5.754-4.737-4.921" transform="translate(-2347.853 -875.037)" fill="#b14644"/>
      <path id="Path_6177" data-name="Path 6177" d="M3057.289,1132.113a1.761,1.761,0,1,1-1.755-1.62,1.692,1.692,0,0,1,1.755,1.62" transform="translate(-2435.2 -901.499)" fill="#ca8b4e"/>
      <path id="Path_6178" data-name="Path 6178" d="M3023.124,1198.939a1.76,1.76,0,1,1-1.755-1.62,1.692,1.692,0,0,1,1.755,1.62" transform="translate(-2407.955 -954.788)" fill="#ca8b4e"/>
      <path id="Path_6179" data-name="Path 6179" d="M2998.5,1279.281a1.76,1.76,0,1,1-1.755-1.62,1.692,1.692,0,0,1,1.755,1.62" transform="translate(-2388.323 -1018.855)" fill="#ca8b4e"/>
      <path id="Path_6180" data-name="Path 6180" d="M2985.972,1359.082a1.761,1.761,0,1,1-1.756-1.62,1.692,1.692,0,0,1,1.756,1.62" transform="translate(-2378.329 -1082.492)" fill="#ca8b4e"/>
      <path id="Path_6181" data-name="Path 6181" d="M2983.692,1443.459a1.656,1.656,0,0,1-1.548,1.791,1.728,1.728,0,0,1-1.94-1.43,1.656,1.656,0,0,1,1.548-1.791,1.728,1.728,0,0,1,1.939,1.429" transform="translate(-2376.52 -1149.921)" fill="#ca8b4e"/>
      <path id="Path_6182" data-name="Path 6182" d="M2998.493,1528.019a1.656,1.656,0,0,1-1.548,1.791,1.728,1.728,0,0,1-1.939-1.429,1.655,1.655,0,0,1,1.548-1.791,1.728,1.728,0,0,1,1.939,1.429" transform="translate(-2388.323 -1217.353)" fill="#ca8b4e"/>
      <path id="Path_6183" data-name="Path 6183" d="M1835.939,935.957c-7.909,14.3-24.853,33.4-41.218,41.993-8.946,4.7-17.646,10.848-27.408,13.679a180.242,180.242,0,0,1-22.494,4.608c-23.527,3.663-47.368,5.505-71.128,6.822-28.63,1.587-57.342,2.155-86.009,1.4-28.276-.742-56.952-2.414-84.669-8.381-16.258-3.5-32.717-8.762-45.81-19.385-11.092-9-19.37-20.754-25.884-33.366a205.939,205.939,0,0,1-9.063-20.443c-2.007-5.2-4.155-10.822.212-15.391a38.351,38.351,0,0,1,7.153-5.438c2.305-1.486,5.119-2.678,6.33-5.29,1.959-4.225.526-9.533-.364-13.857-.112-.544-.377-1.927-.386-1.959.131.435-.014-.117,0-.108-.7-.461,1.631.379-.077.28-.542-.031-3.765,2.229-4.065,1.246.039.126.274.25.352.362a75.815,75.815,0,0,0,5.088,6.047q5.666,6.5,11.811,12.567a269.1,269.1,0,0,0,28.753,24.574,297.512,297.512,0,0,0,74.566,40.134,309.515,309.515,0,0,0,83.991,18.175l-1.861-5.737a320.238,320.238,0,0,1-62.308-11.66,296.252,296.252,0,0,1-80.6-37.915,269.084,269.084,0,0,1-31.119-24.357q-6.686-6.091-12.921-12.654c-3.943-4.161-7.489-8.638-11.318-12.889-1.444-1.6-4.054-2.408-5.388-.105-.857,1.48-.258,3.435.057,4.987a54.856,54.856,0,0,1,1.094,6.279c.147,1.734.168,3.9-.605,4.7a38.064,38.064,0,0,1-4.074,2.576c-1.452.94-2.893,1.9-4.275,2.941a22.805,22.805,0,0,0-6.066,6.18c-3.583,5.917-1.362,12.487.939,18.41,10.73,27.626,26.524,54.582,54.735,67.1,16.95,7.519,35.36,10.932,53.635,13.39,13,1.749,26.08,2.85,39.175,3.586,29.18,1.64,58.463,1.571,87.662.508,26.248-.956,52.525-2.666,78.6-5.883,16.663-2.055,34.036-3.945,49.316-11.337,13.392-6.479,27.525-13.041,37.712-23.848,9.384-9.956,16.094-17.942,24.069-31.034Z" transform="translate(-1127.852 -699.738)" fill="#d32d24"/>
    </g>
  </g>
</svg>
