<svg id="Group_2330" data-name="Group 2330" xmlns="http://www.w3.org/2000/svg" xmlns:xlink="http://www.w3.org/1999/xlink" width="189.474" height="246.448" viewBox="0 0 189.474 246.448">
  <defs>
    <clipPath id="clip-path">
      <rect id="Rectangle_994" data-name="Rectangle 994" width="189.474" height="246.448" fill="none"/>
    </clipPath>
    <clipPath id="clip-path-2">
      <path id="Path_5731" data-name="Path 5731" d="M33.963,33.964A92.371,92.371,0,0,0,164.595,164.6,92.371,92.371,0,0,0,33.963,33.964" transform="translate(-6.908 -6.909)" fill="none"/>
    </clipPath>
  </defs>
  <g id="Group_2325" data-name="Group 2325">
    <g id="Group_2324" data-name="Group 2324" clip-path="url(#clip-path)">
      <path id="Path_5729" data-name="Path 5729" d="M94.737,189.474A94.737,94.737,0,0,1,27.748,27.748,94.737,94.737,0,0,1,161.726,161.726a94.118,94.118,0,0,1-66.989,27.748m0-187.108A92.371,92.371,0,0,0,29.421,160.053,92.371,92.371,0,0,0,160.053,29.421,91.766,91.766,0,0,0,94.737,2.366" transform="translate(0)" fill="#fff"/>
    </g>
  </g>
  <g id="Group_2327" data-name="Group 2327" transform="translate(2.366 2.367)">
    <g id="Group_2326" data-name="Group 2326" clip-path="url(#clip-path-2)">
      <path id="Path_5730" data-name="Path 5730" d="M12.167,412.042s27.744-14.386,32.882-13.016,9.933,11.988,20.209,11.988,11.993-5.07,28.772-8.906c11.988-2.74,18.5,6.508,24.662,6.508s20.209-14.044,33.91-11.646,38.6-2.53,31.512,11.646c-1.713,3.425-29.457,44.871-81.864,44.871s-90.084-41.446-90.084-41.446" transform="translate(-10.366 -263.183)" fill="#fff"/>
    </g>
  </g>
  <g id="Group_2329" data-name="Group 2329">
    <g id="Group_2328" data-name="Group 2328" clip-path="url(#clip-path)">
      <rect id="Rectangle_995" data-name="Rectangle 995" width="175.716" height="56.517" transform="translate(6.422 189.931)" fill="#ffcb63"/>
      <rect id="Rectangle_996" data-name="Rectangle 996" width="131.53" height="33.91" transform="translate(28.515 163.899)" fill="#ffcb63"/>
      <rect id="Rectangle_997" data-name="Rectangle 997" width="0.594" height="12.154" transform="translate(55.696 35.723) rotate(-28.814)" fill="#fff"/>
      <path id="Path_5732" data-name="Path 5732" d="M174.921,130.327a.3.3,0,0,1-.294-.345l.363-2.226a.3.3,0,0,1,.389-.234l2.122.722a.3.3,0,0,1-.191.562l-1.79-.608-.306,1.879a.3.3,0,0,1-.293.249" transform="translate(-114.81 -83.832)" fill="#fff"/>
      <path id="Path_5733" data-name="Path 5733" d="M162.737,106.725a.3.3,0,0,1-.117-.024l-2.074-.885a.3.3,0,1,1,.233-.546l1.751.747.445-1.837a.3.3,0,0,1,.578.14l-.527,2.178a.3.3,0,0,1-.289.227" transform="translate(-105.436 -68.346)" fill="#fff"/>
      <path id="Path_5734" data-name="Path 5734" d="M162.039,100.806a.912.912,0,1,1-.913-.913.912.912,0,0,1,.913.913" transform="translate(-105.336 -65.678)" fill="#fff"/>
      <path id="Path_5735" data-name="Path 5735" d="M180.8,135.085a.912.912,0,1,1-.912-.912.913.913,0,0,1,.912.912" transform="translate(-117.671 -88.215)" fill="#fff"/>
      <rect id="Rectangle_998" data-name="Rectangle 998" width="0.594" height="12.154" transform="translate(52.784 41.332) rotate(-89.8)" fill="#fff"/>
      <path id="Path_5736" data-name="Path 5736" d="M183.127,118.386a.3.3,0,0,1-.184-.064l-1.771-1.4a.3.3,0,0,1-.016-.453l1.66-1.506a.3.3,0,0,1,.4.44l-1.4,1.27,1.5,1.179a.3.3,0,0,1-.184.531" transform="translate(-119.042 -75.536)" fill="#fff"/>
      <path id="Path_5737" data-name="Path 5737" d="M156.63,118.11a.3.3,0,0,1-.183-.532l1.5-1.169-1.391-1.28a.3.3,0,0,1,.4-.437l1.649,1.517a.3.3,0,0,1-.018.453l-1.78,1.385a.3.3,0,0,1-.182.063" transform="translate(-102.785 -75.356)" fill="#fff"/>
      <path id="Path_5738" data-name="Path 5738" d="M151.411,117.038a.912.912,0,1,1-1.24.355.912.912,0,0,1,1.24-.355" transform="translate(-98.658 -76.874)" fill="#fff"/>
      <path id="Path_5739" data-name="Path 5739" d="M190.487,117.258a.912.912,0,1,1-1.24.355.912.912,0,0,1,1.24-.355" transform="translate(-124.349 -77.018)" fill="#fff"/>
      <rect id="Rectangle_999" data-name="Rectangle 999" width="12.154" height="0.594" transform="translate(55.61 46.273) rotate(-59.682)" fill="#fff"/>
      <path id="Path_5740" data-name="Path 5740" d="M175.9,107.161a.3.3,0,0,1-.29-.235l-.47-2.191a.3.3,0,0,1,.581-.124l.4,1.848,1.771-.7a.3.3,0,0,1,.219.552l-2.1.831a.294.294,0,0,1-.109.021" transform="translate(-115.142 -68.624)" fill="#fff"/>
      <path id="Path_5741" data-name="Path 5741" d="M162.983,130.374a.3.3,0,0,1-.294-.257l-.257-1.887-1.805.561a.3.3,0,0,1-.176-.568l2.14-.665a.3.3,0,0,1,.383.244l.3,2.235a.3.3,0,0,1-.255.334l-.04,0" transform="translate(-105.355 -83.857)" fill="#fff"/>
      <path id="Path_5742" data-name="Path 5742" d="M160,134.086a.912.912,0,1,1-.315,1.251.912.912,0,0,1,.315-1.251" transform="translate(-104.905 -88.073)" fill="#fff"/>
      <path id="Path_5743" data-name="Path 5743" d="M179.8,100.4a.912.912,0,1,1-.315,1.251.912.912,0,0,1,.315-1.251" transform="translate(-117.922 -65.924)" fill="#fff"/>
      <path id="Path_5744" data-name="Path 5744" d="M170.2,115.768a1.944,1.944,0,1,1-1.944-1.943,1.944,1.944,0,0,1,1.944,1.943" transform="translate(-109.347 -74.837)" fill="#fff"/>
      <rect id="Rectangle_1000" data-name="Rectangle 1000" width="0.594" height="12.154" transform="translate(46.448 106.626) rotate(-28.814)" fill="#fff"/>
      <path id="Path_5745" data-name="Path 5745" d="M147.921,337.327a.338.338,0,0,1-.048,0,.3.3,0,0,1-.245-.341l.363-2.226a.3.3,0,0,1,.389-.234l2.122.721a.3.3,0,0,1-.191.562l-1.79-.608-.306,1.879a.3.3,0,0,1-.293.249" transform="translate(-97.059 -219.929)" fill="#fff"/>
      <path id="Path_5746" data-name="Path 5746" d="M135.737,313.725a.3.3,0,0,1-.117-.024l-2.074-.885a.3.3,0,1,1,.233-.546l1.751.747.445-1.837a.3.3,0,0,1,.578.14l-.527,2.178a.3.3,0,0,1-.289.227" transform="translate(-87.684 -204.443)" fill="#fff"/>
      <path id="Path_5747" data-name="Path 5747" d="M135.039,307.807a.912.912,0,1,1-.912-.913.912.912,0,0,1,.912.913" transform="translate(-87.585 -201.775)" fill="#fff"/>
      <path id="Path_5748" data-name="Path 5748" d="M153.8,342.085a.912.912,0,1,1-.912-.912.913.913,0,0,1,.912.912" transform="translate(-99.92 -224.312)" fill="#fff"/>
      <rect id="Rectangle_1001" data-name="Rectangle 1001" width="0.594" height="12.154" transform="translate(43.536 112.235) rotate(-89.8)" fill="#fff"/>
      <path id="Path_5749" data-name="Path 5749" d="M156.127,325.386a.3.3,0,0,1-.184-.064l-1.771-1.4a.3.3,0,0,1-.016-.453l1.66-1.506a.3.3,0,0,1,.4.44l-1.4,1.27,1.5,1.179a.3.3,0,0,1-.184.531" transform="translate(-101.29 -211.633)" fill="#fff"/>
      <path id="Path_5750" data-name="Path 5750" d="M129.63,325.11a.3.3,0,0,1-.183-.532l1.5-1.169-1.391-1.28a.3.3,0,0,1,.4-.437l1.649,1.517a.3.3,0,0,1-.018.453l-1.78,1.384a.3.3,0,0,1-.182.063" transform="translate(-85.033 -211.453)" fill="#fff"/>
      <path id="Path_5751" data-name="Path 5751" d="M124.411,324.038a.912.912,0,1,1-1.24.355.912.912,0,0,1,1.24-.355" transform="translate(-80.906 -212.971)" fill="#fff"/>
      <path id="Path_5752" data-name="Path 5752" d="M163.487,324.258a.912.912,0,1,1-1.24.355.912.912,0,0,1,1.24-.355" transform="translate(-106.597 -213.116)" fill="#fff"/>
      <rect id="Rectangle_1002" data-name="Rectangle 1002" width="12.154" height="0.594" transform="translate(46.362 117.176) rotate(-59.682)" fill="#fff"/>
      <path id="Path_5753" data-name="Path 5753" d="M148.9,314.161a.3.3,0,0,1-.29-.235l-.47-2.191a.3.3,0,1,1,.581-.124l.4,1.848,1.771-.7a.3.3,0,0,1,.219.552l-2.1.831a.293.293,0,0,1-.109.021" transform="translate(-97.391 -204.721)" fill="#fff"/>
      <path id="Path_5754" data-name="Path 5754" d="M135.983,337.374a.3.3,0,0,1-.294-.257l-.257-1.887-1.805.561a.3.3,0,0,1-.176-.568l2.14-.665a.3.3,0,0,1,.383.243l.3,2.235a.3.3,0,0,1-.255.334l-.04,0" transform="translate(-87.603 -219.954)" fill="#fff"/>
      <path id="Path_5755" data-name="Path 5755" d="M133,341.086a.912.912,0,1,1-.315,1.251.912.912,0,0,1,.315-1.251" transform="translate(-87.153 -224.17)" fill="#fff"/>
      <path id="Path_5756" data-name="Path 5756" d="M152.8,307.4a.912.912,0,1,1-.315,1.251.912.912,0,0,1,.315-1.251" transform="translate(-100.17 -202.021)" fill="#fff"/>
      <path id="Path_5757" data-name="Path 5757" d="M143.2,322.768a1.944,1.944,0,1,1-1.943-1.943,1.944,1.944,0,0,1,1.943,1.943" transform="translate(-91.595 -210.934)" fill="#fff"/>
      <rect id="Rectangle_1003" data-name="Rectangle 1003" width="0.594" height="12.154" transform="translate(107.075 19.624) rotate(-28.814)" fill="#fff"/>
      <path id="Path_5758" data-name="Path 5758" d="M324.921,83.327a.292.292,0,0,1-.048,0,.3.3,0,0,1-.245-.341l.363-2.226a.3.3,0,0,1,.389-.234l2.122.722a.3.3,0,0,1-.191.562l-1.79-.608-.306,1.879a.3.3,0,0,1-.293.249" transform="translate(-213.431 -52.931)" fill="#fff"/>
      <path id="Path_5759" data-name="Path 5759" d="M312.737,59.725a.3.3,0,0,1-.117-.024l-2.074-.885a.3.3,0,1,1,.233-.546l1.751.747.445-1.837a.3.3,0,0,1,.578.14l-.527,2.178a.3.3,0,0,1-.289.227" transform="translate(-204.057 -37.445)" fill="#fff"/>
      <path id="Path_5760" data-name="Path 5760" d="M312.039,53.806a.912.912,0,1,1-.913-.912.913.913,0,0,1,.913.912" transform="translate(-203.957 -34.776)" fill="#fff"/>
      <path id="Path_5761" data-name="Path 5761" d="M330.8,88.085a.912.912,0,1,1-.913-.912.912.912,0,0,1,.913.912" transform="translate(-216.292 -57.314)" fill="#fff"/>
      <rect id="Rectangle_1004" data-name="Rectangle 1004" width="0.594" height="12.154" transform="translate(104.163 25.234) rotate(-89.8)" fill="#fff"/>
      <path id="Path_5762" data-name="Path 5762" d="M333.127,71.386a.3.3,0,0,1-.184-.064l-1.77-1.4a.3.3,0,0,1-.016-.453l1.66-1.506a.3.3,0,1,1,.4.44l-1.4,1.27,1.5,1.179a.3.3,0,0,1-.184.531" transform="translate(-217.663 -44.635)" fill="#fff"/>
      <path id="Path_5763" data-name="Path 5763" d="M306.63,71.11a.3.3,0,0,1-.183-.532l1.5-1.169-1.391-1.28a.3.3,0,1,1,.4-.437l1.649,1.517a.3.3,0,0,1-.018.453l-1.78,1.384a.3.3,0,0,1-.182.063" transform="translate(-201.406 -44.455)" fill="#fff"/>
      <path id="Path_5764" data-name="Path 5764" d="M301.411,70.038a.912.912,0,1,1-1.24.355.912.912,0,0,1,1.24-.355" transform="translate(-197.279 -45.973)" fill="#fff"/>
      <path id="Path_5765" data-name="Path 5765" d="M340.487,70.258a.912.912,0,1,1-1.24.355.912.912,0,0,1,1.24-.355" transform="translate(-222.97 -46.117)" fill="#fff"/>
      <rect id="Rectangle_1005" data-name="Rectangle 1005" width="12.154" height="0.594" transform="matrix(0.505, -0.863, 0.863, 0.505, 106.99, 30.174)" fill="#fff"/>
      <path id="Path_5766" data-name="Path 5766" d="M325.9,60.161a.3.3,0,0,1-.29-.235l-.47-2.191a.3.3,0,0,1,.581-.124l.4,1.848,1.771-.7a.3.3,0,0,1,.219.552l-2.1.831a.294.294,0,0,1-.109.021" transform="translate(-213.763 -37.723)" fill="#fff"/>
      <path id="Path_5767" data-name="Path 5767" d="M312.983,83.374a.3.3,0,0,1-.294-.257l-.257-1.887-1.805.561a.3.3,0,0,1-.176-.568l2.14-.665a.3.3,0,0,1,.383.244l.3,2.235a.3.3,0,0,1-.254.334l-.04,0" transform="translate(-203.976 -52.956)" fill="#fff"/>
      <path id="Path_5768" data-name="Path 5768" d="M310,87.086a.912.912,0,1,1-.315,1.251A.912.912,0,0,1,310,87.086" transform="translate(-203.526 -57.171)" fill="#fff"/>
      <path id="Path_5769" data-name="Path 5769" d="M329.8,53.4a.912.912,0,1,1-.315,1.251A.912.912,0,0,1,329.8,53.4" transform="translate(-216.543 -35.022)" fill="#fff"/>
      <path id="Path_5770" data-name="Path 5770" d="M320.2,68.769a1.944,1.944,0,1,1-1.943-1.944,1.944,1.944,0,0,1,1.943,1.944" transform="translate(-207.968 -43.936)" fill="#fff"/>
      <rect id="Rectangle_1006" data-name="Rectangle 1006" width="0.594" height="12.154" transform="translate(141.328 51.479) rotate(-28.814)" fill="#fff"/>
      <path id="Path_5771" data-name="Path 5771" d="M424.921,176.327a.292.292,0,0,1-.048,0,.3.3,0,0,1-.245-.341l.363-2.226a.3.3,0,0,1,.389-.234l2.122.722a.3.3,0,0,1-.191.562l-1.79-.608-.306,1.879a.3.3,0,0,1-.293.249" transform="translate(-279.179 -114.076)" fill="#fff"/>
      <path id="Path_5772" data-name="Path 5772" d="M412.737,152.725a.294.294,0,0,1-.117-.024l-2.074-.885a.3.3,0,1,1,.233-.546l1.751.747.445-1.837a.3.3,0,1,1,.577.14l-.527,2.178a.3.3,0,0,1-.289.227" transform="translate(-269.804 -98.59)" fill="#fff"/>
      <path id="Path_5773" data-name="Path 5773" d="M412.039,146.806a.912.912,0,1,1-.912-.913.913.913,0,0,1,.912.913" transform="translate(-269.705 -95.921)" fill="#fff"/>
      <path id="Path_5774" data-name="Path 5774" d="M430.8,181.085a.912.912,0,1,1-.912-.912.912.912,0,0,1,.912.912" transform="translate(-282.04 -118.459)" fill="#fff"/>
      <rect id="Rectangle_1007" data-name="Rectangle 1007" width="0.594" height="12.154" transform="translate(138.416 57.088) rotate(-89.8)" fill="#fff"/>
      <path id="Path_5775" data-name="Path 5775" d="M433.127,164.386a.3.3,0,0,1-.184-.064l-1.771-1.4a.3.3,0,0,1-.016-.453l1.66-1.506a.3.3,0,0,1,.4.44l-1.4,1.27,1.5,1.179a.3.3,0,0,1-.184.531" transform="translate(-283.41 -105.78)" fill="#fff"/>
      <path id="Path_5776" data-name="Path 5776" d="M406.63,164.11a.3.3,0,0,1-.183-.532l1.5-1.169-1.391-1.28a.3.3,0,0,1,.4-.437l1.649,1.517a.3.3,0,0,1-.018.453l-1.78,1.384a.3.3,0,0,1-.182.063" transform="translate(-267.153 -105.6)" fill="#fff"/>
      <path id="Path_5777" data-name="Path 5777" d="M401.411,163.038a.912.912,0,1,1-1.24.355.912.912,0,0,1,1.24-.355" transform="translate(-263.026 -107.118)" fill="#fff"/>
      <path id="Path_5778" data-name="Path 5778" d="M440.487,163.258a.912.912,0,1,1-1.24.355.912.912,0,0,1,1.24-.355" transform="translate(-288.718 -107.262)" fill="#fff"/>
      <rect id="Rectangle_1008" data-name="Rectangle 1008" width="12.154" height="0.594" transform="matrix(0.505, -0.863, 0.863, 0.505, 141.242, 62.029)" fill="#fff"/>
      <path id="Path_5779" data-name="Path 5779" d="M425.9,153.161a.3.3,0,0,1-.29-.235l-.47-2.191a.3.3,0,0,1,.581-.124l.4,1.848,1.771-.7a.3.3,0,0,1,.219.552l-2.1.831a.294.294,0,0,1-.109.021" transform="translate(-279.511 -98.868)" fill="#fff"/>
      <path id="Path_5780" data-name="Path 5780" d="M412.983,176.374a.3.3,0,0,1-.294-.257l-.257-1.887-1.805.561a.3.3,0,0,1-.176-.568l2.14-.665a.3.3,0,0,1,.383.244l.3,2.235a.3.3,0,0,1-.255.334l-.04,0" transform="translate(-269.723 -114.101)" fill="#fff"/>
      <path id="Path_5781" data-name="Path 5781" d="M410,180.086a.912.912,0,1,1-.315,1.251.912.912,0,0,1,.315-1.251" transform="translate(-269.273 -118.316)" fill="#fff"/>
      <path id="Path_5782" data-name="Path 5782" d="M429.8,146.4a.912.912,0,1,1-.315,1.251.912.912,0,0,1,.315-1.251" transform="translate(-282.29 -96.167)" fill="#fff"/>
      <path id="Path_5783" data-name="Path 5783" d="M420.2,161.768a1.944,1.944,0,1,1-1.944-1.943,1.944,1.944,0,0,1,1.944,1.943" transform="translate(-273.715 -105.081)" fill="#fff"/>
      <rect id="Rectangle_1009" data-name="Rectangle 1009" width="0.594" height="12.154" transform="translate(142.355 109.366) rotate(-28.814)" fill="#fff"/>
      <path id="Path_5784" data-name="Path 5784" d="M427.921,345.327a.329.329,0,0,1-.048,0,.3.3,0,0,1-.245-.341l.363-2.226a.3.3,0,0,1,.389-.234l2.122.721a.3.3,0,1,1-.191.562l-1.79-.608-.306,1.879a.3.3,0,0,1-.293.249" transform="translate(-281.151 -225.189)" fill="#fff"/>
      <path id="Path_5785" data-name="Path 5785" d="M415.737,321.725a.3.3,0,0,1-.117-.024l-2.074-.885a.3.3,0,1,1,.233-.546l1.751.747.445-1.837a.3.3,0,1,1,.577.14l-.527,2.178a.3.3,0,0,1-.289.227" transform="translate(-271.777 -209.703)" fill="#fff"/>
      <path id="Path_5786" data-name="Path 5786" d="M415.039,315.807a.912.912,0,1,1-.912-.912.913.913,0,0,1,.912.912" transform="translate(-271.677 -207.034)" fill="#fff"/>
      <path id="Path_5787" data-name="Path 5787" d="M433.8,350.085a.912.912,0,1,1-.913-.912.912.912,0,0,1,.913.912" transform="translate(-284.012 -229.572)" fill="#fff"/>
      <rect id="Rectangle_1010" data-name="Rectangle 1010" width="0.594" height="12.154" transform="translate(139.444 114.975) rotate(-89.8)" fill="#fff"/>
      <path id="Path_5788" data-name="Path 5788" d="M436.127,333.386a.3.3,0,0,1-.184-.064l-1.771-1.4a.3.3,0,0,1-.016-.453l1.66-1.506a.3.3,0,0,1,.4.44l-1.4,1.27,1.5,1.179a.3.3,0,0,1-.184.531" transform="translate(-285.383 -216.893)" fill="#fff"/>
      <path id="Path_5789" data-name="Path 5789" d="M409.63,333.11a.3.3,0,0,1-.182-.532l1.5-1.169-1.391-1.28a.3.3,0,1,1,.4-.437l1.649,1.517a.3.3,0,0,1-.018.453l-1.78,1.384a.3.3,0,0,1-.182.063" transform="translate(-269.125 -216.712)" fill="#fff"/>
      <path id="Path_5790" data-name="Path 5790" d="M404.411,332.038a.912.912,0,1,1-1.24.355.912.912,0,0,1,1.24-.355" transform="translate(-264.999 -218.231)" fill="#fff"/>
      <path id="Path_5791" data-name="Path 5791" d="M443.487,332.258a.912.912,0,1,1-1.24.355.912.912,0,0,1,1.24-.355" transform="translate(-290.69 -218.375)" fill="#fff"/>
      <rect id="Rectangle_1011" data-name="Rectangle 1011" width="12.154" height="0.594" transform="matrix(0.505, -0.863, 0.863, 0.505, 142.27, 119.916)" fill="#fff"/>
      <path id="Path_5792" data-name="Path 5792" d="M428.9,322.161a.3.3,0,0,1-.29-.235l-.47-2.191a.3.3,0,1,1,.581-.124l.4,1.848,1.771-.7a.3.3,0,0,1,.219.553l-2.1.831a.292.292,0,0,1-.109.021" transform="translate(-281.483 -209.981)" fill="#fff"/>
      <path id="Path_5793" data-name="Path 5793" d="M415.983,345.373a.3.3,0,0,1-.294-.257l-.257-1.887-1.805.561a.3.3,0,0,1-.176-.568l2.14-.665a.3.3,0,0,1,.383.244l.3,2.235a.3.3,0,0,1-.255.334l-.04,0" transform="translate(-271.696 -225.214)" fill="#fff"/>
      <path id="Path_5794" data-name="Path 5794" d="M413,349.086a.912.912,0,1,1-.315,1.251.912.912,0,0,1,.315-1.251" transform="translate(-271.245 -229.429)" fill="#fff"/>
      <path id="Path_5795" data-name="Path 5795" d="M432.8,315.4a.912.912,0,1,1-.315,1.251.912.912,0,0,1,.315-1.251" transform="translate(-284.263 -207.28)" fill="#fff"/>
      <path id="Path_5796" data-name="Path 5796" d="M423.2,330.768a1.944,1.944,0,1,1-1.943-1.944,1.944,1.944,0,0,1,1.943,1.944" transform="translate(-275.688 -216.194)" fill="#fff"/>
      <path id="Path_5797" data-name="Path 5797" d="M307.25,141.041a1.541,1.541,0,1,1-1.541-1.541,1.542,1.542,0,0,1,1.541,1.541" transform="translate(-199.982 -91.718)" fill="#fff"/>
      <path id="Path_5798" data-name="Path 5798" d="M246.222,66.528a1.028,1.028,0,1,1-1.028-1.028,1.027,1.027,0,0,1,1.028,1.028" transform="translate(-160.533 -43.065)" fill="#fff"/>
      <path id="Path_5799" data-name="Path 5799" d="M233.565,101.7a1.2,1.2,0,1,1-1.2-1.2,1.2,1.2,0,0,1,1.2,1.2" transform="translate(-151.986 -66.076)" fill="#fff"/>
      <path id="Path_5800" data-name="Path 5800" d="M104.934,130.384a1.884,1.884,0,1,1-1.884-1.884,1.884,1.884,0,0,1,1.884,1.884" transform="translate(-66.514 -84.485)" fill="#fff"/>
      <path id="Path_5801" data-name="Path 5801" d="M177.907,194.87a1.37,1.37,0,1,1-1.37-1.37,1.37,1.37,0,0,1,1.37,1.37" transform="translate(-115.168 -127.221)" fill="#fff"/>
      <path id="Path_5802" data-name="Path 5802" d="M184.195,169.014a.514.514,0,1,1-.514-.514.514.514,0,0,1,.514.514" transform="translate(-120.427 -110.784)" fill="#fff"/>
      <path id="Path_5803" data-name="Path 5803" d="M83.564,181.7a1.2,1.2,0,1,1-1.2-1.2,1.2,1.2,0,0,1,1.2,1.2" transform="translate(-53.364 -118.674)" fill="#fff"/>
      <path id="Path_5804" data-name="Path 5804" d="M341.222,180.528a1.028,1.028,0,1,1-1.028-1.028,1.028,1.028,0,0,1,1.028,1.028" transform="translate(-222.993 -118.016)" fill="#fff"/>
      <path id="Path_5805" data-name="Path 5805" d="M468.25,146.041a1.541,1.541,0,1,1-1.541-1.541,1.542,1.542,0,0,1,1.541,1.541" transform="translate(-305.835 -95.005)" fill="#fff"/>
      <path id="Path_5806" data-name="Path 5806" d="M491.195,207.014a.514.514,0,1,1-.514-.514.514.514,0,0,1,.514.514" transform="translate(-322.272 -135.768)" fill="#fff"/>
      <path id="Path_5807" data-name="Path 5807" d="M481.25,325.041a1.541,1.541,0,1,1-1.541-1.541,1.542,1.542,0,0,1,1.541,1.541" transform="translate(-314.382 -212.693)" fill="#fff"/>
      <path id="Path_5808" data-name="Path 5808" d="M504.537,261.185a.685.685,0,1,1-.685-.685.685.685,0,0,1,.685.685" transform="translate(-330.819 -171.272)" fill="#fff"/>
      <path id="Path_5809" data-name="Path 5809" d="M42.907,210.87a1.37,1.37,0,1,1-1.37-1.37,1.37,1.37,0,0,1,1.37,1.37" transform="translate(-26.409 -137.741)" fill="#fff"/>
      <path id="Path_5810" data-name="Path 5810" d="M78.879,366.356a.856.856,0,1,1-.856-.856.856.856,0,0,1,.856.856" transform="translate(-50.735 -240.307)" fill="#fff"/>
      <path id="Path_5811" data-name="Path 5811" d="M390.222,76.528a1.028,1.028,0,1,1-1.028-1.028,1.028,1.028,0,0,1,1.028,1.028" transform="translate(-255.209 -49.639)" fill="#fff"/>
      <rect id="Rectangle_1012" data-name="Rectangle 1012" width="175.716" height="1.028" transform="translate(6.565 189.417)" fill="#fff"/>
      <path id="Path_5812" data-name="Path 5812" d="M337.121,233.142l3.076.88-2.834-1.788-4.315,1.033-.472-3.992-.6,4.879-8.6,6.329-2.028.386,1.211-4.3.288-3.075-3.128,7.684L297.328,244.3l-1.285,4.082L310.8,245.4l11.814,4.151,2.621-.29-11.249-4.506,9.482-1.92,7.8-6.235,5.023-.94,2.116-.309-6.029-.057Z" transform="translate(-194.64 -150.743)"/>
      <path id="Path_5813" data-name="Path 5813" d="M119.761,246.62l-2.13-2.387,1.441,3.025,4.2,1.431-1.734,3.627,3.112-3.805,10.653-.755,1.921.757L133.9,251.5l-1.886,2.446,6.749-4.825,20.6,9.321,3.267-2.764-14.069-5.356-7.77-9.82-2.371-1.155,7.1,9.818-9.041-3.442-9.927,1.1-4.748-1.889-1.954-.869,5.067,3.269Z" transform="translate(-77.339 -157.363)"/>
      <path id="Path_5814" data-name="Path 5814" d="M248.239,330.519c1.117,11.754,8.539,25.364-30.575,25.364-34.028,0-30.732-10.393-29.7-24.234,1.067-14.255,14.006-24.267,29.69-24.267s29.27,9.319,30.582,23.137" transform="translate(-123.194 -202.095)" fill="#fff"/>
      <path id="Path_5815" data-name="Path 5815" d="M254.327,255.5c0,10.854-10.447,19.652-23.333,19.652s-23.333-8.8-23.333-19.652,10.447-19.652,23.333-19.652,23.333,8.8,23.333,19.652" transform="translate(-136.531 -155.066)" fill="#fff"/>
      <path id="Path_5816" data-name="Path 5816" d="M261.188,179.926a15.871,15.871,0,1,1-15.871-15.871,15.871,15.871,0,0,1,15.871,15.871" transform="translate(-150.855 -107.862)" fill="#fff"/>
      <path id="Path_5817" data-name="Path 5817" d="M256.619,272.946a1.426,1.426,0,1,1-1.426-1.426,1.426,1.426,0,0,1,1.426,1.426" transform="translate(-166.845 -178.517)"/>
      <path id="Path_5818" data-name="Path 5818" d="M256.619,293.294a1.426,1.426,0,1,1-1.426-1.426,1.426,1.426,0,0,1,1.426,1.426" transform="translate(-166.845 -191.895)"/>
      <path id="Path_5819" data-name="Path 5819" d="M292.545,272.946a1.426,1.426,0,1,1-1.426-1.426,1.426,1.426,0,0,1,1.426,1.426" transform="translate(-190.465 -178.517)"/>
      <path id="Path_5820" data-name="Path 5820" d="M292.545,293.294a1.426,1.426,0,1,1-1.426-1.426,1.426,1.426,0,0,1,1.426,1.426" transform="translate(-190.465 -191.895)"/>
      <path id="Path_5821" data-name="Path 5821" d="M258.364,200.057a1.426,1.426,0,1,1-1.426-1.426,1.426,1.426,0,0,1,1.426,1.426" transform="translate(-167.992 -130.595)"/>
      <path id="Path_5822" data-name="Path 5822" d="M297.313,200.057a1.426,1.426,0,1,1-1.426-1.426,1.426,1.426,0,0,1,1.426,1.426" transform="translate(-193.6 -130.595)"/>
      <path id="Path_5823" data-name="Path 5823" d="M274.647,206.074l5.433,4.346-2.709-5.8a1.532,1.532,0,0,0-1.194-.873,1.673,1.673,0,0,0-1.833.967,1.107,1.107,0,0,0,.3,1.358" transform="translate(-180.297 -133.947)" fill="#b71a2e"/>
      <path id="Path_5824" data-name="Path 5824" d="M249.086,242.9h-6.658a.157.157,0,1,1,0-.314h6.658a.157.157,0,0,1,0,.314" transform="translate(-159.287 -159.495)"/>
      <path id="Path_5825" data-name="Path 5825" d="M299.327,242.931h-5.18a.157.157,0,0,1,0-.314h5.18a.157.157,0,0,1,0,.314" transform="translate(-193.291 -159.514)"/>
      <path id="Path_5826" data-name="Path 5826" d="M236.19,326.206H219.546a.157.157,0,0,1,0-.314H236.19a.157.157,0,0,1,0,.314" transform="translate(-144.242 -214.265)"/>
      <path id="Path_5827" data-name="Path 5827" d="M309.843,326.158H298.584a.157.157,0,0,1,0-.314h11.259a.157.157,0,0,1,0,.314" transform="translate(-196.208 -214.234)"/>
      <path id="Path_5828" data-name="Path 5828" d="M219.855,235.919l32.019-1.758.753,5.841L216.4,244.758Z" transform="translate(-142.275 -153.955)" fill="#ffcb63"/>
      <path id="Path_5829" data-name="Path 5829" d="M310.195,252.286l-.668,17.661,10.108-2.762-8.124-15.072Z" transform="translate(-203.506 -165.757)" fill="#ffcb63"/>
      <path id="Path_5830" data-name="Path 5830" d="M315.9,249.557l9.794,6.906-3.956,2.888-6.341-8.915Z" transform="translate(-207.362 -164.077)" fill="#ffcb63"/>
      <path id="Path_5831" data-name="Path 5831" d="M240.6,142.9l-4.02-10.012,15.068-3.39.755,11.177Z" transform="translate(-155.542 -85.143)" fill="#1d2b17"/>
      <path id="Path_5832" data-name="Path 5832" d="M246.838,163.284l-.765-1.881,12.526-.953.042.637Z" transform="translate(-161.786 -105.491)" fill="#ffbd24"/>
      <path id="Path_5833" data-name="Path 5833" d="M243.908,163.914v2.319l16.059-3.442-.74-1.765Z" transform="translate(-160.363 -105.87)" fill="#1d2b17"/>
    </g>
  </g>
</svg>
