<?xml version="1.0" encoding="utf-8"?>
<!-- Generator: Adobe Illustrator 28.0.0, SVG Export Plug-In . SVG Version: 6.00 Build 0)  -->
<svg version="1.1" id="Layer_1" xmlns="http://www.w3.org/2000/svg" xmlns:xlink="http://www.w3.org/1999/xlink" x="0px" y="0px"
	 viewBox="0 0 1920 279" style="enable-background:new 0 0 1920 279;" xml:space="preserve">
<style type="text/css">
	.st0{clip-path:url(#SVGID_00000097468014925283124870000001397133293784774020_);}
	.st1{fill:#FFFFFF;}
	.st2{clip-path:url(#SVGID_00000121259399353875097850000018152989741477830304_);}
	.st3{clip-path:url(#SVGID_00000015343969854008602280000015410829615775490749_);}
</style>
<g>
	<g>
		<defs>
			<rect id="SVGID_1_" x="1161.5" y="47" width="758.5" height="232"/>
		</defs>
		<clipPath id="SVGID_00000170273279765847238920000000003689457535639474_">
			<use xlink:href="#SVGID_1_"  style="overflow:visible;"/>
		</clipPath>
		<g style="clip-path:url(#SVGID_00000170273279765847238920000000003689457535639474_);">
			<path class="st1" d="M1929.5,269.4c-3.1,0.8-5.8,1.5-8.8,1.9c-6.5,1.5-12.7,2.7-19.2,3.5c-5,1.2-9.6,1.9-14.2,2.3
				c-3.1,0.4-6.5,0.8-9.6,0.8c-5-0.4-10,1.2-14.6,0.4c-5-0.8-10.4,0-15.4-0.8c-2.7-0.4-5.4-0.4-7.7-0.8c-2.7-0.4-5.4-0.8-8.1-1.2
				c-8.5-1.5-16.9-3.1-25.4-5.4c-6.2-1.5-12.3-3.8-18.1-5.8c-5-1.9-10.4-3.8-15.4-5.8c-8.8-3.8-16.5-6.9-24.2-10.4
				c-9.2-3.8-18.5-7.7-28.1-11.2c-4.6-1.5-8.8-3.1-13.5-4.6c-1.5-0.4-2.7-0.4-3.8,0c-10.8,3.5-21.5,6.9-32.7,9.6
				c-4.2,1.2-8.8,1.9-13.1,2.3c-4.2,0.4-8.1,0.8-12.3,1.2c-3.5,0.4-7.3,0.4-10.8,0.4c-4.2,0-8.5-0.4-13.1-0.8
				c-2.3-0.4-4.2-0.4-6.5-0.4c-3.1-0.4-6.5-0.8-9.6-1.2c-5.4-0.8-10.8-1.9-16.1-3.1c-5.8-1.2-11.9-2.3-17.7-4.2
				c-1.5-0.4-2.7-0.4-3.8,0c-12.3,3.8-24.2,8.1-36.5,11.9c-10,3.1-20.4,5.8-30.4,8.1c-5.8,1.2-11.2,2.3-16.9,3.5
				c-4.6,0.8-8.8,1.5-13.5,1.9c-2.3,0.4-5,0-7.3,0.8c-0.4,0-0.4,0-0.8,0c-8.1,0.8-16.1,0.8-24.2,0.4c-7.3-0.4-14.6-1.2-21.9-2.7
				c-10.8-1.9-20.8-5-31.1-8.5c-5.8-1.9-11.5-3.5-17.3-5.4c-6.5-2.3-13.1-4.2-19.6-6.5c-0.4,0-0.4,0-0.8-0.4c-2.7-1.2-5-0.8-7.7,0.4
				c-10.4,4.6-20.8,8.5-31.5,11.5c-6.9,2.3-14.2,3.8-21.5,5.4c-5.4,0.8-10.8,1.5-16.1,2.3c-10.8,1.2-21.5,1.2-32.3,0.8
				c-3.1,0-6.2-0.4-9.2-0.8c-2.3-0.4-4.6-0.4-6.9-0.8c-2.7-0.4-5.4-0.4-8.5-1.2c-3.5-0.8-7.3-0.8-10.8,0c-3.8,0.8-7.7,1.5-11.9,1.9
				c-3.5,0.4-6.9,1.2-10.4,1.5c-1.9,0.4-4.2,0.4-6.2,0.4c-4.2,0-8.5,1.2-13.1,0.8c0-76.9,0-153.4,0-230.2l0.4-0.4
				c255.6,0,511.6,0,767.2,0l0.4,0.4C1929.5,110.3,1929.5,189.8,1929.5,269.4z"/>
		</g>
	</g>
</g>
<g>
	<g>
		<defs>
			<rect id="SVGID_00000146483143261931598810000000546097950256345786_" x="396.5" y="47.1" width="768" height="225.3"/>
		</defs>
		<clipPath id="SVGID_00000096748785045588739410000018279266353941719704_">
			<use xlink:href="#SVGID_00000146483143261931598810000000546097950256345786_"  style="overflow:visible;"/>
		</clipPath>
		<g style="clip-path:url(#SVGID_00000096748785045588739410000018279266353941719704_);">
			<path class="st1" d="M1164.5,262.2c-3.1,0.8-5.8,1.5-8.8,1.9c-6.5,1.5-12.7,2.7-19.2,3.5c-5,1.2-9.6,1.9-14.2,2.3
				c-3.1,0.4-6.5,0.8-9.6,0.8c-5-0.4-10,1.2-14.6,0.4c-5-0.8-10.4,0-15.4-0.8c-2.7-0.4-5.4-0.4-7.7-0.8c-2.7-0.4-5.4-0.8-8.1-1.2
				c-8.5-1.5-16.9-3.1-25.4-5.4c-6.2-1.5-12.3-3.8-18.1-5.8c-5-1.9-10.4-3.8-15.4-5.8c-8.8-3.8-16.5-6.9-24.2-10.4
				c-9.2-3.8-18.5-7.7-28.1-11.2c-4.6-1.5-8.8-3.1-13.5-4.6c-1.5-0.4-2.7-0.4-3.8,0c-10.8,3.5-21.5,6.9-32.7,9.6
				c-4.2,1.2-8.8,1.9-13.1,2.3c-4.2,0.4-8.1,0.8-12.3,1.2c-3.5,0.4-7.3,0.4-10.8,0.4c-4.2,0-8.5-0.4-13.1-0.8
				c-2.3-0.4-4.2-0.4-6.5-0.4c-3.1-0.4-6.5-0.8-9.6-1.2c-5.4-0.8-10.8-1.9-16.1-3.1c-5.8-1.2-11.9-2.3-17.7-4.2
				c-1.5-0.4-2.7-0.4-3.8,0c-12.3,3.8-24.2,8.1-36.5,11.9c-10,3.1-20.4,5.8-30.4,8.1c-5.8,1.2-11.2,2.3-16.9,3.5
				c-4.6,0.8-8.8,1.5-13.5,1.9c-2.3,0.4-5,0-7.3,0.8c-0.4,0-0.4,0-0.8,0c-8.1,0.8-16.1,0.8-24.2,0.4c-7.3-0.4-14.6-1.2-21.9-2.7
				c-10.8-1.9-20.8-5-31.1-8.5c-5.8-1.9-11.5-3.5-17.3-5.4c-6.5-2.3-13.1-4.2-19.6-6.5c-0.4,0-0.4,0-0.8-0.4c-2.7-1.2-5-0.8-7.7,0.4
				c-10.4,4.6-20.8,8.5-31.5,11.5c-6.9,2.3-14.2,3.8-21.5,5.4c-5.4,0.8-10.8,1.5-16.1,2.3c-10.8,1.2-21.5,1.2-32.3,0.8
				c-3.1,0-6.2-0.4-9.2-0.8c-2.3-0.4-4.6-0.4-6.9-0.8c-2.7-0.4-5.4-0.4-8.5-1.2c-3.5-0.8-7.3-0.8-10.8,0c-3.8,0.8-7.7,1.5-11.9,1.9
				c-3.5,0.4-6.9,1.2-10.4,1.5c-1.9,0.4-4.2,0.4-6.2,0.4c-4.2,0-8.5,1.2-13.1,0.8c0-76.9,0-153.4,0-230.2l0.4-0.4
				c255.6,0,511.6,0,767.2,0l0.4,0.4C1164.5,103,1164.5,182.6,1164.5,262.2z"/>
		</g>
	</g>
</g>
<g>
	<g>
		<defs>
			<rect id="SVGID_00000142168124146960079440000016063130376108234931_" x="0" y="47" width="408" height="216"/>
		</defs>
		<clipPath id="SVGID_00000037657312299584579500000004237185451285744822_">
			<use xlink:href="#SVGID_00000142168124146960079440000016063130376108234931_"  style="overflow:visible;"/>
		</clipPath>
		<g style="clip-path:url(#SVGID_00000037657312299584579500000004237185451285744822_);">
			<path class="st1" d="M408,253.4c-3.1,0.8-5.8,1.5-8.8,1.9c-6.5,1.5-12.7,2.7-19.2,3.5c-5,1.2-9.6,1.9-14.2,2.3
				c-3.1,0.4-6.5,0.8-9.6,0.8c-5-0.4-10,1.2-14.6,0.4c-5-0.8-10.4,0-15.4-0.8c-2.7-0.4-5.4-0.4-7.7-0.8c-2.7-0.4-5.4-0.8-8.1-1.2
				c-8.5-1.5-16.9-3.1-25.4-5.4c-6.1-1.5-12.3-3.8-18.1-5.8c-5-1.9-10.4-3.8-15.4-5.8c-8.8-3.8-16.5-6.9-24.2-10.4
				c-9.2-3.8-18.4-7.7-28.1-11.2c-4.6-1.5-8.8-3.1-13.5-4.6c-1.5-0.4-2.7-0.4-3.8,0c-10.8,3.5-21.5,6.9-32.7,9.6
				c-4.2,1.2-8.8,1.9-13.1,2.3c-4.2,0.4-8.1,0.8-12.3,1.2c-3.5,0.4-7.3,0.4-10.8,0.4c-4.2,0-8.5-0.4-13.1-0.8
				c-2.3-0.4-4.2-0.4-6.5-0.4c-3.1-0.4-6.5-0.8-9.6-1.2c-5.4-0.8-10.8-1.9-16.1-3.1c-5.8-1.2-11.9-2.3-17.7-4.2
				c-1.5-0.4-2.7-0.4-3.8,0C33.9,223.9,22,228.2,9.7,232c-10,3.1-20.4,5.8-30.4,8.1c-5.8,1.2-11.1,2.3-16.9,3.5
				c-4.6,0.8-8.8,1.5-13.5,1.9c-2.3,0.4-5,0-7.3,0.8c-0.4,0-0.4,0-0.8,0c-8.1,0.8-16.1,0.8-24.2,0.4c-7.3-0.4-14.6-1.2-21.9-2.7
				c-10.8-1.9-20.8-5-31.1-8.5c-5.8-1.9-11.5-3.5-17.3-5.4c-6.5-2.3-13.1-4.2-19.6-6.5c-0.4,0-0.4,0-0.8-0.4c-2.7-1.2-5-0.8-7.7,0.4
				c-10.4,4.6-20.8,8.5-31.5,11.5c-6.9,2.3-14.2,3.8-21.5,5.4c-5.4,0.8-10.8,1.5-16.1,2.3c-10.8,1.2-21.5,1.2-32.3,0.8
				c-3.1,0-6.1-0.4-9.2-0.8c-2.3-0.4-4.6-0.4-6.9-0.8c-2.7-0.4-5.4-0.4-8.5-1.2c-3.5-0.8-7.3-0.8-10.8,0c-3.8,0.8-7.7,1.5-11.9,1.9
				c-3.5,0.4-6.9,1.2-10.4,1.5c-1.9,0.4-4.2,0.4-6.2,0.4c-4.2,0-8.5,1.2-13.1,0.8c0-76.9,0-153.4,0-230.2l0.4-0.4
				c255.6,0,511.6,0,767.2,0l0.4,0.4C408,94.3,408,173.8,408,253.4z"/>
		</g>
	</g>
</g>
</svg>
