<?xml version="1.0" encoding="utf-8"?>
<!-- Generator: Adobe Illustrator 28.0.0, SVG Export Plug-In . SVG Version: 6.00 Build 0)  -->
<svg version="1.1" id="Layer_1" xmlns="http://www.w3.org/2000/svg" xmlns:xlink="http://www.w3.org/1999/xlink" x="0px" y="0px"
	 viewBox="0 0 1920 279" style="enable-background:new 0 0 1920 279;" xml:space="preserve">
<style type="text/css">
	.st0{clip-path:url(#SVGID_00000078033546488654537590000016672379487266352316_);}
	.st1{fill:#FFFFFF;}
	.st2{clip-path:url(#SVGID_00000025405874884508723160000010167026822358570120_);}
	.st3{clip-path:url(#SVGID_00000045579824269618770170000017713069951655611042_);}
</style>
<g>
	<defs>
		<rect id="SVGID_1_" y="47" width="758.5" height="232"/>
	</defs>
	<clipPath id="SVGID_00000022540520038534801350000008794183926691423915_">
		<use xlink:href="#SVGID_1_"  style="overflow:visible;"/>
	</clipPath>
	<g style="clip-path:url(#SVGID_00000022540520038534801350000008794183926691423915_);">
		<path class="st1" d="M-9.5,56.6c3.1-0.8,5.8-1.5,8.8-1.9c6.5-1.5,12.7-2.7,19.2-3.5c5-1.2,9.6-1.9,14.2-2.3
			c3.1-0.4,6.5-0.8,9.6-0.8c5,0.4,10-1.2,14.6-0.4c5,0.8,10.4,0,15.4,0.8c2.7,0.4,5.4,0.4,7.7,0.8c2.7,0.4,5.4,0.8,8.1,1.2
			c8.5,1.5,16.9,3.1,25.4,5.4c6.2,1.5,12.3,3.8,18.1,5.8c5,1.9,10.4,3.8,15.4,5.8c8.8,3.8,16.5,6.9,24.2,10.4
			c9.2,3.8,18.5,7.7,28.1,11.2c4.6,1.5,8.8,3.1,13.5,4.6c1.5,0.4,2.7,0.4,3.8,0c10.8-3.5,21.5-6.9,32.7-9.6
			c4.2-1.2,8.8-1.9,13.1-2.3c4.2-0.4,8.1-0.8,12.3-1.2c3.5-0.4,7.3-0.4,10.8-0.4c4.2,0,8.5,0.4,13.1,0.8c2.3,0.4,4.2,0.4,6.5,0.4
			c3.1,0.4,6.5,0.8,9.6,1.2c5.4,0.8,10.8,1.9,16.1,3.1c5.8,1.2,11.9,2.3,17.7,4.2c1.5,0.4,2.7,0.4,3.8,0
			c12.3-3.8,24.2-8.1,36.5-11.9c10-3.1,20.4-5.8,30.4-8.1c5.8-1.2,11.2-2.3,16.9-3.5c4.6-0.8,8.8-1.5,13.5-1.9c2.3-0.4,5,0,7.3-0.8
			c0.4,0,0.4,0,0.8,0c8.1-0.8,16.1-0.8,24.2-0.4c7.3,0.4,14.6,1.2,21.9,2.7c10.8,1.9,20.8,5,31.1,8.5c5.8,1.9,11.5,3.5,17.3,5.4
			c6.5,2.3,13.1,4.2,19.6,6.5c0.4,0,0.4,0,0.8,0.4c2.7,1.2,5,0.8,7.7-0.4c10.4-4.6,20.8-8.5,31.5-11.5c6.9-2.3,14.2-3.8,21.5-5.4
			c5.4-0.8,10.8-1.5,16.1-2.3c10.8-1.2,21.5-1.2,32.3-0.8c3.1,0,6.2,0.4,9.2,0.8c2.3,0.4,4.6,0.4,6.9,0.8c2.7,0.4,5.4,0.4,8.5,1.2
			c3.5,0.8,7.3,0.8,10.8,0c3.8-0.8,7.7-1.5,11.9-1.9c3.5-0.4,6.9-1.2,10.4-1.5c1.9-0.4,4.2-0.4,6.2-0.4c4.2,0,8.5-1.2,13.1-0.8
			c0,76.9,0,153.4,0,230.2l-0.4,0.4c-255.6,0-511.6,0-767.2,0l-0.4-0.4C-9.5,215.7-9.5,136.2-9.5,56.6z"/>
	</g>
</g>
<g>
	<defs>
		<rect id="SVGID_00000150096650461091051360000008517486315300373657_" x="755.5" y="53.6" width="768" height="225.3"/>
	</defs>
	<clipPath id="SVGID_00000154422401002968582870000006768702046835327883_">
		<use xlink:href="#SVGID_00000150096650461091051360000008517486315300373657_"  style="overflow:visible;"/>
	</clipPath>
	<g style="clip-path:url(#SVGID_00000154422401002968582870000006768702046835327883_);">
		<path class="st1" d="M755.5,63.8c3.1-0.8,5.8-1.5,8.8-1.9c6.5-1.5,12.7-2.7,19.2-3.5c5-1.2,9.6-1.9,14.2-2.3
			c3.1-0.4,6.5-0.8,9.6-0.8c5,0.4,10-1.2,14.6-0.4c5,0.8,10.4,0,15.4,0.8c2.7,0.4,5.4,0.4,7.7,0.8c2.7,0.4,5.4,0.8,8.1,1.2
			c8.5,1.5,16.9,3.1,25.4,5.4c6.2,1.5,12.3,3.8,18.1,5.8c5,1.9,10.4,3.8,15.4,5.8c8.8,3.8,16.5,6.9,24.2,10.4
			c9.2,3.8,18.5,7.7,28.1,11.2c4.6,1.5,8.8,3.1,13.5,4.6c1.5,0.4,2.7,0.4,3.8,0c10.8-3.5,21.5-6.9,32.7-9.6
			c4.2-1.2,8.8-1.9,13.1-2.3c4.2-0.4,8.1-0.8,12.3-1.2c3.5-0.4,7.3-0.4,10.8-0.4c4.2,0,8.5,0.4,13.1,0.8c2.3,0.4,4.2,0.4,6.5,0.4
			c3.1,0.4,6.5,0.8,9.6,1.2c5.4,0.8,10.8,1.9,16.1,3.1c5.8,1.2,11.9,2.3,17.7,4.2c1.5,0.4,2.7,0.4,3.8,0
			c12.3-3.8,24.2-8.1,36.5-11.9c10-3.1,20.4-5.8,30.4-8.1c5.8-1.2,11.2-2.3,16.9-3.5c4.6-0.8,8.8-1.5,13.5-1.9c2.3-0.4,5,0,7.3-0.8
			c0.4,0,0.4,0,0.8,0c8.1-0.8,16.1-0.8,24.2-0.4c7.3,0.4,14.6,1.2,21.9,2.7c10.8,1.9,20.8,5,31.1,8.5c5.8,1.9,11.5,3.5,17.3,5.4
			c6.5,2.3,13.1,4.2,19.6,6.5c0.4,0,0.4,0,0.8,0.4c2.7,1.2,5,0.8,7.7-0.4c10.4-4.6,20.8-8.5,31.5-11.5c6.9-2.3,14.2-3.8,21.5-5.4
			c5.4-0.8,10.8-1.5,16.1-2.3c10.8-1.2,21.5-1.2,32.3-0.8c3.1,0,6.2,0.4,9.2,0.8c2.3,0.4,4.6,0.4,6.9,0.8c2.7,0.4,5.4,0.4,8.5,1.2
			c3.5,0.8,7.3,0.8,10.8,0c3.8-0.8,7.7-1.5,11.9-1.9c3.5-0.4,6.9-1.2,10.4-1.5c1.9-0.4,4.2-0.4,6.2-0.4c4.2,0,8.5-1.2,13.1-0.8
			c0,76.9,0,153.4,0,230.2l-0.4,0.4c-255.6,0-511.6,0-767.2,0l-0.4-0.4C755.5,223,755.5,143.4,755.5,63.8z"/>
	</g>
</g>
<g>
	<defs>
		<rect id="SVGID_00000005237415136884560920000012252026154815949970_" x="1512" y="63" width="408" height="216"/>
	</defs>
	<clipPath id="SVGID_00000029012235333164357250000017796101273520918705_">
		<use xlink:href="#SVGID_00000005237415136884560920000012252026154815949970_"  style="overflow:visible;"/>
	</clipPath>
	<g style="clip-path:url(#SVGID_00000029012235333164357250000017796101273520918705_);">
		<path class="st1" d="M1512,72.6c3.1-0.8,5.8-1.5,8.8-1.9c6.5-1.5,12.7-2.7,19.2-3.5c5-1.2,9.6-1.9,14.2-2.3
			c3.1-0.4,6.5-0.8,9.6-0.8c5,0.4,10-1.2,14.6-0.4c5,0.8,10.4,0,15.4,0.8c2.7,0.4,5.4,0.4,7.7,0.8c2.7,0.4,5.4,0.8,8.1,1.2
			c8.5,1.5,16.9,3.1,25.4,5.4c6.1,1.5,12.3,3.8,18.1,5.8c5,1.9,10.4,3.8,15.4,5.8c8.8,3.8,16.5,6.9,24.2,10.4
			c9.2,3.8,18.4,7.7,28.1,11.2c4.6,1.5,8.8,3.1,13.5,4.6c1.5,0.4,2.7,0.4,3.8,0c10.8-3.5,21.5-6.9,32.7-9.6
			c4.2-1.2,8.8-1.9,13.1-2.3c4.2-0.4,8.1-0.8,12.3-1.2c3.5-0.4,7.3-0.4,10.8-0.4c4.2,0,8.5,0.4,13.1,0.8c2.3,0.4,4.2,0.4,6.5,0.4
			c3.1,0.4,6.5,0.8,9.6,1.2c5.4,0.8,10.8,1.9,16.1,3.1c5.8,1.2,11.9,2.3,17.7,4.2c1.5,0.4,2.7,0.4,3.8,0
			c12.3-3.8,24.2-8.1,36.5-11.9c10-3.1,20.4-5.8,30.4-8.1c5.8-1.2,11.1-2.3,16.9-3.5c4.6-0.8,8.8-1.5,13.5-1.9c2.3-0.4,5,0,7.3-0.8
			c0.4,0,0.4,0,0.8,0c8.1-0.8,16.1-0.8,24.2-0.4c7.3,0.4,14.6,1.2,21.9,2.7c10.8,1.9,20.8,5,31.1,8.5c5.8,1.9,11.5,3.5,17.3,5.4
			c6.5,2.3,13.1,4.2,19.6,6.5c0.4,0,0.4,0,0.8,0.4c2.7,1.2,5,0.8,7.7-0.4c10.4-4.6,20.8-8.5,31.5-11.5c6.9-2.3,14.2-3.8,21.5-5.4
			c5.4-0.8,10.8-1.5,16.1-2.3c10.8-1.2,21.5-1.2,32.3-0.8c3.1,0,6.1,0.4,9.2,0.8c2.3,0.4,4.6,0.4,6.9,0.8c2.7,0.4,5.4,0.4,8.5,1.2
			c3.5,0.8,7.3,0.8,10.8,0c3.8-0.8,7.7-1.5,11.9-1.9c3.5-0.4,6.9-1.2,10.4-1.5c1.9-0.4,4.2-0.4,6.2-0.4c4.2,0,8.5-1.2,13.1-0.8
			c0,76.9,0,153.4,0,230.2l-0.4,0.4c-255.6,0-511.6,0-767.2,0l-0.4-0.4C1512,231.7,1512,152.2,1512,72.6z"/>
	</g>
</g>
</svg>
