<svg xmlns="http://www.w3.org/2000/svg" xmlns:xlink="http://www.w3.org/1999/xlink" width="274.135" height="329.709" viewBox="0 0 274.135 329.709">
  <defs>
    <clipPath id="clip-path">
      <path id="Path_5725" data-name="Path 5725" d="M0,0H263.146V80.725H0ZM0,0"/>
    </clipPath>
    <clipPath id="clip-path-2">
      <path id="Path_5728" data-name="Path 5728" d="M0,0H262.254V119.917H0ZM0,0" transform="translate(0)"/>
    </clipPath>
  </defs>
  <g id="Group_2444" data-name="Group 2444" transform="translate(-291.409 -3150.271)">
    <g id="Untitled_design" data-name="Untitled design" transform="matrix(0.996, -0.087, 0.087, 0.996, 290.102, 3171.394)">
      <path id="Path_5722" data-name="Path 5722" d="M97.05,23.106c1.248-1.175,3.445-1.149,5.243-.73s3.566,1.149,5.43,1.072c2.652-.111,4.783-1.79,6.794-3.263s4.551-2.9,7.137-2.37c2.854.577,4.334,3.246,4.92,5.681a6.894,6.894,0,0,0,.894,2.477c1.293,1.807,4.814,1.986,6.349.329.975-1.059,1.126-2.546,2.132-3.588,1.056-1.093,2.864-1.482,4-2.524a5.075,5.075,0,0,0,1.2-4.6c-.667-4.775-3.925-9.162-8.38-12.143a17.8,17.8,0,0,0-3.394-1.815A21.553,21.553,0,0,0,125.008.5C114.623-1.222,103.324,1.563,95.651,7.73a10.89,10.89,0,0,0-2.571,2.7,11.272,11.272,0,0,0-1.116,3.024q-.826,3.165-1.652,6.33c-.369,1.414-1.748,4.062-1.03,5.476.611,1.2,2.308,1.29,3.637,1.042C95.277,25.865,95.626,24.447,97.05,23.106ZM124.8,41.536a34.251,34.251,0,0,1-17.987,2.054c.445,12.651.889,25.281,1.3,37.774,5.885-2.46,11.623-5.211,17.7-7.133Q125.25,57.888,124.8,41.536Zm107.876,261.28c-11,16.448-135.813,1.11-203.7,4.784-6.587.35-21.694,2.721-27.18-1.388-5.142-3.857,2.025-9.623,5.6-12.335,12.613-9.58,30.3-18.058,47.627-18.007,7.365.021,14.966,1.55,21.952-.444,9.031-2.571,14.79-10.43,23.71-13.262a29.388,29.388,0,0,1,7.132-1.234c-1.263-37.334-2.712-75.637-4.187-111.916a46.421,46.421,0,0,1,15.184-1,17.684,17.684,0,0,1,4.384,1.371q.667,56.205,2.581,112.411l31.751,2.4c5.915.449,12.082.965,17.078,3.673,9.047,4.908,11.7,15.53,20.482,20.77,8.42,5.019,19.871,3.712,29.746,6.214,4.354,1.11,9.153,4.28,7.839,7.97" transform="translate(9.462 0)" fill="#fff"/>
      <path id="Path_5723" data-name="Path 5723" d="M15.35,0C11.54,3.22,6.837,5.547,3.041,8.722c-.234.193-.45.387-.662.58q.178,6,.346,11.971a26.341,26.341,0,0,1,2.944-3.428,51.52,51.52,0,0,1,5.87-3.792c1.413-.87,2.77-1.818,4.108-2.8Q15.5,5.627,15.35,0Zm1.022,200.014q-.178-5.655-.346-11.29a59.114,59.114,0,0,1-6.32,3.926,34.033,34.033,0,0,0-6.662,4.071q.178,6.43.353,12.792A15.829,15.829,0,0,0,5.565,208.4C6.272,207.977,11.722,202.858,16.373,200.014Zm-1.022-36c-3.811,3.219-8.513,5.543-12.309,8.718-.234.193-.45.39-.662.584q.178,6,.346,11.971a26.346,26.346,0,0,1,2.944-3.428,51.527,51.527,0,0,1,5.87-3.792c1.413-.87,2.77-1.822,4.108-2.8Q15.5,169.639,15.35,164.012ZM1.606,147.591q.212,6.92.424,13.826c3.335-4.688,7.989-7.893,13-11.034q-.123-5.655-.238-11.305c-2.309,1.628-4.818,3.034-7.238,4.491A49.49,49.49,0,0,0,1.606,147.591ZM.844,123.519q.19,5.688.364,11.387a29.851,29.851,0,0,1,4.443-2.956c2.974-1.64,6.112-3.022,8.911-4.9q-.089-5-.175-9.989c-2.465,1.327-5.242,2.576-6.052,3C6.086,121.244,3.2,122.155.844,123.519ZM1.03,97.447a120.907,120.907,0,0,0,12.993-8.164q.056,5.515.126,11.019A130.289,130.289,0,0,0,.413,110.269Q.206,104.1,0,98l1.03-.558" transform="translate(114.737 84.367)" fill="#b4131b"/>
      <g id="Group_2321" data-name="Group 2321" transform="translate(0.052 71.25)" clip-path="url(#clip-path)">
        <path id="Path_5724" data-name="Path 5724" d="M262.542,39.351c-4.478,5.8-11.206,10.339-17.813,14.778-3.944,2.651-7.883,5.234-11.827,7.8-1.164.033-2.319.071-3.483.1l.563,1.8C223.694,67.911,217.4,71.97,211.12,76.19c-43.446-.569-86.9.755-130.319,2.086Q43.552,79.413,6.318,80.547c-.2-1.383-1.32-3.465-1.509-4.855-2.033-14.93-2.44-29.574-3.08-44.816,6-.257,12.118-1.007,17.92-1.58,7.495-.729,16.106-3.06,23.581-2.963-9.979-.126-19.962-.249-29.941-.487-3.071-.071-8.024-.877-11.774-.74-.4-1.543-1.48-3.647-1.5-4.863-.15-6.249,1.222-11.261,1.3-17.41C49.517,3.952,97.688-.632,145.893.074c20.709.3,41.438,1.584,62.089.476,6.971-.372,11.57,5.175,16.95,8.592q5.406,3.435,10.813,6.867c3.022,1.915,6.049,3.848,9,5.837,3.168.312,6.214.74,6.214.74l3.42,4.153s-.8.3-1.931.7a70.206,70.206,0,0,1,7.708,7l.985-.327,1.387,2.435a2.831,2.831,0,0,1,.015,2.811" transform="translate(0.236 0.004)" fill="#cc785e"/>
      </g>
      <path id="Path_5726" data-name="Path 5726" d="M35.859,2.773a17.445,17.445,0,0,1,.349,9.383c-.918,4.008-2.844,8.045-6.353,10.551a18.674,18.674,0,0,1-3.1,1.792c.268.465.524.929.784,1.394A1.51,1.51,0,0,1,27.8,27.18a1.435,1.435,0,0,1-.948.651c-3.688,1.2-7.64,1.249-11.521,1.149-2.067-.056-4.246-.182-5.982-1.309a.717.717,0,0,1-.312-.327.748.748,0,0,1,.086-.565c.2-.487.948-1.766,1.294-2.755a18.7,18.7,0,0,1-9.171-9.566A17.14,17.14,0,0,1,.014,7.339a2.974,2.974,0,0,0,1.963.149C3.713,7.1,3.969,5.87,5.018,4.7c.918-1.022,2.535-1,3.859-.636a13,13,0,0,0,4,.933c1.952-.1,3.521-1.558,5-2.84S21.223-.361,23.126.1c2.1.5,3.19,2.825,3.621,4.944A6.735,6.735,0,0,0,27.405,7.2a2.986,2.986,0,0,0,4.673.286c.718-.922.829-2.216,1.569-3.123a9.622,9.622,0,0,1,2.212-1.587" transform="translate(104.142 15.409)" fill="#f2ca5b"/>
      <g id="Group_2322" data-name="Group 2322" transform="translate(0 14.996)" clip-path="url(#clip-path-2)">
        <path id="Path_5727" data-name="Path 5727" d="M142.992,4.361c-.966.907-1.112,2.2-2.049,3.123-1.476,1.442-4.861,1.286-6.1-.286a5.65,5.65,0,0,1-.86-2.156C133.416,2.922,131.993.6,129.249.1c-2.486-.457-4.924.788-6.862,2.063S118.406,4.9,115.856,5a21.423,21.423,0,0,1-5.22-.933c-1.729-.364-3.841-.387-5.041.636-1.369,1.167-1.7,2.4-3.972,2.785a5.174,5.174,0,0,1-2.5-.115A1.9,1.9,0,0,0,100.9,8.3a9.03,9.03,0,0,0,2.1-.037c1.617-.264,2.86-1.271,4.424-1.677,3.113-.814,6.5.907,9.746.48,1.433-.19,2.724-.788,4.137-1.041A14.244,14.244,0,0,1,128.506,7a48.289,48.289,0,0,0,6.779,2.316,8.074,8.074,0,0,0,4.04-.059c2.18-.725,3.157-2.714,5.128-3.736a10.491,10.491,0,0,0,1.709-.9,1.981,1.981,0,0,0,.286-.286,12.593,12.593,0,0,0-.578-1.561A12.823,12.823,0,0,0,142.992,4.361ZM219.67,48.824a453.057,453.057,0,0,0-72.308,3.052C171.731,53.412,195.516,51.739,219.67,48.824Zm-113.75,38.47a440.849,440.849,0,0,0-64.659,3.093A399.49,399.49,0,0,0,105.921,87.294Zm155.619-9.432c-4.487,5.8-11.218,10.335-17.836,14.781-3.938,2.643-7.886,5.227-11.834,7.792q-14.357.385-28.69,1.048a231.173,231.173,0,0,1,25.766.855c-6.294,4.082-12.587,8.145-18.871,12.358-43.5-.561-86.992.762-130.464,2.089q-37.28,1.132-74.561,2.275c-.155-1.071-.3-2.145-.447-3.216.529-.03,1.059-.059,1.6-.078,3.526-.089,7.066.078,10.577-.171,6.332-.45,12.451-2.238,18.643-3.294q-11.633.764-23.314.9c-2.685.033-5.322-.037-7.867.03C2.33,98.823,1.072,84.064.451,69.383c6.007-.253,12.135-1,17.943-1.573,7.5-.736,16.122-3.067,23.606-2.97-9.989-.123-19.983-.249-29.967-.487C8.954,64.286,4,63.479.247,63.613c-.233-7.476-.3-14.923-.2-22.269,48.25,1.119,96.471-3.469,144.736-2.758,20.721.309,41.471,1.584,62.144.476,6.978-.375,11.587,5.175,16.972,8.591,3.6,2.286,7.221,4.58,10.819,6.867a195.852,195.852,0,0,1,16.754,11.447l-.015-.011c-1.481.045-2.967.115-4.443.227-6.357.483-14.588,3.394-20.76,2.952,9.984.714,20.022,1.033,30.05.963,1.03.955,2.025,1.941,2.967,2.959C259.845,73.669,262.161,77.056,261.539,77.863ZM111.894,25.351a12.848,12.848,0,0,0,.67-1.164,3.228,3.228,0,0,1,.447.041c1.078.164,2.112.61,3.22.777a42.9,42.9,0,0,0,6.808.327c2.083-.019,4.162-.067,6.235-.134a11.683,11.683,0,0,0,2.375-.245,11.877,11.877,0,0,1,1.758-.446,2.515,2.515,0,0,1,.6.022c.155.212.311.424.466.632a88.281,88.281,0,0,1-10.028.963,44.8,44.8,0,0,1-12.553-.773" transform="translate(0.069 0.413)" fill="#e39f64"/>
      </g>
    </g>
    <text id="Stay_a_while_" data-name="Stay a while!" transform="translate(350.06 3279.077) rotate(-7)" fill="#b4131b" font-size="30" font-family="CrimsonRegular, Crimson"><tspan x="0" y="0">Stay a while!</tspan></text>
  </g>
</svg>
